<svg width="338" height="300" viewBox="0 0 338 300" fill="none" xmlns="http://www.w3.org/2000/svg">
<g clip-path="url(#clip0_80_83)">
<rect width="338" height="300" rx="24" fill="#4B82D2"/>
<path d="M42.44 30.06V41.18H43.98V47.38H40.52V44H29.78V47.38H26.32V41.18H27.74C29.1667 39.9133 29.88 37.84 29.88 34.96V30.06H42.44ZM33.32 32.88V34.96C33.32 37.28 32.78 39.3533 31.7 41.18H39V32.88H33.32ZM58.6114 38.68V39.5H48.8314C48.9381 40.38 49.2447 41 49.7514 41.36C50.2581 41.72 51.0581 41.9 52.1514 41.9C54.0314 41.9 55.0581 41.4933 55.2314 40.68H58.4114C58.1847 43.12 56.0781 44.34 52.0914 44.34C49.8114 44.34 48.1381 43.88 47.0714 42.96C46.0047 42.04 45.4714 40.6 45.4714 38.64C45.4714 36.7467 45.9981 35.3533 47.0514 34.46C48.1181 33.5667 49.7847 33.12 52.0514 33.12C54.3181 33.12 55.9781 33.56 57.0314 34.44C58.0847 35.3067 58.6114 36.72 58.6114 38.68ZM52.0714 35.56C51.0314 35.56 50.2647 35.7133 49.7714 36.02C49.2914 36.3267 48.9914 36.8533 48.8714 37.6H55.2314C55.2047 36.88 54.9381 36.36 54.4314 36.04C53.9381 35.72 53.1514 35.56 52.0714 35.56ZM68.5584 33.16C70.3984 33.16 71.7518 33.6067 72.6184 34.5C73.4984 35.38 73.9384 36.7667 73.9384 38.66C73.9384 40.6067 73.3918 42.04 72.2984 42.96C71.2184 43.88 69.5251 44.34 67.2184 44.34C64.9384 44.34 63.2518 43.86 62.1584 42.9C61.0784 41.94 60.5384 40.4533 60.5384 38.44V37.32C60.5384 35.0133 61.1051 33.1533 62.2384 31.74C63.4918 30.18 65.6251 29.2533 68.6384 28.96L73.2184 28.5V31.16L68.7384 31.62C65.7518 31.94 64.0984 33.12 63.7784 35.16C64.1651 34.56 64.7918 34.08 65.6584 33.72C66.5251 33.3467 67.4918 33.16 68.5584 33.16ZM70.5784 38.64C70.5784 37.56 70.3318 36.7933 69.8384 36.34C69.3584 35.8733 68.5518 35.64 67.4184 35.64C66.1918 35.64 65.2984 35.88 64.7384 36.36C64.1918 36.8267 63.9184 37.5933 63.9184 38.66C63.9051 39.78 64.1584 40.5867 64.6784 41.08C65.1984 41.56 66.0451 41.8 67.2184 41.8C68.4184 41.8 69.2784 41.56 69.7984 41.08C70.3184 40.5867 70.5784 39.7733 70.5784 38.64ZM88.6505 38.68V39.5H78.8705C78.9771 40.38 79.2838 41 79.7905 41.36C80.2971 41.72 81.0971 41.9 82.1905 41.9C84.0705 41.9 85.0971 41.4933 85.2705 40.68H88.4505C88.2238 43.12 86.1171 44.34 82.1305 44.34C79.8505 44.34 78.1771 43.88 77.1105 42.96C76.0438 42.04 75.5105 40.6 75.5105 38.64C75.5105 36.7467 76.0371 35.3533 77.0905 34.46C78.1571 33.5667 79.8238 33.12 82.0905 33.12C84.3571 33.12 86.0171 33.56 87.0705 34.44C88.1238 35.3067 88.6505 36.72 88.6505 38.68ZM82.1105 35.56C81.0705 35.56 80.3038 35.7133 79.8105 36.02C79.3305 36.3267 79.0305 36.8533 78.9105 37.6H85.2705C85.2438 36.88 84.9771 36.36 84.4705 36.04C83.9771 35.72 83.1905 35.56 82.1105 35.56ZM97.0389 44H93.6789V36.1H89.8589V33.46H100.899V36.1H97.0389V44ZM108.893 44.34C106.546 44.34 104.826 43.8867 103.733 42.98C102.639 42.0733 102.093 40.6467 102.093 38.7C102.093 36.78 102.639 35.3733 103.733 34.48C104.826 33.5733 106.546 33.12 108.893 33.12C111.213 33.12 112.913 33.5733 113.993 34.48C115.086 35.3867 115.633 36.7933 115.633 38.7C115.633 40.6467 115.086 42.0733 113.993 42.98C112.913 43.8867 111.213 44.34 108.893 44.34ZM108.893 41.68C110.133 41.68 111.006 41.46 111.513 41.02C112.019 40.5667 112.273 39.7933 112.273 38.7C112.273 37.6333 112.019 36.88 111.513 36.44C111.006 36 110.133 35.78 108.893 35.78C107.639 35.78 106.753 36 106.233 36.44C105.726 36.88 105.473 37.6333 105.473 38.7C105.473 39.8067 105.726 40.58 106.233 41.02C106.753 41.46 107.639 41.68 108.893 41.68ZM127.25 38.34V38.56C128.677 38.92 129.39 39.7333 129.39 41C129.39 42.0667 129.003 42.8333 128.23 43.3C127.457 43.7667 126.177 44 124.39 44H117.63V33.46H124.57C127.53 33.46 129.01 34.3333 129.01 36.08C129.01 36.64 128.87 37.1 128.59 37.46C128.323 37.8067 127.877 38.1 127.25 38.34ZM120.93 35.88V37.64H124.15C124.697 37.64 125.083 37.5733 125.31 37.44C125.55 37.3067 125.67 37.0733 125.67 36.74C125.67 36.1667 125.143 35.88 124.09 35.88H120.93ZM120.93 39.56V41.58H124.35C124.937 41.58 125.363 41.5067 125.63 41.36C125.897 41.2 126.03 40.9467 126.03 40.6C126.03 40.2267 125.897 39.96 125.63 39.8C125.363 39.64 124.93 39.56 124.33 39.56H120.93ZM136.623 33.12C138.569 33.12 140.003 33.4733 140.923 34.18C141.856 34.8733 142.323 35.96 142.323 37.44V44H138.943V42.32C138.116 43.6667 136.803 44.34 135.003 44.34C133.576 44.34 132.496 44.0667 131.763 43.52C131.043 42.96 130.683 42.1533 130.683 41.1C130.683 38.82 132.463 37.68 136.023 37.68C137.143 37.68 138.116 37.78 138.943 37.98V37.44C138.943 36.8133 138.756 36.36 138.383 36.08C138.009 35.7867 137.423 35.64 136.623 35.64C135.209 35.64 134.449 36 134.343 36.72H131.263C131.383 34.32 133.169 33.12 136.623 33.12ZM136.103 41.98C136.969 41.98 137.656 41.8 138.163 41.44C138.669 41.0667 138.929 40.54 138.943 39.86V39.82C138.236 39.6467 137.349 39.56 136.283 39.56C134.656 39.56 133.843 39.9533 133.843 40.74C133.843 41.5667 134.596 41.98 136.103 41.98ZM149.681 33.46H155.901V44H152.641V41.12H151.381L147.961 44H143.861L147.621 40.92C145.434 40.4533 144.341 39.24 144.341 37.28C144.341 36.0267 144.794 35.08 145.701 34.44C146.608 33.7867 147.934 33.46 149.681 33.46ZM152.641 36.02H149.601C148.268 36.02 147.601 36.44 147.601 37.28C147.601 38.12 148.268 38.54 149.601 38.54H152.641V36.02ZM176.168 44H172.528L170.148 39.86H167.768V44H164.408V33.46H167.768V37.2H170.448L172.448 33.46H176.008L173.168 38.72L176.168 44ZM182.873 33.12C184.819 33.12 186.253 33.4733 187.173 34.18C188.106 34.8733 188.573 35.96 188.573 37.44V44H185.193V42.32C184.366 43.6667 183.053 44.34 181.253 44.34C179.826 44.34 178.746 44.0667 178.013 43.52C177.293 42.96 176.933 42.1533 176.933 41.1C176.933 38.82 178.713 37.68 182.273 37.68C183.393 37.68 184.366 37.78 185.193 37.98V37.44C185.193 36.8133 185.006 36.36 184.633 36.08C184.259 35.7867 183.673 35.64 182.873 35.64C181.459 35.64 180.699 36 180.593 36.72H177.513C177.633 34.32 179.419 33.12 182.873 33.12ZM182.353 41.98C183.219 41.98 183.906 41.8 184.413 41.44C184.919 41.0667 185.179 40.54 185.193 39.86V39.82C184.486 39.6467 183.599 39.56 182.533 39.56C180.906 39.56 180.093 39.9533 180.093 40.74C180.093 41.5667 180.846 41.98 182.353 41.98ZM198.851 33.12C200.744 33.12 202.138 33.5733 203.031 34.48C203.938 35.3867 204.391 36.7933 204.391 38.7C204.391 40.6333 203.938 42.06 203.031 42.98C202.138 43.8867 200.744 44.34 198.851 44.34C196.598 44.34 195.078 43.62 194.291 42.18V48.4H190.931V33.46H194.291V35.24C195.064 33.8267 196.584 33.12 198.851 33.12ZM197.791 41.72C198.951 41.72 199.778 41.4867 200.271 41.02C200.778 40.5533 201.031 39.7867 201.031 38.72C201.031 37.64 200.784 36.88 200.291 36.44C199.811 35.9867 198.991 35.76 197.831 35.76C195.404 35.76 194.191 36.62 194.191 38.34V39C194.191 39.8533 194.504 40.52 195.131 41C195.758 41.48 196.644 41.72 197.791 41.72ZM212.781 44H209.421V36.1H205.601V33.46H216.641V36.1H212.781V44ZM223.576 33.12C225.522 33.12 226.956 33.4733 227.876 34.18C228.809 34.8733 229.276 35.96 229.276 37.44V44H225.896V42.32C225.069 43.6667 223.756 44.34 221.956 44.34C220.529 44.34 219.449 44.0667 218.716 43.52C217.996 42.96 217.636 42.1533 217.636 41.1C217.636 38.82 219.416 37.68 222.976 37.68C224.096 37.68 225.069 37.78 225.896 37.98V37.44C225.896 36.8133 225.709 36.36 225.336 36.08C224.962 35.7867 224.376 35.64 223.576 35.64C222.162 35.64 221.402 36 221.296 36.72H218.216C218.336 34.32 220.122 33.12 223.576 33.12ZM223.056 41.98C223.922 41.98 224.609 41.8 225.116 41.44C225.622 41.0667 225.882 40.54 225.896 39.86V39.82C225.189 39.6467 224.302 39.56 223.236 39.56C221.609 39.56 220.796 39.9533 220.796 40.74C220.796 41.5667 221.549 41.98 223.056 41.98Z" fill="white"/>
<path opacity="0.9" d="M31.968 72.256C28.736 72.256 26.784 70 26.784 66.336C26.784 62.64 28.736 60.384 31.968 60.384C35.216 60.384 37.168 62.64 37.168 66.336C37.168 70 35.216 72.256 31.968 72.256ZM28.224 66.336C28.224 69.168 29.632 70.912 31.968 70.912C34.32 70.912 35.728 69.168 35.728 66.336C35.728 63.472 34.32 61.728 31.968 61.728C29.632 61.728 28.224 63.472 28.224 66.336ZM40.2091 68.224C40.1771 69.84 41.2491 70.976 42.8011 70.976C44.3051 70.976 45.3771 69.84 45.3771 68.224C45.3771 66.656 44.3531 65.536 42.9131 65.536C41.3451 65.536 40.2251 66.656 40.2091 68.224ZM38.7371 66.992C38.7371 63.904 39.5531 62.528 41.6651 61.616C42.7531 61.136 43.0731 60.752 43.0731 59.84L44.4491 59.824C44.4491 61.072 44.0171 61.968 42.6891 62.592C41.3291 63.248 40.2251 63.6 40.1291 65.904C40.7371 64.848 41.7611 64.256 43.0091 64.256C45.2651 64.256 46.7851 65.888 46.7851 68.224C46.7851 70.704 45.1211 72.256 42.7691 72.256C41.7771 72.256 40.7691 71.904 39.9531 71.024C39.1371 70.208 38.7371 68.752 38.7371 66.992ZM49.3981 72V64.704H48.0381V63.52H50.7421V66.64H52.9821C55.3661 66.64 56.6941 67.6 56.6941 69.328C56.6941 71.04 55.3661 72 52.9821 72H49.3981ZM50.7421 70.8H52.9821C54.5181 70.8 55.2861 70.32 55.2861 69.328C55.2861 68.32 54.5181 67.824 52.9821 67.824H50.7421V70.8ZM58.2051 67.76C58.2051 65.072 59.7251 63.328 62.0931 63.328C63.9651 63.328 65.6291 64.56 65.7571 67.568L65.7731 68.176H59.6291C59.7571 69.904 60.6371 70.912 62.0931 70.912C62.9891 70.912 63.8211 70.384 64.2051 69.488L65.6451 69.6C65.1491 71.2 63.7091 72.192 62.0931 72.192C59.7251 72.192 58.2051 70.448 58.2051 67.76ZM59.6611 66.992H64.3011C64.0771 65.216 63.1171 64.608 62.0931 64.608C60.7491 64.608 59.8851 65.488 59.6611 66.992ZM75.5393 63.52V70.816H76.9153V74.4H75.5712V72H68.5153V74.4H67.1713V70.816H67.9233C68.5953 70.816 68.9633 70.336 69.1073 69.28L69.8753 63.52H75.5393ZM69.9073 70.816H74.1953V64.704H71.0913L70.4193 69.408C70.3393 70 70.1633 70.464 69.9073 70.816ZM85.3724 63.52V72H84.0284V65.696L80.4284 72H78.7644V63.52H80.1084V69.952L83.7884 63.52H85.3724ZM87.9363 63.52H89.2803V67.184H93.2803V63.52H94.6243V72H93.2803V68.368H89.2803V72H87.9363V63.52ZM104.05 63.52V72H102.706V68.72H100.69L98.7543 72H97.1863L99.2503 68.48C98.0023 68.032 97.3143 67.168 97.3143 66.08C97.3143 64.432 98.5303 63.52 100.706 63.52H104.05ZM98.7543 66.112C98.7543 67.024 99.4583 67.536 100.706 67.536H102.706V64.688H100.706C99.4583 64.688 98.7543 65.2 98.7543 66.112ZM113.216 63.52V72H111.872V65.696L108.272 72H106.608V63.52H107.952V69.952L111.632 63.52H113.216ZM107.648 60.192H108.688C108.688 60.784 109.216 61.248 109.92 61.248C110.608 61.248 111.136 60.784 111.136 60.192H112.176C112.176 61.344 111.184 62.24 109.92 62.24C108.64 62.24 107.648 61.344 107.648 60.192ZM122.427 63.52V64.704H119.371V72H118.011V64.704H114.955V63.52H122.427ZM123.44 67.76C123.44 65.072 124.96 63.328 127.328 63.328C129.2 63.328 130.864 64.56 130.992 67.568L131.008 68.176H124.864C124.992 69.904 125.872 70.912 127.328 70.912C128.224 70.912 129.056 70.384 129.44 69.488L130.88 69.6C130.384 71.2 128.944 72.192 127.328 72.192C124.96 72.192 123.44 70.448 123.44 67.76ZM124.896 66.992H129.536C129.312 65.216 128.352 64.608 127.328 64.608C125.984 64.608 125.12 65.488 124.896 66.992ZM138.518 66.368C138.342 65.264 137.414 64.608 136.406 64.608C134.838 64.608 133.926 65.792 133.926 67.76C133.926 69.728 134.838 70.912 136.406 70.912C137.462 70.912 138.39 70.208 138.582 68.992L140.006 69.088C139.734 71.008 138.198 72.192 136.406 72.192C134.038 72.192 132.518 70.448 132.518 67.76C132.518 65.072 134.038 63.328 136.406 63.328C138.134 63.328 139.702 64.448 139.926 66.272L138.518 66.368ZM141.796 72V63.52H143.14V66.64H145.38C147.764 66.64 149.092 67.6 149.092 69.328C149.092 71.04 147.764 72 145.38 72H141.796ZM143.14 70.8H145.38C146.916 70.8 147.684 70.32 147.684 69.328C147.684 68.32 146.916 67.824 145.38 67.824H143.14V70.8ZM160.596 66.368C160.42 65.264 159.492 64.608 158.484 64.608C156.916 64.608 156.004 65.792 156.004 67.76C156.004 69.728 156.916 70.912 158.484 70.912C159.54 70.912 160.468 70.208 160.66 68.992L162.084 69.088C161.812 71.008 160.276 72.192 158.484 72.192C156.116 72.192 154.596 70.448 154.596 67.76C154.596 65.072 156.116 63.328 158.484 63.328C160.212 63.328 161.78 64.448 162.004 66.272L160.596 66.368ZM168.928 68.224C168.896 69.84 169.968 70.976 171.52 70.976C173.024 70.976 174.096 69.84 174.096 68.224C174.096 66.656 173.072 65.536 171.632 65.536C170.064 65.536 168.944 66.656 168.928 68.224ZM167.456 66.992C167.456 63.904 168.272 62.528 170.384 61.616C171.472 61.136 171.792 60.752 171.792 59.84L173.168 59.824C173.168 61.072 172.736 61.968 171.408 62.592C170.048 63.248 168.944 63.6 168.848 65.904C169.456 64.848 170.48 64.256 171.728 64.256C173.984 64.256 175.504 65.888 175.504 68.224C175.504 70.704 173.84 72.256 171.488 72.256C170.496 72.256 169.488 71.904 168.672 71.024C167.856 70.208 167.456 68.752 167.456 66.992ZM185.801 63.52V72H184.457V64.704H180.825L180.297 69.648C180.137 71.216 179.465 72 178.217 72H177.241V70.656H178.025C178.553 70.656 178.873 70.256 178.953 69.504L179.593 63.52H185.801ZM194.966 63.52V72H193.622V65.696L190.022 72H188.358V63.52H189.702V69.952L193.382 63.52H194.966ZM200.464 66.896C201.44 66.912 202.08 66.448 202.08 65.712C202.08 65.04 201.392 64.608 200.304 64.608C199.312 64.608 198.656 65.008 198.576 65.616L197.12 65.536C197.28 64.176 198.512 63.328 200.304 63.328C202.256 63.328 203.488 64.24 203.488 65.712C203.488 66.512 202.848 67.152 201.792 67.44C203.024 67.792 203.776 68.64 203.776 69.696C203.776 71.232 202.432 72.192 200.304 72.192C198.24 72.192 196.896 71.2 196.816 69.632L198.224 69.568C198.288 70.384 199.088 70.912 200.304 70.912C201.568 70.912 202.368 70.416 202.368 69.616C202.368 68.688 201.616 68.128 200.464 68.144L199.584 68.16V66.88L200.464 66.896ZM205.78 63.52H207.156V67.648L211.14 63.52H213.028L208.852 67.76L213.22 72H211.3L207.156 67.872V72H205.78V63.52ZM221.857 63.52V72H220.513V65.696L216.913 72H215.249V63.52H216.593V69.952L220.273 63.52H221.857ZM224.421 63.52H226.277L228.901 70.592L231.509 63.52H233.349V72H232.005V66.016L229.733 72H228.053L225.765 66.016V72H224.421V63.52ZM242.513 63.52V72H241.169V65.696L237.569 72H235.905V63.52H237.249V69.952L240.929 63.52H242.513ZM249.077 72V63.52H252.597C254.549 63.52 255.797 64.432 255.797 65.872C255.797 66.816 255.125 67.456 253.989 67.616C255.333 67.76 256.149 68.512 256.149 69.6C256.149 71.072 254.949 72 253.061 72H249.077ZM250.421 70.816H253.061C254.069 70.816 254.709 70.336 254.709 69.6C254.709 68.784 254.069 68.288 253.061 68.288H250.421V70.816ZM250.421 67.104H252.597C253.669 67.104 254.357 66.624 254.357 65.872C254.357 65.152 253.669 64.704 252.597 64.704H250.421V67.104ZM31.776 80.64C34.16 80.64 35.648 81.968 35.648 84.08C35.648 85.408 34.736 86.416 33.728 86.704C34.832 86.88 35.328 87.456 35.44 88.656L35.76 92H34.368L34.08 88.8C33.984 87.76 33.296 87.424 31.632 87.424H28.848V92H27.472V80.64H31.776ZM28.848 86.08H31.776C33.328 86.08 34.208 85.36 34.208 84.048C34.208 82.736 33.344 81.984 31.776 81.984H28.848V86.08ZM37.2676 87.76C37.2676 85.072 38.7876 83.328 41.1556 83.328C43.0276 83.328 44.6916 84.56 44.8196 87.568L44.8356 88.176H38.6916C38.8196 89.904 39.6996 90.912 41.1556 90.912C42.0516 90.912 42.8836 90.384 43.2676 89.488L44.7076 89.6C44.2116 91.2 42.7716 92.192 41.1556 92.192C38.7876 92.192 37.2676 90.448 37.2676 87.76ZM38.7236 86.992H43.3636C43.1396 85.216 42.1796 84.608 41.1556 84.608C39.8116 84.608 38.9476 85.488 38.7236 86.992ZM46.8738 80.64H48.2178V90.288C48.2178 90.64 48.3938 90.816 48.7458 90.816H49.4818V92H48.5378C47.5458 92 46.8738 91.328 46.8738 90.352V80.64ZM51.405 83.52H52.749V92H51.405V83.52ZM51.373 82.192V80.656H52.781V82.192H51.373ZM54.9273 86.016C55.2633 84.368 56.5913 83.328 58.3993 83.328C60.5753 83.328 61.8073 84.608 61.8073 86.88V90.288C61.8073 90.64 61.9673 90.816 62.3193 90.816H62.6713V92H62.0953C61.2313 92 60.4793 91.728 60.4793 90.688C60.1113 91.472 59.1833 92.192 57.8393 92.192C56.1432 92.192 54.7833 91.296 54.7833 89.776C54.7833 88.032 56.0953 87.584 57.9833 87.232L60.4633 86.736C60.4473 85.312 59.7593 84.608 58.3993 84.608C57.3273 84.608 56.6073 85.152 56.3513 86.128L54.9273 86.016ZM56.1913 89.776C56.1913 90.448 56.7673 91.008 58.0153 91.008C59.3913 90.992 60.4953 90.032 60.4953 88.048V87.936L58.4953 88.288C57.2313 88.512 56.1913 88.592 56.1913 89.776ZM64.3894 83.52H65.6214L65.6534 84.992C66.0854 83.84 67.0934 83.328 68.2614 83.328C70.1974 83.328 71.1254 84.752 71.1254 86.544V92H69.7814V86.928C69.7814 85.36 69.2534 84.512 67.9734 84.512C66.6294 84.512 65.7334 85.36 65.7334 86.928V92H64.3894V83.52ZM78.9239 86.368C78.7479 85.264 77.8199 84.608 76.8119 84.608C75.2439 84.608 74.3319 85.792 74.3319 87.76C74.3319 89.728 75.2439 90.912 76.8119 90.912C77.8679 90.912 78.7959 90.208 78.9879 88.992L80.4119 89.088C80.1399 91.008 78.6039 92.192 76.8119 92.192C74.4439 92.192 72.9239 90.448 72.9239 87.76C72.9239 85.072 74.4439 83.328 76.8119 83.328C78.5399 83.328 80.1079 84.448 80.3319 86.272L78.9239 86.368ZM81.752 87.76C81.752 85.072 83.272 83.328 85.64 83.328C87.512 83.328 89.176 84.56 89.304 87.568L89.32 88.176H83.176C83.304 89.904 84.184 90.912 85.64 90.912C86.536 90.912 87.368 90.384 87.752 89.488L89.192 89.6C88.696 91.2 87.256 92.192 85.64 92.192C83.272 92.192 81.752 90.448 81.752 87.76ZM83.208 86.992H87.848C87.624 85.216 86.664 84.608 85.64 84.608C84.296 84.608 83.432 85.488 83.208 86.992ZM101.966 83.52V92H100.622V85.696L97.0221 92H95.3581V83.52H96.7021V89.952L100.382 83.52H101.966ZM115.234 83.52V92H113.89V84.704H109.874V92H108.53V83.52H115.234ZM120.921 92.192C118.569 92.192 117.033 90.464 117.033 87.76C117.033 85.056 118.569 83.328 120.921 83.328C123.257 83.328 124.793 85.056 124.793 87.76C124.793 90.464 123.257 92.192 120.921 92.192ZM118.441 87.76C118.441 89.728 119.353 90.912 120.921 90.912C122.473 90.912 123.385 89.728 123.385 87.76C123.385 85.792 122.473 84.608 120.921 84.608C119.353 84.608 118.441 85.792 118.441 87.76ZM135.067 83.52V92H133.723V84.704H130.091L129.563 89.648C129.403 91.216 128.731 92 127.483 92H126.507V90.656H127.291C127.819 90.656 128.139 90.256 128.219 89.504L128.859 83.52H135.067ZM136.696 83.52H138.136L140.68 90.56L143.16 83.52H144.584L141.144 93.072C140.824 93.984 140.216 94.4 139.256 94.4H138.152V93.216H139.128C139.544 93.216 139.784 93.04 139.944 92.624L140.248 91.84H139.8L136.696 83.52ZM153.274 92H151.93V87.888C151.53 88.832 150.57 89.472 149.434 89.472C147.466 89.472 146.218 88.048 146.218 85.792V83.52H147.562V85.792C147.562 87.264 148.298 88.192 149.434 88.192C150.97 88.192 151.93 87.264 151.93 85.776V83.52H153.274V92ZM155.443 86.016C155.779 84.368 157.107 83.328 158.915 83.328C161.091 83.328 162.323 84.608 162.323 86.88V90.288C162.323 90.64 162.483 90.816 162.835 90.816H163.187V92H162.611C161.747 92 160.995 91.728 160.995 90.688C160.627 91.472 159.699 92.192 158.355 92.192C156.659 92.192 155.299 91.296 155.299 89.776C155.299 88.032 156.611 87.584 158.499 87.232L160.979 86.736C160.963 85.312 160.275 84.608 158.915 84.608C157.843 84.608 157.123 85.152 156.867 86.128L155.443 86.016ZM156.707 89.776C156.707 90.448 157.283 91.008 158.531 91.008C159.907 90.992 161.011 90.032 161.011 88.048V87.936L159.011 88.288C157.747 88.512 156.707 88.592 156.707 89.776ZM171.513 83.52V92H170.169V85.696L166.569 92H164.905V83.52H166.249V89.952L169.929 83.52H171.513ZM165.945 80.192H166.985C166.985 80.784 167.513 81.248 168.217 81.248C168.905 81.248 169.433 80.784 169.433 80.192H170.473C170.473 81.344 169.481 82.24 168.217 82.24C166.937 82.24 165.945 81.344 165.945 80.192ZM180.724 83.52V84.704H177.668V92H176.308V84.704H173.252V83.52H180.724ZM181.736 87.76C181.736 85.072 183.256 83.328 185.624 83.328C187.496 83.328 189.16 84.56 189.288 87.568L189.304 88.176H183.16C183.288 89.904 184.168 90.912 185.624 90.912C186.52 90.912 187.352 90.384 187.736 89.488L189.176 89.6C188.68 91.2 187.24 92.192 185.624 92.192C183.256 92.192 181.736 90.448 181.736 87.76ZM183.192 86.992H187.832C187.608 85.216 186.648 84.608 185.624 84.608C184.28 84.608 183.416 85.488 183.192 86.992ZM195.343 83.52H196.719V87.648L200.703 83.52H202.591L198.415 87.76L202.783 92H200.863L196.719 87.872V92H195.343V83.52ZM203.486 87.76C203.486 85.072 205.006 83.328 207.374 83.328C209.246 83.328 210.91 84.56 211.038 87.568L211.054 88.176H204.91C205.038 89.904 205.918 90.912 207.374 90.912C208.27 90.912 209.102 90.384 209.486 89.488L210.926 89.6C210.43 91.2 208.99 92.192 207.374 92.192C205.006 92.192 203.486 90.448 203.486 87.76ZM204.942 86.992H209.582C209.358 85.216 208.398 84.608 207.374 84.608C206.03 84.608 205.166 85.488 204.942 86.992ZM213.014 92V83.52H214.358V90.816H217.414V83.52H218.774V90.816H221.814V83.52H223.158V92H213.014ZM226.459 88.224C226.427 89.84 227.499 90.976 229.051 90.976C230.555 90.976 231.627 89.84 231.627 88.224C231.627 86.656 230.603 85.536 229.163 85.536C227.595 85.536 226.475 86.656 226.459 88.224ZM224.987 86.992C224.987 83.904 225.803 82.528 227.915 81.616C229.003 81.136 229.323 80.752 229.323 79.84L230.699 79.824C230.699 81.072 230.267 81.968 228.939 82.592C227.579 83.248 226.475 83.6 226.379 85.904C226.987 84.848 228.011 84.256 229.259 84.256C231.515 84.256 233.035 85.888 233.035 88.224C233.035 90.704 231.371 92.256 229.019 92.256C228.027 92.256 227.019 91.904 226.203 91.024C225.387 90.208 224.987 88.752 224.987 86.992ZM236.021 89.088C236.341 90.24 237.157 90.912 238.309 90.912C239.717 90.912 240.597 89.968 240.757 88.352H237.924V87.168H240.757C240.597 85.552 239.717 84.608 238.309 84.608C237.141 84.608 236.325 85.296 236.005 86.48H234.565C234.981 84.528 236.373 83.328 238.309 83.328C240.661 83.328 242.197 85.056 242.197 87.76C242.197 90.464 240.661 92.192 238.309 92.192C236.389 92.192 234.997 91.024 234.581 89.088H236.021ZM244.155 83.52H245.531V87.648L249.515 83.52H251.403L247.227 87.76L251.595 92H249.675L245.531 87.872V92H244.155V83.52ZM264.616 80.64V81.984H259.592L259.128 85.424C259.656 84.784 260.664 84.432 261.64 84.432C263.832 84.432 265.384 86.08 265.384 88.352C265.384 90.64 263.72 92.256 261.432 92.256C259.16 92.256 257.464 90.944 257.304 89.072L258.744 88.976C258.92 90.208 260.072 90.912 261.432 90.912C262.936 90.912 263.944 89.856 263.944 88.352C263.944 86.752 262.92 85.744 261.288 85.744C260.232 85.744 259.352 86.224 258.984 87.024H257.496L258.376 80.64H264.616ZM275.927 80.384H277.447L269.159 92.192H267.639L275.927 80.384ZM267.111 83.392C267.111 81.84 268.135 80.624 269.415 80.624C270.695 80.624 271.719 81.84 271.719 83.392C271.719 84.928 270.695 86.144 269.415 86.144C268.135 86.144 267.111 84.928 267.111 83.392ZM268.327 83.392C268.327 84.336 268.743 84.928 269.415 84.928C270.087 84.928 270.519 84.336 270.519 83.392C270.519 82.448 270.087 81.84 269.415 81.84C268.743 81.84 268.327 82.448 268.327 83.392ZM273.287 89.232C273.287 87.696 274.311 86.48 275.591 86.48C276.871 86.48 277.895 87.696 277.895 89.232C277.895 90.784 276.871 92 275.591 92C274.311 92 273.287 90.784 273.287 89.232ZM274.503 89.232C274.503 90.176 274.919 90.784 275.591 90.784C276.263 90.784 276.695 90.176 276.695 89.232C276.695 88.288 276.263 87.696 275.591 87.696C274.919 87.696 274.503 88.288 274.503 89.232ZM27.28 103.52H28.624V107.184H32.624V103.52H33.968V112H32.624V108.368H28.624V112H27.28V103.52ZM36.146 106.016C36.482 104.368 37.81 103.328 39.618 103.328C41.794 103.328 43.026 104.608 43.026 106.88V110.288C43.026 110.64 43.186 110.816 43.538 110.816H43.89V112H43.314C42.45 112 41.698 111.728 41.698 110.688C41.33 111.472 40.402 112.192 39.058 112.192C37.362 112.192 36.002 111.296 36.002 109.776C36.002 108.032 37.314 107.584 39.202 107.232L41.682 106.736C41.666 105.312 40.978 104.608 39.618 104.608C38.546 104.608 37.826 105.152 37.57 106.128L36.146 106.016ZM37.41 109.776C37.41 110.448 37.986 111.008 39.234 111.008C40.61 110.992 41.714 110.032 41.714 108.048V107.936L39.714 108.288C38.45 108.512 37.41 108.592 37.41 109.776ZM55.2051 106.368C55.0291 105.264 54.1011 104.608 53.0931 104.608C51.5251 104.608 50.6131 105.792 50.6131 107.76C50.6131 109.728 51.5251 110.912 53.0931 110.912C54.1491 110.912 55.0771 110.208 55.2691 108.992L56.6931 109.088C56.4211 111.008 54.8851 112.192 53.0931 112.192C50.7251 112.192 49.2051 110.448 49.2051 107.76C49.2051 105.072 50.7251 103.328 53.0931 103.328C54.8211 103.328 56.3891 104.448 56.6131 106.272L55.2051 106.368ZM57.227 103.52H58.667L61.211 110.56L63.691 103.52H65.115L61.675 113.072C61.355 113.984 60.747 114.4 59.787 114.4H58.683V113.216H59.659C60.075 113.216 60.315 113.04 60.475 112.624L60.779 111.84H60.331L57.227 103.52ZM73.4528 103.52V112H72.1088V104.704H68.0928V112H66.7488V103.52H73.4528ZM75.252 107.76C75.252 105.072 76.772 103.328 79.14 103.328C81.012 103.328 82.676 104.56 82.804 107.568L82.82 108.176H76.676C76.804 109.904 77.684 110.912 79.14 110.912C80.036 110.912 80.868 110.384 81.252 109.488L82.692 109.6C82.196 111.2 80.756 112.192 79.14 112.192C76.772 112.192 75.252 110.448 75.252 107.76ZM76.708 106.992H81.348C81.124 105.216 80.164 104.608 79.14 104.608C77.796 104.608 76.932 105.488 76.708 106.992ZM84.78 114.4V103.52H85.996L86.044 104.784C86.508 103.84 87.42 103.328 88.652 103.328C91.18 103.328 92.316 105.424 92.316 107.76C92.316 110.096 91.18 112.192 88.652 112.192C87.468 112.192 86.604 111.728 86.124 110.848V114.4H84.78ZM85.98 107.76C85.98 109.344 86.7 110.912 88.428 110.912C90.172 110.912 90.876 109.376 90.876 107.76C90.876 106.144 90.172 104.608 88.428 104.608C86.7 104.608 85.98 106.176 85.98 107.76ZM94.2644 103.52H96.1204L98.7444 110.592L101.352 103.52H103.192V112H101.848V106.016L99.5764 112H97.8964L95.6084 106.016V112H94.2644V103.52ZM105.365 106.016C105.701 104.368 107.029 103.328 108.837 103.328C111.013 103.328 112.245 104.608 112.245 106.88V110.288C112.245 110.64 112.405 110.816 112.757 110.816H113.109V112H112.533C111.669 112 110.917 111.728 110.917 110.688C110.549 111.472 109.621 112.192 108.277 112.192C106.581 112.192 105.221 111.296 105.221 109.776C105.221 108.032 106.533 107.584 108.421 107.232L110.901 106.736C110.885 105.312 110.197 104.608 108.837 104.608C107.765 104.608 107.045 105.152 106.789 106.128L105.365 106.016ZM106.629 109.776C106.629 110.448 107.205 111.008 108.453 111.008C109.829 110.992 110.933 110.032 110.933 108.048V107.936L108.933 108.288C107.669 108.512 106.629 108.592 106.629 109.776ZM114.827 114.4V103.52H116.043L116.091 104.784C116.555 103.84 117.467 103.328 118.699 103.328C121.227 103.328 122.363 105.424 122.363 107.76C122.363 110.096 121.227 112.192 118.699 112.192C117.515 112.192 116.651 111.728 116.171 110.848V114.4H114.827ZM116.027 107.76C116.027 109.344 116.747 110.912 118.475 110.912C120.219 110.912 120.923 109.376 120.923 107.76C120.923 106.144 120.219 104.608 118.475 104.608C116.747 104.608 116.027 106.176 116.027 107.76ZM124.311 103.52H125.687V107.648L129.671 103.52H131.559L127.383 107.76L131.751 112H129.831L125.687 107.872V112H124.311V103.52ZM132.455 107.76C132.455 105.072 133.975 103.328 136.343 103.328C138.215 103.328 139.879 104.56 140.007 107.568L140.023 108.176H133.879C134.007 109.904 134.887 110.912 136.343 110.912C137.239 110.912 138.071 110.384 138.455 109.488L139.895 109.6C139.399 111.2 137.959 112.192 136.343 112.192C133.975 112.192 132.455 110.448 132.455 107.76ZM133.911 106.992H138.551C138.327 105.216 137.367 104.608 136.343 104.608C134.999 104.608 134.135 105.488 133.911 106.992ZM148.521 103.52V104.704H145.465V112H144.105V104.704H141.049V103.52H148.521ZM150.077 112V103.52H151.421V106.64H153.661C156.045 106.64 157.373 107.6 157.373 109.328C157.373 111.04 156.045 112 153.661 112H150.077ZM151.421 110.8H153.661C155.197 110.8 155.965 110.32 155.965 109.328C155.965 108.32 155.197 107.824 153.661 107.824H151.421V110.8ZM158.877 112V103.52H160.221V112H158.877Z" fill="white"/>
<g filter="url(#filter0_dddd_80_83)">
<g clip-path="url(#clip1_80_83)">
<rect x="101.282" y="235.856" width="237" height="142.5" rx="15" transform="rotate(-18 101.282 235.856)" fill="#F2F4F7"/>
<g filter="url(#filter1_f_80_83)">
<path opacity="0.3" d="M104.702 285.215C94.4622 253.699 111.709 219.85 143.225 209.61L161.766 266.674L104.702 285.215Z" fill="#3C00FF"/>
<path opacity="0.3" d="M143.225 209.61C174.74 199.37 208.589 216.617 218.829 248.133L161.766 266.674L143.225 209.61Z" fill="#FB6514"/>
<path opacity="0.3" d="M104.702 285.215L161.766 266.674L180.307 323.737C148.791 333.977 114.942 316.73 104.702 285.215Z" fill="#2E90FA"/>
<path opacity="0.3" d="M161.766 266.674L218.829 248.133C229.069 279.648 211.822 313.497 180.307 323.737L161.766 266.674Z" fill="#12B76A"/>
</g>
<rect x="316.082" y="278.044" width="34" height="24" rx="3" transform="rotate(-18 316.082 278.044)" fill="white"/>
<path fill-rule="evenodd" clip-rule="evenodd" d="M337.621 288.741C336.803 290.056 335.529 291.104 333.932 291.622C330.371 292.779 326.557 290.865 325.413 287.346C324.27 283.826 326.23 280.035 329.792 278.878C331.388 278.359 333.035 278.458 334.469 279.041C335.287 277.726 336.561 276.678 338.158 276.16C341.719 275.003 345.533 276.917 346.677 280.437C347.82 283.956 345.86 287.747 342.298 288.904C340.702 289.423 339.055 289.324 337.621 288.741Z" fill="#ED0006"/>
<path fill-rule="evenodd" clip-rule="evenodd" d="M337.621 288.741C338.628 287.122 338.942 285.097 338.311 283.155C337.68 281.213 336.236 279.759 334.469 279.041C335.287 277.726 336.561 276.678 338.158 276.16C341.719 275.003 345.533 276.917 346.677 280.437C347.82 283.956 345.86 287.747 342.298 288.904C340.702 289.423 339.055 289.324 337.621 288.741Z" fill="#F9A000"/>
<path fill-rule="evenodd" clip-rule="evenodd" d="M337.621 288.741C338.628 287.122 338.942 285.097 338.311 283.155C337.68 281.213 336.236 279.759 334.469 279.041C333.463 280.66 333.148 282.685 333.779 284.627C334.41 286.569 335.855 288.023 337.621 288.741Z" fill="#FF5E00"/>
<path d="M259.723 294.921C259.303 295.057 258.903 295.086 258.521 295.008C258.138 294.928 257.802 294.756 257.512 294.494C257.224 294.231 257.013 293.89 256.876 293.47L256.187 291.348C256.05 290.928 256.021 290.528 256.099 290.146C256.18 289.763 256.352 289.428 256.615 289.141C256.877 288.851 257.218 288.637 257.637 288.501C258.056 288.365 258.457 288.337 258.84 288.418C259.222 288.496 259.556 288.666 259.844 288.929C260.134 289.191 260.347 289.532 260.483 289.952L261.173 292.074C261.309 292.494 261.337 292.895 261.257 293.277C261.179 293.659 261.009 293.995 260.747 294.285C260.483 294.573 260.142 294.784 259.723 294.921ZM259.445 294.065C259.673 293.991 259.862 293.869 260.012 293.701C260.165 293.528 260.266 293.331 260.317 293.109C260.367 292.885 260.355 292.657 260.28 292.426L259.551 290.183C259.477 289.955 259.354 289.766 259.182 289.617C259.01 289.465 258.812 289.365 258.588 289.318C258.367 289.267 258.142 289.279 257.914 289.353C257.685 289.427 257.495 289.55 257.343 289.723C257.193 289.891 257.093 290.088 257.043 290.312C256.992 290.534 257.003 290.759 257.077 290.987L257.806 293.23C257.881 293.461 258.005 293.653 258.177 293.805C258.349 293.954 258.545 294.054 258.767 294.105C258.991 294.152 259.216 294.139 259.445 294.065ZM265.613 293.007C265.213 293.137 264.823 293.159 264.442 293.075C264.061 292.988 263.722 292.809 263.426 292.539C263.133 292.269 262.918 291.922 262.781 291.5L262.143 289.535C261.997 289.088 261.962 288.664 262.037 288.264C262.115 287.863 262.289 287.515 262.559 287.219C262.831 286.922 263.184 286.703 263.618 286.562C263.943 286.457 264.269 286.419 264.594 286.449C264.919 286.479 265.225 286.581 265.512 286.756L265.056 287.581C264.89 287.468 264.704 287.396 264.499 287.365C264.295 287.33 264.093 287.345 263.893 287.41C263.637 287.493 263.431 287.628 263.277 287.814C263.122 287.997 263.021 288.204 262.973 288.437C262.929 288.67 262.943 288.898 263.017 289.124L263.384 290.254L263.144 290.114C263.246 289.825 263.406 289.571 263.625 289.352C263.844 289.132 264.103 288.974 264.403 288.877C264.785 288.752 265.156 288.732 265.514 288.814C265.873 288.893 266.189 289.057 266.459 289.306C266.732 289.555 266.931 289.871 267.055 290.253C267.18 290.638 267.197 291.019 267.105 291.396C267.015 291.769 266.839 292.101 266.576 292.391C266.316 292.677 265.995 292.883 265.613 293.007ZM265.333 292.147C265.556 292.075 265.741 291.954 265.888 291.787C266.035 291.619 266.134 291.426 266.183 291.208C266.232 290.991 266.22 290.77 266.148 290.548C266.076 290.325 265.956 290.14 265.788 289.993C265.623 289.845 265.432 289.746 265.214 289.697C264.996 289.648 264.776 289.659 264.553 289.732C264.331 289.804 264.144 289.924 263.994 290.093C263.847 290.261 263.748 290.454 263.699 290.672C263.65 290.889 263.662 291.11 263.734 291.332C263.805 291.552 263.925 291.735 264.093 291.883C264.261 292.03 264.454 292.13 264.673 292.182C264.89 292.231 265.111 292.219 265.333 292.147ZM268.752 285.032L269.655 284.738L270.014 291.435L269.111 291.728L268.752 285.032ZM273.03 290.45L272.775 289.653L274.677 286.376C274.832 286.114 274.92 285.884 274.94 285.685C274.963 285.485 274.947 285.298 274.89 285.124C274.819 284.904 274.706 284.723 274.553 284.58C274.398 284.435 274.219 284.339 274.014 284.292C273.81 284.245 273.596 284.257 273.374 284.33C273.145 284.404 272.959 284.524 272.814 284.691C272.672 284.854 272.579 285.04 272.537 285.25C272.495 285.459 272.508 285.666 272.578 285.87L271.662 286.168C271.532 285.769 271.508 285.39 271.591 285.032C271.675 284.67 271.848 284.354 272.11 284.082C272.371 283.808 272.706 283.605 273.114 283.472C273.502 283.346 273.879 283.322 274.244 283.398C274.609 283.472 274.93 283.633 275.206 283.881C275.485 284.128 275.688 284.447 275.815 284.838C275.906 285.12 275.947 285.372 275.937 285.593C275.927 285.814 275.875 286.033 275.781 286.249C275.687 286.466 275.561 286.708 275.403 286.978L273.932 289.5L273.75 289.275L276.921 288.244L277.198 289.096L273.03 290.45ZM281.097 287.834L280.748 286.76L277.967 287.663L277.691 286.816L278.316 281.924L279.339 281.592L278.714 286.484L280.473 285.912L279.931 284.243L280.838 283.948L281.38 285.617L281.992 285.419L282.268 286.266L281.656 286.465L282.005 287.539L281.097 287.834Z" fill="#344054"/>
<path d="M124.71 256.633L122.013 248.333L125.126 247.322C125.763 247.114 126.334 247.051 126.839 247.132C127.346 247.213 127.775 247.417 128.126 247.745C128.48 248.069 128.742 248.496 128.914 249.025C129.087 249.558 129.124 250.057 129.024 250.522C128.926 250.984 128.693 251.393 128.325 251.748C127.956 252.101 127.452 252.381 126.815 252.589L124.598 253.309L124.192 252.061L126.206 251.406C126.579 251.285 126.868 251.135 127.072 250.955C127.276 250.772 127.402 250.562 127.45 250.325C127.501 250.085 127.478 249.818 127.382 249.523C127.287 249.229 127.147 248.996 126.963 248.826C126.778 248.653 126.55 248.551 126.277 248.52C126.003 248.487 125.678 248.531 125.303 248.653L123.925 249.101L126.214 256.144L124.71 256.633ZM127.776 251.479L131.053 254.572L129.375 255.117L126.134 252.012L127.776 251.479ZM134.774 253.497C134.15 253.7 133.569 253.746 133.031 253.634C132.494 253.518 132.027 253.261 131.628 252.862C131.229 252.46 130.923 251.933 130.712 251.282C130.504 250.642 130.443 250.04 130.529 249.478C130.617 248.911 130.837 248.422 131.189 248.008C131.541 247.592 132.014 247.288 132.609 247.095C132.992 246.97 133.374 246.915 133.755 246.928C134.138 246.938 134.502 247.029 134.847 247.201C135.196 247.371 135.51 247.631 135.79 247.979C136.07 248.324 136.298 248.769 136.476 249.315L136.622 249.765L131.519 251.423L131.198 250.434L134.894 249.233C134.8 248.953 134.658 248.723 134.468 248.543C134.277 248.36 134.054 248.239 133.8 248.182C133.548 248.123 133.281 248.14 133 248.231C132.7 248.328 132.461 248.487 132.281 248.707C132.101 248.924 131.985 249.17 131.934 249.447C131.886 249.719 131.905 249.995 131.993 250.274L132.273 251.138C132.391 251.5 132.558 251.789 132.775 252.005C132.991 252.219 133.24 252.356 133.522 252.417C133.804 252.474 134.104 252.452 134.423 252.348C134.636 252.279 134.82 252.186 134.974 252.07C135.126 251.952 135.247 251.813 135.335 251.653C135.424 251.493 135.472 251.314 135.479 251.118L136.899 250.826C136.93 251.217 136.868 251.586 136.713 251.935C136.559 252.281 136.319 252.589 135.992 252.86C135.664 253.128 135.258 253.34 134.774 253.497ZM137.514 243.296L140.211 251.596L138.744 252.073L136.047 243.773L137.514 243.296ZM141.72 251.106L139.697 244.881L141.164 244.404L143.187 250.63L141.72 251.106ZM140.147 243.758C139.915 243.833 139.69 243.821 139.473 243.722C139.254 243.62 139.109 243.459 139.038 243.24C138.966 243.019 138.989 242.804 139.106 242.595C139.223 242.384 139.398 242.241 139.63 242.165C139.865 242.089 140.09 242.102 140.306 242.205C140.524 242.305 140.668 242.466 140.74 242.687C140.812 242.906 140.789 243.121 140.672 243.332C140.557 243.54 140.383 243.682 140.147 243.758ZM146.527 249.683C146.133 249.811 145.755 249.856 145.393 249.819C145.033 249.777 144.716 249.647 144.442 249.429C144.171 249.209 143.969 248.895 143.836 248.487C143.722 248.136 143.692 247.825 143.747 247.553C143.802 247.281 143.92 247.04 144.099 246.829C144.279 246.619 144.498 246.432 144.756 246.271C145.016 246.106 145.292 245.958 145.584 245.827C145.936 245.671 146.221 245.541 146.438 245.437C146.655 245.331 146.804 245.229 146.885 245.131C146.969 245.029 146.988 244.908 146.942 244.767L146.934 244.743C146.835 244.438 146.668 244.231 146.432 244.122C146.197 244.013 145.909 244.014 145.568 244.125C145.209 244.242 144.949 244.413 144.79 244.638C144.633 244.862 144.552 245.093 144.549 245.33L143.116 245.581C143.101 245.167 143.176 244.793 143.342 244.458C143.508 244.121 143.749 243.83 144.067 243.587C144.384 243.34 144.761 243.146 145.196 243.005C145.495 242.907 145.805 242.846 146.125 242.819C146.445 242.793 146.755 242.821 147.053 242.903C147.351 242.983 147.619 243.136 147.857 243.363C148.098 243.59 148.285 243.91 148.42 244.323L149.773 248.489L148.363 248.948L148.085 248.092L148.037 248.108C148.004 248.31 147.931 248.513 147.818 248.717C147.707 248.917 147.544 249.103 147.331 249.274C147.12 249.441 146.852 249.578 146.527 249.683ZM146.558 248.481C146.853 248.385 147.089 248.244 147.268 248.058C147.445 247.869 147.56 247.658 147.613 247.426C147.669 247.193 147.659 246.961 147.585 246.732L147.347 245.998C147.313 246.051 147.246 246.111 147.146 246.18C147.048 246.247 146.936 246.315 146.809 246.383C146.681 246.452 146.555 246.517 146.428 246.579C146.302 246.641 146.193 246.694 146.1 246.739C145.891 246.84 145.71 246.952 145.559 247.076C145.409 247.2 145.303 247.339 145.242 247.493C145.181 247.644 145.181 247.814 145.243 248.004C145.33 248.274 145.495 248.446 145.737 248.519C145.979 248.593 146.253 248.58 146.558 248.481ZM151.531 243.886L152.716 247.533L151.249 248.01L149.226 241.785L150.628 241.329L150.972 242.387L151.045 242.363C151.075 241.968 151.213 241.617 151.46 241.31C151.709 241.002 152.066 240.772 152.531 240.621C152.961 240.482 153.365 240.452 153.743 240.532C154.125 240.612 154.46 240.797 154.748 241.088C155.04 241.379 155.265 241.773 155.424 242.271L156.712 246.235L155.245 246.712L154.031 242.975C153.895 242.559 153.682 242.268 153.389 242.104C153.099 241.938 152.765 241.916 152.387 242.039C152.13 242.123 151.92 242.254 151.757 242.432C151.596 242.607 151.493 242.818 151.448 243.066C151.406 243.313 151.433 243.586 151.531 243.886ZM160.958 244.99C160.337 245.192 159.759 245.229 159.224 245.1C158.693 244.972 158.228 244.706 157.832 244.303C157.437 243.897 157.137 243.379 156.932 242.749C156.727 242.117 156.667 241.519 156.753 240.957C156.838 240.391 157.059 239.902 157.414 239.487C157.771 239.07 158.254 238.762 158.862 238.565C159.367 238.4 159.844 238.348 160.294 238.408C160.745 238.465 161.142 238.624 161.484 238.886C161.825 239.146 162.085 239.495 162.263 239.933L160.861 240.388C160.707 240.107 160.491 239.901 160.212 239.77C159.936 239.636 159.62 239.626 159.266 239.741C158.966 239.839 158.729 240.005 158.555 240.241C158.38 240.474 158.278 240.762 158.248 241.103C158.221 241.443 158.276 241.823 158.412 242.241C158.55 242.666 158.73 243.01 158.954 243.275C159.176 243.537 159.427 243.714 159.704 243.806C159.984 243.895 160.277 243.889 160.582 243.79C160.798 243.72 160.978 243.617 161.122 243.48C161.268 243.34 161.373 243.173 161.438 242.979C161.504 242.784 161.521 242.568 161.492 242.33L162.894 241.874C163.002 242.326 162.999 242.758 162.886 243.172C162.771 243.582 162.552 243.946 162.228 244.264C161.903 244.578 161.48 244.82 160.958 244.99ZM167.586 242.836C166.961 243.039 166.38 243.085 165.842 242.973C165.306 242.857 164.838 242.6 164.44 242.201C164.04 241.799 163.735 241.272 163.523 240.621C163.315 239.981 163.254 239.379 163.34 238.817C163.428 238.25 163.648 237.761 164.001 237.347C164.353 236.931 164.826 236.627 165.42 236.434C165.804 236.309 166.186 236.253 166.567 236.267C166.949 236.277 167.313 236.368 167.659 236.54C168.007 236.71 168.321 236.97 168.602 237.318C168.881 237.663 169.11 238.108 169.287 238.654L169.433 239.104L164.331 240.762L164.009 239.773L167.705 238.572C167.611 238.292 167.469 238.062 167.28 237.882C167.089 237.699 166.866 237.578 166.611 237.521C166.359 237.462 166.093 237.479 165.812 237.57C165.512 237.667 165.272 237.826 165.092 238.046C164.912 238.262 164.797 238.509 164.746 238.785C164.697 239.058 164.717 239.334 164.804 239.613L165.085 240.477C165.202 240.839 165.37 241.128 165.586 241.344C165.802 241.558 166.051 241.695 166.334 241.755C166.615 241.813 166.916 241.79 167.234 241.687C167.448 241.617 167.631 241.525 167.785 241.409C167.938 241.291 168.058 241.152 168.147 240.992C168.235 240.832 168.283 240.653 168.291 240.456L169.711 240.165C169.742 240.555 169.68 240.925 169.524 241.274C169.371 241.62 169.13 241.928 168.803 242.199C168.475 242.467 168.069 242.679 167.586 242.836Z" fill="#344054"/>
<g clip-path="url(#clip2_80_83)">
<path d="M313.885 183.563C315.982 185.45 317.544 187.857 318.416 190.54C319.288 193.223 319.438 196.088 318.852 198.847M311.069 186.336C312.704 187.809 313.923 189.686 314.603 191.779C315.283 193.871 315.4 196.106 314.943 198.259M308.361 188.923C309.548 190.002 310.434 191.375 310.931 192.904C311.428 194.433 311.518 196.065 311.192 197.636M305.692 191.632C306.506 192.28 307.105 193.14 307.421 194.112C307.737 195.085 307.757 196.132 307.48 197.135" stroke="white" stroke-width="1.92857" stroke-linecap="round"/>
</g>
</g>
<rect x="101.755" y="236.096" width="236.25" height="141.75" rx="14.625" transform="rotate(-18 101.755 236.096)" stroke="url(#paint0_linear_80_83)" stroke-width="0.75"/>
</g>
</g>
<defs>
<filter id="filter0_dddd_80_83" x="28.2822" y="119.619" width="347.436" height="260.763" filterUnits="userSpaceOnUse" color-interpolation-filters="sRGB">
<feFlood flood-opacity="0" result="BackgroundImageFix"/>
<feColorMatrix in="SourceAlpha" type="matrix" values="0 0 0 0 0 0 0 0 0 0 0 0 0 0 0 0 0 0 127 0" result="hardAlpha"/>
<feOffset dx="-3" dy="-1"/>
<feGaussianBlur stdDeviation="4"/>
<feColorMatrix type="matrix" values="0 0 0 0 0.878431 0 0 0 0 0.878431 0 0 0 0 0.886275 0 0 0 0.1 0"/>
<feBlend mode="normal" in2="BackgroundImageFix" result="effect1_dropShadow_80_83"/>
<feColorMatrix in="SourceAlpha" type="matrix" values="0 0 0 0 0 0 0 0 0 0 0 0 0 0 0 0 0 0 127 0" result="hardAlpha"/>
<feOffset dx="-13" dy="-5"/>
<feGaussianBlur stdDeviation="7"/>
<feColorMatrix type="matrix" values="0 0 0 0 0.878431 0 0 0 0 0.878431 0 0 0 0 0.886275 0 0 0 0.09 0"/>
<feBlend mode="normal" in2="effect1_dropShadow_80_83" result="effect2_dropShadow_80_83"/>
<feColorMatrix in="SourceAlpha" type="matrix" values="0 0 0 0 0 0 0 0 0 0 0 0 0 0 0 0 0 0 127 0" result="hardAlpha"/>
<feOffset dx="-29" dy="-12"/>
<feGaussianBlur stdDeviation="9.5"/>
<feColorMatrix type="matrix" values="0 0 0 0 0.878431 0 0 0 0 0.878431 0 0 0 0 0.886275 0 0 0 0.05 0"/>
<feBlend mode="normal" in2="effect2_dropShadow_80_83" result="effect3_dropShadow_80_83"/>
<feColorMatrix in="SourceAlpha" type="matrix" values="0 0 0 0 0 0 0 0 0 0 0 0 0 0 0 0 0 0 127 0" result="hardAlpha"/>
<feOffset dx="-51" dy="-21"/>
<feGaussianBlur stdDeviation="11"/>
<feColorMatrix type="matrix" values="0 0 0 0 0.878431 0 0 0 0 0.878431 0 0 0 0 0.886275 0 0 0 0.01 0"/>
<feBlend mode="normal" in2="effect3_dropShadow_80_83" result="effect4_dropShadow_80_83"/>
<feBlend mode="normal" in="SourceGraphic" in2="effect4_dropShadow_80_83" result="shape"/>
</filter>
<filter id="filter1_f_80_83" x="-9.83887" y="95.0692" width="343.209" height="343.209" filterUnits="userSpaceOnUse" color-interpolation-filters="sRGB">
<feFlood flood-opacity="0" result="BackgroundImageFix"/>
<feBlend mode="normal" in="SourceGraphic" in2="BackgroundImageFix" result="shape"/>
<feGaussianBlur stdDeviation="48" result="effect1_foregroundBlur_80_83"/>
</filter>
<linearGradient id="paint0_linear_80_83" x1="101.282" y1="241.873" x2="332.869" y2="386.994" gradientUnits="userSpaceOnUse">
<stop stop-color="white"/>
<stop offset="1" stop-color="white" stop-opacity="0.2"/>
</linearGradient>
<clipPath id="clip0_80_83">
<rect width="338" height="300" rx="24" fill="white"/>
</clipPath>
<clipPath id="clip1_80_83">
<rect x="101.282" y="235.856" width="237" height="142.5" rx="15" transform="rotate(-18 101.282 235.856)" fill="white"/>
</clipPath>
<clipPath id="clip2_80_83">
<rect width="15" height="18" fill="white" transform="translate(302.786 186.155) rotate(-18)"/>
</clipPath>
</defs>
</svg>
