<svg width="337" height="300" viewBox="0 0 337 300" fill="none" xmlns="http://www.w3.org/2000/svg">
<g clip-path="url(#clip0_80_229)">
<rect width="337" height="300" rx="24" fill="#4B82D2"/>
<path d="M42.1 44H38.28L34.44 38.2H30.82V44H27.38V30.06H30.82V35.38H34.7L38.16 30.06H41.94L37.42 36.96L42.1 44ZM48.9077 33.12C50.8543 33.12 52.2877 33.4733 53.2077 34.18C54.141 34.8733 54.6077 35.96 54.6077 37.44V44H51.2277V42.32C50.401 43.6667 49.0877 44.34 47.2877 44.34C45.861 44.34 44.781 44.0667 44.0477 43.52C43.3277 42.96 42.9677 42.1533 42.9677 41.1C42.9677 38.82 44.7477 37.68 48.3077 37.68C49.4277 37.68 50.401 37.78 51.2277 37.98V37.44C51.2277 36.8133 51.041 36.36 50.6677 36.08C50.2943 35.7867 49.7077 35.64 48.9077 35.64C47.4943 35.64 46.7343 36 46.6277 36.72H43.5477C43.6677 34.32 45.4543 33.12 48.9077 33.12ZM48.3877 41.98C49.2543 41.98 49.941 41.8 50.4477 41.44C50.9543 41.0667 51.2143 40.54 51.2277 39.86V39.82C50.521 39.6467 49.6343 39.56 48.5677 39.56C46.941 39.56 46.1277 39.9533 46.1277 40.74C46.1277 41.5667 46.881 41.98 48.3877 41.98ZM64.8861 33.12C66.7794 33.12 68.1728 33.5733 69.0661 34.48C69.9728 35.3867 70.4261 36.7933 70.4261 38.7C70.4261 40.6333 69.9728 42.06 69.0661 42.98C68.1728 43.8867 66.7794 44.34 64.8861 44.34C62.6328 44.34 61.1128 43.62 60.3261 42.18V48.4H56.9661V33.46H60.3261V35.24C61.0994 33.8267 62.6194 33.12 64.8861 33.12ZM63.8261 41.72C64.9861 41.72 65.8128 41.4867 66.3061 41.02C66.8128 40.5533 67.0661 39.7867 67.0661 38.72C67.0661 37.64 66.8194 36.88 66.3261 36.44C65.8461 35.9867 65.0261 35.76 63.8661 35.76C61.4394 35.76 60.2261 36.62 60.2261 38.34V39C60.2261 39.8533 60.5394 40.52 61.1661 41C61.7928 41.48 62.6794 41.72 63.8261 41.72ZM78.8163 44H75.4563V36.1H71.6363V33.46H82.6763V36.1H78.8163V44ZM89.6108 33.12C91.5574 33.12 92.9908 33.4733 93.9108 34.18C94.8441 34.8733 95.3108 35.96 95.3108 37.44V44H91.9308V42.32C91.1041 43.6667 89.7908 44.34 87.9908 44.34C86.5641 44.34 85.4841 44.0667 84.7508 43.52C84.0308 42.96 83.6708 42.1533 83.6708 41.1C83.6708 38.82 85.4508 37.68 89.0108 37.68C90.1308 37.68 91.1041 37.78 91.9308 37.98V37.44C91.9308 36.8133 91.7441 36.36 91.3708 36.08C90.9974 35.7867 90.4108 35.64 89.6108 35.64C88.1974 35.64 87.4374 36 87.3308 36.72H84.2508C84.3708 34.32 86.1574 33.12 89.6108 33.12ZM89.0908 41.98C89.9574 41.98 90.6441 41.8 91.1508 41.44C91.6574 41.0667 91.9174 40.54 91.9308 39.86V39.82C91.2241 39.6467 90.3374 39.56 89.2708 39.56C87.6441 39.56 86.8308 39.9533 86.8308 40.74C86.8308 41.5667 87.5841 41.98 89.0908 41.98ZM115.603 33.46V41.4H117.123V47.34H113.863V44H106.143V47.34H102.863V41.4H104.143C105.116 40.4667 105.603 38.8 105.603 36.4V33.46H115.603ZM107.683 41.4H112.303V36.04H108.863V37.1C108.863 38.6333 108.47 40.0667 107.683 41.4ZM120.709 33.46H131.009V44H127.649V36.1H124.109V37.5C124.109 39.82 123.636 41.54 122.689 42.66C121.743 43.78 120.289 44.34 118.329 44.34V41.68C119.169 41.5733 119.776 41.2 120.149 40.56C120.523 39.9067 120.709 38.8867 120.709 37.5V33.46ZM138.45 33.46H144.67V44H141.41V41.12H140.15L136.73 44H132.63L136.39 40.92C134.204 40.4533 133.11 39.24 133.11 37.28C133.11 36.0267 133.564 35.08 134.47 34.44C135.377 33.7867 136.704 33.46 138.45 33.46ZM141.41 36.02H138.37C137.037 36.02 136.37 36.44 136.37 37.28C136.37 38.12 137.037 38.54 138.37 38.54H141.41V36.02ZM161.117 33.16C162.957 33.16 164.31 33.6067 165.177 34.5C166.057 35.38 166.497 36.7667 166.497 38.66C166.497 40.6067 165.95 42.04 164.857 42.96C163.777 43.88 162.084 44.34 159.777 44.34C157.497 44.34 155.81 43.86 154.717 42.9C153.637 41.94 153.097 40.4533 153.097 38.44V37.32C153.097 35.0133 153.664 33.1533 154.797 31.74C156.05 30.18 158.184 29.2533 161.197 28.96L165.777 28.5V31.16L161.297 31.62C158.31 31.94 156.657 33.12 156.337 35.16C156.724 34.56 157.35 34.08 158.217 33.72C159.084 33.3467 160.05 33.16 161.117 33.16ZM163.137 38.64C163.137 37.56 162.89 36.7933 162.397 36.34C161.917 35.8733 161.11 35.64 159.977 35.64C158.75 35.64 157.857 35.88 157.297 36.36C156.75 36.8267 156.477 37.5933 156.477 38.66C156.464 39.78 156.717 40.5867 157.237 41.08C157.757 41.56 158.604 41.8 159.777 41.8C160.977 41.8 161.837 41.56 162.357 41.08C162.877 40.5867 163.137 39.7733 163.137 38.64ZM169.791 33.46H180.091V44H176.731V36.1H173.191V37.5C173.191 39.82 172.718 41.54 171.771 42.66C170.825 43.78 169.371 44.34 167.411 44.34V41.68C168.251 41.5733 168.858 41.2 169.231 40.56C169.605 39.9067 169.791 38.8867 169.791 37.5V33.46ZM190.653 33.46H195.173V44H191.813V36.48H191.433L187.073 44H182.533V33.46H185.893V40.96H186.233L190.653 33.46ZM206.911 38.4V38.66C208.417 38.9267 209.171 39.7867 209.171 41.24C209.171 43.3067 207.124 44.34 203.031 44.34C201.004 44.34 199.484 44.04 198.471 43.44C197.471 42.84 196.911 41.9467 196.791 40.76H200.091C200.264 41.52 201.277 41.9 203.131 41.9C204.971 41.9 205.891 41.5067 205.891 40.72C205.891 40.3733 205.684 40.1267 205.271 39.98C204.871 39.8333 204.191 39.76 203.231 39.76H200.431V37.44H203.231C204.084 37.44 204.691 37.3733 205.051 37.24C205.411 37.0933 205.591 36.8467 205.591 36.5C205.591 35.8733 204.764 35.56 203.111 35.56C201.377 35.56 200.444 35.9067 200.311 36.6H197.111C197.204 35.4267 197.737 34.5533 198.711 33.98C199.684 33.4067 201.177 33.12 203.191 33.12C207.004 33.12 208.911 34.1067 208.911 36.08C208.911 37.2533 208.244 38.0267 206.911 38.4ZM222.75 44H219.11L216.73 39.86H214.35V44H210.99V33.46H214.35V37.2H217.03L219.03 33.46H222.59L219.75 38.72L222.75 44ZM232.43 33.46H236.95V44H233.59V36.48H233.21L228.85 44H224.31V33.46H227.67V40.96H228.01L232.43 33.46ZM251.388 44H247.848L245.928 39.86H244.168L242.228 44H238.688L241.208 38.6L238.828 33.46H242.348L244.088 37.2H245.968L247.728 33.46H251.248L248.868 38.6L251.388 44Z" fill="white"/>
<path opacity="0.9" d="M31.968 72.256C28.736 72.256 26.784 70 26.784 66.336C26.784 62.64 28.736 60.384 31.968 60.384C35.216 60.384 37.168 62.64 37.168 66.336C37.168 70 35.216 72.256 31.968 72.256ZM28.224 66.336C28.224 69.168 29.632 70.912 31.968 70.912C34.32 70.912 35.728 69.168 35.728 66.336C35.728 63.472 34.32 61.728 31.968 61.728C29.632 61.728 28.224 63.472 28.224 66.336ZM38.7051 67.712C38.7051 65.616 40.2251 64.112 42.4651 63.856V60.64H43.8251V63.872C46.0491 64.128 47.5531 65.632 47.5531 67.712C47.5531 69.792 46.0491 71.296 43.8251 71.552V74.4H42.4651V71.568C40.2251 71.312 38.7051 69.808 38.7051 67.712ZM40.1451 67.712C40.1451 69.072 41.0251 70 42.4651 70.208V65.216C41.0251 65.424 40.1451 66.352 40.1451 67.712ZM43.8251 70.208C45.2491 69.984 46.1131 69.056 46.1131 67.712C46.1131 66.368 45.2491 65.44 43.8251 65.216V70.208ZM52.9525 72.192C50.6005 72.192 49.0645 70.464 49.0645 67.76C49.0645 65.056 50.6005 63.328 52.9525 63.328C55.2885 63.328 56.8245 65.056 56.8245 67.76C56.8245 70.464 55.2885 72.192 52.9525 72.192ZM50.4725 67.76C50.4725 69.728 51.3845 70.912 52.9525 70.912C54.5045 70.912 55.4165 69.728 55.4165 67.76C55.4165 65.792 54.5045 64.608 52.9525 64.608C51.3845 64.608 50.4725 65.792 50.4725 67.76ZM58.78 74.4V63.52H59.996L60.044 64.784C60.508 63.84 61.42 63.328 62.652 63.328C65.18 63.328 66.316 65.424 66.316 67.76C66.316 70.096 65.18 72.192 62.652 72.192C61.468 72.192 60.604 71.728 60.124 70.848V74.4H58.78ZM59.98 67.76C59.98 69.344 60.7 70.912 62.428 70.912C64.172 70.912 64.876 69.376 64.876 67.76C64.876 66.144 64.172 64.608 62.428 64.608C60.7 64.608 59.98 66.176 59.98 67.76ZM68.2644 63.52H70.1204L72.7444 70.592L75.3524 63.52H77.1924V72H75.8484V66.016L73.5764 72H71.8964L69.6084 66.016V72H68.2644V63.52ZM86.3568 63.52V72H85.0128V65.696L81.4128 72H79.7488V63.52H81.0928V69.952L84.7728 63.52H86.3568ZM95.5677 63.52V64.704H92.5118V72H91.1518V64.704H88.0958V63.52H95.5677ZM96.5801 67.76C96.5801 65.072 98.1001 63.328 100.468 63.328C102.34 63.328 104.004 64.56 104.132 67.568L104.148 68.176H98.0041C98.1321 69.904 99.0121 70.912 100.468 70.912C101.364 70.912 102.196 70.384 102.58 69.488L104.02 69.6C103.524 71.2 102.084 72.192 100.468 72.192C98.1001 72.192 96.5801 70.448 96.5801 67.76ZM98.0361 66.992H102.676C102.452 65.216 101.492 64.608 100.468 64.608C99.1241 64.608 98.2601 65.488 98.0361 66.992ZM116.89 63.52V72H115.546V64.704H111.53V72H110.186V63.52H116.89ZM119.139 74.4V63.52H120.355L120.403 64.784C120.867 63.84 121.779 63.328 123.011 63.328C125.539 63.328 126.675 65.424 126.675 67.76C126.675 70.096 125.539 72.192 123.011 72.192C121.827 72.192 120.963 71.728 120.483 70.848V74.4H119.139ZM120.339 67.76C120.339 69.344 121.059 70.912 122.787 70.912C124.531 70.912 125.235 69.376 125.235 67.76C125.235 66.144 124.531 64.608 122.787 64.608C121.059 64.608 120.339 66.176 120.339 67.76ZM135.566 63.52V72H134.222V68.72H132.206L130.27 72H128.702L130.766 68.48C129.518 68.032 128.83 67.168 128.83 66.08C128.83 64.432 130.046 63.52 132.222 63.52H135.566ZM130.27 66.112C130.27 67.024 130.974 67.536 132.222 67.536H134.222V64.688H132.222C130.974 64.688 130.27 65.2 130.27 66.112ZM138.124 63.52H139.98L142.604 70.592L145.212 63.52H147.052V72H145.708V66.016L143.436 72H141.756L139.468 66.016V72H138.124V63.52ZM152.734 72.192C150.382 72.192 148.846 70.464 148.846 67.76C148.846 65.056 150.382 63.328 152.734 63.328C155.07 63.328 156.606 65.056 156.606 67.76C156.606 70.464 155.07 72.192 152.734 72.192ZM150.254 67.76C150.254 69.728 151.166 70.912 152.734 70.912C154.286 70.912 155.198 69.728 155.198 67.76C155.198 65.792 154.286 64.608 152.734 64.608C151.166 64.608 150.254 65.792 150.254 67.76ZM168.111 66.368C167.935 65.264 167.007 64.608 165.999 64.608C164.431 64.608 163.519 65.792 163.519 67.76C163.519 69.728 164.431 70.912 165.999 70.912C167.055 70.912 167.983 70.208 168.175 68.992L169.599 69.088C169.327 71.008 167.791 72.192 165.999 72.192C163.631 72.192 162.111 70.448 162.111 67.76C162.111 65.072 163.631 63.328 165.999 63.328C167.727 63.328 169.295 64.448 169.519 66.272L168.111 66.368ZM170.94 67.76C170.94 65.072 172.46 63.328 174.828 63.328C176.7 63.328 178.364 64.56 178.492 67.568L178.508 68.176H172.364C172.492 69.904 173.372 70.912 174.828 70.912C175.724 70.912 176.556 70.384 176.94 69.488L178.38 69.6C177.884 71.2 176.444 72.192 174.828 72.192C172.46 72.192 170.94 70.448 170.94 67.76ZM172.396 66.992H177.036C176.812 65.216 175.852 64.608 174.828 64.608C173.484 64.608 172.62 65.488 172.396 66.992ZM187.076 63.52V72H185.732V65.696L182.132 72H180.468V63.52H181.812V69.952L185.492 63.52H187.076ZM181.508 60.192H182.548C182.548 60.784 183.076 61.248 183.78 61.248C184.468 61.248 184.996 60.784 184.996 60.192H186.036C186.036 61.344 185.044 62.24 183.78 62.24C182.5 62.24 181.508 61.344 181.508 60.192ZM196.695 72H195.351V67.888C194.951 68.832 193.991 69.472 192.855 69.472C190.887 69.472 189.639 68.048 189.639 65.792V63.52H190.983V65.792C190.983 67.264 191.719 68.192 192.855 68.192C194.391 68.192 195.351 67.264 195.351 65.776V63.52H196.695V72ZM198.865 66.016C199.201 64.368 200.529 63.328 202.337 63.328C204.513 63.328 205.745 64.608 205.745 66.88V70.288C205.745 70.64 205.905 70.816 206.257 70.816H206.609V72H206.033C205.169 72 204.417 71.728 204.417 70.688C204.049 71.472 203.121 72.192 201.777 72.192C200.081 72.192 198.721 71.296 198.721 69.776C198.721 68.032 200.033 67.584 201.921 67.232L204.401 66.736C204.385 65.312 203.697 64.608 202.337 64.608C201.265 64.608 200.545 65.152 200.289 66.128L198.865 66.016ZM200.129 69.776C200.129 70.448 200.705 71.008 201.953 71.008C203.329 70.992 204.433 70.032 204.433 68.048V67.936L202.433 68.288C201.169 68.512 200.129 68.592 200.129 69.776ZM213.768 66.368C213.592 65.264 212.664 64.608 211.656 64.608C210.088 64.608 209.176 65.792 209.176 67.76C209.176 69.728 210.088 70.912 211.656 70.912C212.712 70.912 213.64 70.208 213.832 68.992L215.256 69.088C214.984 71.008 213.448 72.192 211.656 72.192C209.288 72.192 207.768 70.448 207.768 67.76C207.768 65.072 209.288 63.328 211.656 63.328C213.384 63.328 214.952 64.448 215.176 66.272L213.768 66.368ZM218.324 72L217.412 74.464H216.628L217.252 72H216.596V70.256H218.308V72H218.324ZM223.974 66.016C224.31 64.368 225.638 63.328 227.446 63.328C229.622 63.328 230.854 64.608 230.854 66.88V70.288C230.854 70.64 231.014 70.816 231.366 70.816H231.718V72H231.142C230.278 72 229.526 71.728 229.526 70.688C229.158 71.472 228.23 72.192 226.886 72.192C225.19 72.192 223.83 71.296 223.83 69.776C223.83 68.032 225.142 67.584 227.03 67.232L229.51 66.736C229.494 65.312 228.806 64.608 227.446 64.608C226.374 64.608 225.654 65.152 225.398 66.128L223.974 66.016ZM225.238 69.776C225.238 70.448 225.814 71.008 227.062 71.008C228.438 70.992 229.542 70.032 229.542 68.048V67.936L227.542 68.288C226.278 68.512 225.238 68.592 225.238 69.776ZM237.561 63.52H238.905V67.184H242.905V63.52H244.249V72H242.905V68.368H238.905V72H237.561V63.52ZM246.427 66.016C246.763 64.368 248.091 63.328 249.899 63.328C252.075 63.328 253.307 64.608 253.307 66.88V70.288C253.307 70.64 253.467 70.816 253.819 70.816H254.171V72H253.595C252.731 72 251.979 71.728 251.979 70.688C251.611 71.472 250.683 72.192 249.339 72.192C247.643 72.192 246.283 71.296 246.283 69.776C246.283 68.032 247.595 67.584 249.483 67.232L251.963 66.736C251.947 65.312 251.259 64.608 249.899 64.608C248.827 64.608 248.107 65.152 247.851 66.128L246.427 66.016ZM247.691 69.776C247.691 70.448 248.267 71.008 249.515 71.008C250.891 70.992 251.995 70.032 251.995 68.048V67.936L249.995 68.288C248.731 68.512 247.691 68.592 247.691 69.776ZM255.889 72V63.52H257.233V70.816H260.289V63.52H261.649V70.816H264.689V63.52H266.033V72H255.889ZM33.984 83.52V92H32.64V84.704H28.624V92H27.28V83.52H33.984ZM36.2331 94.4V83.52H37.4491L37.4971 84.784C37.9611 83.84 38.8731 83.328 40.1051 83.328C42.6331 83.328 43.7691 85.424 43.7691 87.76C43.7691 90.096 42.6331 92.192 40.1051 92.192C38.9211 92.192 38.0571 91.728 37.5771 90.848V94.4H36.2331ZM37.4331 87.76C37.4331 89.344 38.1531 90.912 39.8811 90.912C41.6251 90.912 42.3291 89.376 42.3291 87.76C42.3291 86.144 41.6251 84.608 39.8811 84.608C38.1531 84.608 37.4331 86.176 37.4331 87.76ZM45.2676 87.76C45.2676 85.072 46.7876 83.328 49.1556 83.328C51.0276 83.328 52.6916 84.56 52.8196 87.568L52.8356 88.176H46.6916C46.8196 89.904 47.6996 90.912 49.1556 90.912C50.0516 90.912 50.8836 90.384 51.2676 89.488L52.7076 89.6C52.2116 91.2 50.7716 92.192 49.1556 92.192C46.7876 92.192 45.2676 90.448 45.2676 87.76ZM46.7236 86.992H51.3636C51.1396 85.216 50.1796 84.608 49.1556 84.608C47.8116 84.608 46.9476 85.488 46.7236 86.992ZM62.6018 83.52V90.816H63.9778V94.4H62.6337V92H55.5778V94.4H54.2338V90.816H54.9858C55.6578 90.816 56.0258 90.336 56.1698 89.28L56.9378 83.52H62.6018ZM56.9698 90.816H61.2578V84.704H58.1538L57.4818 89.408C57.4018 90 57.2258 90.464 56.9698 90.816ZM71.377 86.368C71.201 85.264 70.273 84.608 69.265 84.608C67.697 84.608 66.785 85.792 66.785 87.76C66.785 89.728 67.697 90.912 69.265 90.912C70.321 90.912 71.249 90.208 71.441 88.992L72.865 89.088C72.593 91.008 71.057 92.192 69.265 92.192C66.897 92.192 65.377 90.448 65.377 87.76C65.377 85.072 66.897 83.328 69.265 83.328C70.993 83.328 72.561 84.448 72.785 86.272L71.377 86.368ZM81.1927 83.52V84.704H78.1368V92H76.7768V84.704H73.7208V83.52H81.1927ZM82.521 86.016C82.857 84.368 84.185 83.328 85.993 83.328C88.169 83.328 89.401 84.608 89.401 86.88V90.288C89.401 90.64 89.561 90.816 89.913 90.816H90.265V92H89.689C88.825 92 88.073 91.728 88.073 90.688C87.705 91.472 86.777 92.192 85.433 92.192C83.737 92.192 82.377 91.296 82.377 89.776C82.377 88.032 83.689 87.584 85.577 87.232L88.057 86.736C88.041 85.312 87.353 84.608 85.993 84.608C84.921 84.608 84.201 85.152 83.945 86.128L82.521 86.016ZM83.785 89.776C83.785 90.448 84.361 91.008 85.609 91.008C86.985 90.992 88.089 90.032 88.089 88.048V87.936L86.089 88.288C84.825 88.512 83.785 88.592 83.785 89.776ZM91.9831 92V83.52H95.5031C97.4551 83.52 98.7031 84.432 98.7031 85.872C98.7031 86.816 98.0311 87.456 96.8951 87.616C98.2391 87.76 99.0551 88.512 99.0551 89.6C99.0551 91.072 97.8551 92 95.9671 92H91.9831ZM93.3271 90.816H95.9671C96.9751 90.816 97.6151 90.336 97.6151 89.6C97.6151 88.784 96.9751 88.288 95.9671 88.288H93.3271V90.816ZM93.3271 87.104H95.5031C96.5751 87.104 97.2631 86.624 97.2631 85.872C97.2631 85.152 96.5751 84.704 95.5031 84.704H93.3271V87.104ZM107.982 83.52V92H106.638V85.696L103.038 92H101.374V83.52H102.718V89.952L106.398 83.52H107.982ZM117.193 83.52V84.704H114.137V92H112.777V84.704H109.721V83.52H117.193ZM118.205 87.76C118.205 85.072 119.725 83.328 122.093 83.328C123.965 83.328 125.629 84.56 125.757 87.568L125.773 88.176H119.629C119.757 89.904 120.637 90.912 122.093 90.912C122.989 90.912 123.821 90.384 124.205 89.488L125.645 89.6C125.149 91.2 123.709 92.192 122.093 92.192C119.725 92.192 118.205 90.448 118.205 87.76ZM119.661 86.992H124.301C124.077 85.216 123.117 84.608 122.093 84.608C120.749 84.608 119.885 85.488 119.661 86.992ZM136.051 83.52V92H134.707V84.704H131.075L130.547 89.648C130.387 91.216 129.715 92 128.467 92H127.491V90.656H128.275C128.803 90.656 129.123 90.256 129.203 89.504L129.843 83.52H136.051ZM138.608 92V83.52H139.952V86.64H142.192C144.576 86.64 145.904 87.6 145.904 89.328C145.904 91.04 144.576 92 142.192 92H138.608ZM139.952 90.8H142.192C143.728 90.8 144.496 90.32 144.496 89.328C144.496 88.32 143.728 87.824 142.192 87.824H139.952V90.8ZM158.64 83.52V92H157.296V84.704H153.28V92H151.936V83.52H158.64ZM160.889 94.4V83.52H162.105L162.153 84.784C162.617 83.84 163.529 83.328 164.761 83.328C167.289 83.328 168.425 85.424 168.425 87.76C168.425 90.096 167.289 92.192 164.761 92.192C163.577 92.192 162.713 91.728 162.233 90.848V94.4H160.889ZM162.089 87.76C162.089 89.344 162.809 90.912 164.537 90.912C166.281 90.912 166.985 89.376 166.985 87.76C166.985 86.144 166.281 84.608 164.537 84.608C162.809 84.608 162.089 86.176 162.089 87.76ZM176.982 83.52V92H175.638V85.696L172.038 92H170.374V83.52H171.718V89.952L175.398 83.52H176.982ZM179.546 92V83.52H183.066C185.018 83.52 186.266 84.432 186.266 85.872C186.266 86.816 185.594 87.456 184.458 87.616C185.802 87.76 186.618 88.512 186.618 89.6C186.618 91.072 185.418 92 183.53 92H179.546ZM180.89 90.816H183.53C184.538 90.816 185.178 90.336 185.178 89.6C185.178 88.784 184.538 88.288 183.53 88.288H180.89V90.816ZM180.89 87.104H183.066C184.138 87.104 184.826 86.624 184.826 85.872C184.826 85.152 184.138 84.704 183.066 84.704H180.89V87.104ZM188.486 87.76C188.486 85.072 190.006 83.328 192.374 83.328C194.246 83.328 195.91 84.56 196.038 87.568L196.054 88.176H189.91C190.038 89.904 190.918 90.912 192.374 90.912C193.27 90.912 194.102 90.384 194.486 89.488L195.926 89.6C195.43 91.2 193.99 92.192 192.374 92.192C190.006 92.192 188.486 90.448 188.486 87.76ZM189.942 86.992H194.582C194.358 85.216 193.398 84.608 192.374 84.608C191.03 84.608 190.166 85.488 189.942 86.992ZM201.261 86.896C202.237 86.912 202.877 86.448 202.877 85.712C202.877 85.04 202.189 84.608 201.101 84.608C200.109 84.608 199.453 85.008 199.373 85.616L197.917 85.536C198.077 84.176 199.309 83.328 201.101 83.328C203.053 83.328 204.285 84.24 204.285 85.712C204.285 86.512 203.645 87.152 202.589 87.44C203.821 87.792 204.573 88.64 204.573 89.696C204.573 91.232 203.229 92.192 201.101 92.192C199.037 92.192 197.693 91.2 197.613 89.632L199.021 89.568C199.085 90.384 199.885 90.912 201.101 90.912C202.365 90.912 203.165 90.416 203.165 89.616C203.165 88.688 202.413 88.128 201.261 88.144L200.381 88.16V86.88L201.261 86.896ZM206.127 87.76C206.127 85.072 207.647 83.328 210.015 83.328C211.887 83.328 213.551 84.56 213.679 87.568L213.695 88.176H207.551C207.679 89.904 208.559 90.912 210.015 90.912C210.911 90.912 211.743 90.384 212.127 89.488L213.567 89.6C213.071 91.2 211.631 92.192 210.015 92.192C207.647 92.192 206.127 90.448 206.127 87.76ZM207.583 86.992H212.223C211.999 85.216 211.039 84.608 210.015 84.608C208.671 84.608 207.807 85.488 207.583 86.992ZM222.193 83.52V84.704H219.137V92H217.777V84.704H214.721V83.52H222.193ZM228.218 83.52H229.594V87.648L233.578 83.52H235.466L231.29 87.76L235.658 92H233.738L229.594 87.872V92H228.218V83.52ZM237.146 86.016C237.482 84.368 238.81 83.328 240.618 83.328C242.794 83.328 244.026 84.608 244.026 86.88V90.288C244.026 90.64 244.186 90.816 244.538 90.816H244.89V92H244.314C243.45 92 242.698 91.728 242.698 90.688C242.33 91.472 241.402 92.192 240.058 92.192C238.362 92.192 237.002 91.296 237.002 89.776C237.002 88.032 238.314 87.584 240.202 87.232L242.682 86.736C242.666 85.312 241.978 84.608 240.618 84.608C239.546 84.608 238.826 85.152 238.57 86.128L237.146 86.016ZM238.41 89.776C238.41 90.448 238.986 91.008 240.234 91.008C241.61 90.992 242.714 90.032 242.714 88.048V87.936L240.714 88.288C239.45 88.512 238.41 88.592 238.41 89.776ZM246.608 94.4V83.52H247.824L247.872 84.784C248.336 83.84 249.248 83.328 250.48 83.328C253.008 83.328 254.144 85.424 254.144 87.76C254.144 90.096 253.008 92.192 250.48 92.192C249.296 92.192 248.432 91.728 247.952 90.848V94.4H246.608ZM247.808 87.76C247.808 89.344 248.528 90.912 250.256 90.912C252 90.912 252.704 89.376 252.704 87.76C252.704 86.144 252 84.608 250.256 84.608C248.528 84.608 247.808 86.176 247.808 87.76ZM262.63 83.52V84.704H259.574V92H258.214V84.704H255.158V83.52H262.63ZM263.727 83.52H265.167L267.711 90.56L270.191 83.52H271.615L268.175 93.072C267.855 93.984 267.247 94.4 266.287 94.4H265.183V93.216H266.159C266.575 93.216 266.815 93.04 266.975 92.624L267.279 91.84H266.831L263.727 83.52ZM277.249 92V83.52H280.769C282.721 83.52 283.969 84.432 283.969 85.872C283.969 86.816 283.297 87.456 282.161 87.616C283.505 87.76 284.321 88.512 284.321 89.6C284.321 91.072 283.121 92 281.233 92H277.249ZM278.593 90.816H281.233C282.241 90.816 282.881 90.336 282.881 89.6C282.881 88.784 282.241 88.288 281.233 88.288H278.593V90.816ZM278.593 87.104H280.769C281.841 87.104 282.529 86.624 282.529 85.872C282.529 85.152 281.841 84.704 280.769 84.704H278.593V87.104ZM26.352 103.52H27.792L30.336 110.56L32.816 103.52H34.24L30.8 113.072C30.48 113.984 29.872 114.4 28.912 114.4H27.808V113.216H28.784C29.2 113.216 29.44 113.04 29.6 112.624L29.904 111.84H29.456L26.352 103.52ZM43.1955 103.52V110.816H44.5715V114.4H43.2275V112H36.1715V114.4H34.8275V110.816H35.5795C36.2515 110.816 36.6195 110.336 36.7635 109.28L37.5315 103.52H43.1955ZM37.5635 110.816H41.8515V104.704H38.7475L38.0755 109.408C37.9955 110 37.8195 110.464 37.5635 110.816ZM49.8588 112.192C47.5068 112.192 45.9708 110.464 45.9708 107.76C45.9708 105.056 47.5068 103.328 49.8588 103.328C52.1948 103.328 53.7308 105.056 53.7308 107.76C53.7308 110.464 52.1948 112.192 49.8588 112.192ZM47.3788 107.76C47.3788 109.728 48.2908 110.912 49.8588 110.912C51.4108 110.912 52.3228 109.728 52.3228 107.76C52.3228 105.792 51.4108 104.608 49.8588 104.608C48.2908 104.608 47.3788 105.792 47.3788 107.76ZM56.7404 108.224C56.7084 109.84 57.7804 110.976 59.3324 110.976C60.8364 110.976 61.9084 109.84 61.9084 108.224C61.9084 106.656 60.8844 105.536 59.4444 105.536C57.8764 105.536 56.7564 106.656 56.7404 108.224ZM55.2684 106.992C55.2684 103.904 56.0844 102.528 58.1964 101.616C59.2844 101.136 59.6044 100.752 59.6044 99.84L60.9804 99.824C60.9804 101.072 60.5484 101.968 59.2204 102.592C57.8604 103.248 56.7564 103.6 56.6604 105.904C57.2684 104.848 58.2924 104.256 59.5404 104.256C61.7964 104.256 63.3164 105.888 63.3164 108.224C63.3164 110.704 61.6524 112.256 59.3004 112.256C58.3084 112.256 57.3004 111.904 56.4844 111.024C55.6684 110.208 55.2684 108.752 55.2684 106.992ZM65.2956 103.52H66.6396V107.184H70.6396V103.52H71.9836V112H70.6396V108.368H66.6396V112H65.2956V103.52ZM77.6713 112.192C75.3193 112.192 73.7833 110.464 73.7833 107.76C73.7833 105.056 75.3193 103.328 77.6713 103.328C80.0073 103.328 81.5433 105.056 81.5433 107.76C81.5433 110.464 80.0073 112.192 77.6713 112.192ZM75.1913 107.76C75.1913 109.728 76.1033 110.912 77.6713 110.912C79.2233 110.912 80.1353 109.728 80.1353 107.76C80.1353 105.792 79.2233 104.608 77.6713 104.608C76.1033 104.608 75.1913 105.792 75.1913 107.76ZM83.0489 107.76C83.0489 105.072 84.5689 103.328 86.9369 103.328C88.8089 103.328 90.4729 104.56 90.6009 107.568L90.6169 108.176H84.4729C84.6009 109.904 85.4809 110.912 86.9369 110.912C87.8329 110.912 88.6649 110.384 89.0489 109.488L90.4889 109.6C89.9929 111.2 88.5529 112.192 86.9369 112.192C84.5689 112.192 83.0489 110.448 83.0489 107.76ZM84.5049 106.992H89.1449C88.9209 105.216 87.9609 104.608 86.9369 104.608C85.5929 104.608 84.7289 105.488 84.5049 106.992ZM96.655 103.52H98.511L101.135 110.592L103.743 103.52H105.583V112H104.239V106.016L101.967 112H100.287L97.999 106.016V112H96.655V103.52ZM107.377 107.76C107.377 105.072 108.897 103.328 111.265 103.328C113.137 103.328 114.801 104.56 114.929 107.568L114.945 108.176H108.801C108.929 109.904 109.809 110.912 111.265 110.912C112.161 110.912 112.993 110.384 113.377 109.488L114.817 109.6C114.321 111.2 112.881 112.192 111.265 112.192C108.897 112.192 107.377 110.448 107.377 107.76ZM108.833 106.992H113.473C113.249 105.216 112.289 104.608 111.265 104.608C109.921 104.608 109.057 105.488 108.833 106.992ZM122.455 106.368C122.279 105.264 121.351 104.608 120.343 104.608C118.775 104.608 117.863 105.792 117.863 107.76C117.863 109.728 118.775 110.912 120.343 110.912C121.399 110.912 122.327 110.208 122.519 108.992L123.943 109.088C123.671 111.008 122.135 112.192 120.343 112.192C117.975 112.192 116.455 110.448 116.455 107.76C116.455 105.072 117.975 103.328 120.343 103.328C122.071 103.328 123.639 104.448 123.863 106.272L122.455 106.368ZM132.271 103.52V104.704H129.215V112H127.855V104.704H124.799V103.52H132.271ZM137.171 112.192C134.819 112.192 133.283 110.464 133.283 107.76C133.283 105.056 134.819 103.328 137.171 103.328C139.507 103.328 141.043 105.056 141.043 107.76C141.043 110.464 139.507 112.192 137.171 112.192ZM134.691 107.76C134.691 109.728 135.603 110.912 137.171 110.912C138.723 110.912 139.635 109.728 139.635 107.76C139.635 105.792 138.723 104.608 137.171 104.608C135.603 104.608 134.691 105.792 134.691 107.76ZM153.685 103.52V112H152.341V105.696L148.741 112H147.077V103.52H148.421V109.952L152.101 103.52H153.685ZM160.249 112V103.52H163.769C165.721 103.52 166.969 104.432 166.969 105.872C166.969 106.816 166.297 107.456 165.161 107.616C166.505 107.76 167.321 108.512 167.321 109.6C167.321 111.072 166.121 112 164.233 112H160.249ZM161.593 110.816H164.233C165.241 110.816 165.881 110.336 165.881 109.6C165.881 108.784 165.241 108.288 164.233 108.288H161.593V110.816ZM161.593 107.104H163.769C164.841 107.104 165.529 106.624 165.529 105.872C165.529 105.152 164.841 104.704 163.769 104.704H161.593V107.104ZM169.639 114.4V103.52H170.855L170.903 104.784C171.367 103.84 172.279 103.328 173.511 103.328C176.039 103.328 177.175 105.424 177.175 107.76C177.175 110.096 176.039 112.192 173.511 112.192C172.327 112.192 171.463 111.728 170.983 110.848V114.4H169.639ZM170.839 107.76C170.839 109.344 171.559 110.912 173.287 110.912C175.031 110.912 175.735 109.376 175.735 107.76C175.735 106.144 175.031 104.608 173.287 104.608C171.559 104.608 170.839 106.176 170.839 107.76ZM178.674 107.76C178.674 105.072 180.194 103.328 182.562 103.328C184.434 103.328 186.098 104.56 186.226 107.568L186.242 108.176H180.098C180.226 109.904 181.106 110.912 182.562 110.912C183.458 110.912 184.29 110.384 184.674 109.488L186.114 109.6C185.618 111.2 184.178 112.192 182.562 112.192C180.194 112.192 178.674 110.448 178.674 107.76ZM180.13 106.992H184.77C184.546 105.216 183.586 104.608 182.562 104.608C181.218 104.608 180.354 105.488 180.13 106.992ZM188.202 103.52H190.058L192.682 110.592L195.29 103.52H197.13V112H195.786V106.016L193.514 112H191.834L189.546 106.016V112H188.202V103.52ZM206.55 103.52V112H205.206V108.72H203.19L201.254 112H199.686L201.75 108.48C200.502 108.032 199.814 107.168 199.814 106.08C199.814 104.432 201.03 103.52 203.206 103.52H206.55ZM201.254 106.112C201.254 107.024 201.958 107.536 203.206 107.536H205.206V104.688H203.206C201.958 104.688 201.254 105.2 201.254 106.112Z" fill="white"/>
<g filter="url(#filter0_dddd_80_229)">
<g clip-path="url(#clip1_80_229)">
<rect x="101.282" y="235.856" width="237" height="142.5" rx="15" transform="rotate(-18 101.282 235.856)" fill="url(#paint0_linear_80_229)"/>
<rect x="316.082" y="278.044" width="34" height="24" rx="3" transform="rotate(-18 316.082 278.044)" fill="white" fill-opacity="0.1"/>
<path fill-rule="evenodd" clip-rule="evenodd" d="M337.621 288.741C336.803 290.056 335.529 291.104 333.932 291.622C330.371 292.78 326.557 290.865 325.413 287.346C324.27 283.827 326.23 280.036 329.792 278.878C331.388 278.36 333.035 278.458 334.469 279.041C335.287 277.726 336.561 276.679 338.158 276.16C341.719 275.003 345.533 276.918 346.677 280.437C347.82 283.956 345.86 287.747 342.298 288.904C340.702 289.423 339.055 289.324 337.621 288.741Z" fill="#ED0006"/>
<path fill-rule="evenodd" clip-rule="evenodd" d="M337.621 288.741C338.628 287.122 338.942 285.097 338.311 283.155C337.68 281.213 336.236 279.76 334.469 279.041C335.287 277.726 336.561 276.679 338.158 276.16C341.719 275.003 345.533 276.918 346.677 280.437C347.82 283.956 345.86 287.747 342.298 288.904C340.702 289.423 339.055 289.324 337.621 288.741Z" fill="#F9A000"/>
<path fill-rule="evenodd" clip-rule="evenodd" d="M337.621 288.741C335.855 288.023 334.41 286.569 333.779 284.627C333.148 282.685 333.463 280.661 334.469 279.041C336.236 279.76 337.68 281.213 338.311 283.155C338.942 285.097 338.628 287.122 337.621 288.741Z" fill="#FF5E00"/>
<path d="M259.723 294.921C259.303 295.057 258.903 295.087 258.521 295.009C258.138 294.928 257.802 294.757 257.512 294.494C257.224 294.231 257.013 293.89 256.876 293.471L256.187 291.348C256.05 290.928 256.021 290.528 256.099 290.146C256.18 289.763 256.352 289.428 256.615 289.141C256.877 288.851 257.218 288.638 257.637 288.501C258.056 288.365 258.457 288.337 258.84 288.418C259.222 288.496 259.556 288.666 259.844 288.929C260.134 289.192 260.347 289.532 260.483 289.952L261.173 292.075C261.309 292.494 261.337 292.895 261.257 293.278C261.179 293.659 261.009 293.995 260.747 294.286C260.483 294.573 260.142 294.785 259.723 294.921ZM259.445 294.065C259.673 293.991 259.862 293.869 260.012 293.701C260.165 293.528 260.266 293.331 260.317 293.11C260.367 292.885 260.355 292.657 260.28 292.426L259.551 290.184C259.477 289.955 259.354 289.767 259.182 289.617C259.01 289.465 258.812 289.366 258.588 289.318C258.367 289.267 258.142 289.279 257.914 289.353C257.685 289.427 257.495 289.551 257.343 289.723C257.193 289.892 257.093 290.088 257.043 290.313C256.992 290.534 257.003 290.759 257.077 290.987L257.806 293.23C257.881 293.461 258.005 293.653 258.177 293.805C258.349 293.954 258.545 294.054 258.767 294.105C258.991 294.153 259.216 294.139 259.445 294.065ZM265.613 293.007C265.213 293.137 264.823 293.16 264.442 293.075C264.061 292.988 263.722 292.809 263.426 292.54C263.133 292.269 262.918 291.922 262.781 291.5L262.143 289.536C261.997 289.088 261.962 288.664 262.037 288.264C262.115 287.863 262.289 287.515 262.559 287.219C262.831 286.922 263.184 286.704 263.618 286.563C263.943 286.457 264.269 286.419 264.594 286.449C264.919 286.479 265.225 286.582 265.512 286.756L265.056 287.581C264.89 287.468 264.704 287.396 264.499 287.365C264.295 287.33 264.093 287.345 263.893 287.41C263.637 287.494 263.431 287.628 263.277 287.814C263.122 287.997 263.021 288.205 262.973 288.438C262.929 288.67 262.943 288.899 263.017 289.124L263.384 290.254L263.144 290.114C263.246 289.825 263.406 289.571 263.625 289.352C263.844 289.133 264.103 288.974 264.403 288.877C264.785 288.753 265.156 288.732 265.514 288.814C265.873 288.893 266.189 289.057 266.459 289.307C266.732 289.555 266.931 289.871 267.055 290.253C267.18 290.638 267.197 291.019 267.105 291.396C267.015 291.769 266.839 292.101 266.576 292.391C266.316 292.678 265.995 292.883 265.613 293.007ZM265.333 292.147C265.556 292.075 265.741 291.955 265.888 291.787C266.035 291.619 266.134 291.426 266.183 291.209C266.232 290.991 266.22 290.771 266.148 290.548C266.076 290.325 265.956 290.141 265.788 289.993C265.623 289.845 265.432 289.746 265.214 289.697C264.996 289.648 264.776 289.66 264.553 289.732C264.331 289.804 264.144 289.925 263.994 290.093C263.847 290.261 263.748 290.454 263.699 290.672C263.65 290.89 263.662 291.11 263.734 291.332C263.805 291.552 263.925 291.736 264.093 291.883C264.261 292.03 264.454 292.13 264.673 292.182C264.89 292.231 265.111 292.219 265.333 292.147ZM268.752 285.032L269.655 284.738L270.014 291.435L269.111 291.729L268.752 285.032ZM273.03 290.451L272.775 289.653L274.677 286.376C274.832 286.115 274.92 285.884 274.94 285.685C274.963 285.485 274.947 285.298 274.89 285.124C274.819 284.904 274.706 284.723 274.553 284.581C274.398 284.435 274.219 284.339 274.014 284.292C273.81 284.245 273.596 284.258 273.374 284.33C273.145 284.404 272.959 284.524 272.814 284.691C272.672 284.854 272.579 285.041 272.537 285.25C272.495 285.459 272.508 285.666 272.578 285.871L271.662 286.168C271.532 285.769 271.508 285.39 271.591 285.032C271.675 284.67 271.848 284.354 272.11 284.083C272.371 283.808 272.706 283.605 273.114 283.473C273.502 283.347 273.879 283.322 274.244 283.399C274.609 283.473 274.93 283.633 275.206 283.881C275.485 284.128 275.688 284.447 275.815 284.838C275.906 285.12 275.947 285.372 275.937 285.593C275.927 285.814 275.875 286.033 275.781 286.249C275.687 286.466 275.561 286.709 275.403 286.978L273.932 289.5L273.75 289.275L276.921 288.245L277.198 289.096L273.03 290.451ZM281.097 287.834L280.748 286.76L277.967 287.664L277.691 286.816L278.316 281.924L279.339 281.592L278.714 286.484L280.473 285.912L279.931 284.243L280.838 283.949L281.38 285.618L281.992 285.419L282.268 286.266L281.656 286.465L282.005 287.539L281.097 287.834Z" fill="white"/>
<path d="M124.71 256.633L122.014 248.333L125.126 247.322C125.764 247.114 126.335 247.051 126.839 247.133C127.346 247.213 127.775 247.417 128.127 247.745C128.48 248.069 128.743 248.496 128.915 249.025C129.088 249.558 129.124 250.057 129.025 250.522C128.927 250.984 128.694 251.393 128.325 251.749C127.956 252.102 127.453 252.382 126.815 252.589L124.598 253.309L124.193 252.061L126.207 251.406C126.58 251.285 126.868 251.135 127.073 250.955C127.276 250.772 127.402 250.562 127.451 250.326C127.501 250.085 127.479 249.818 127.383 249.523C127.287 249.229 127.147 248.996 126.964 248.826C126.779 248.653 126.55 248.551 126.277 248.52C126.004 248.487 125.679 248.531 125.303 248.653L123.925 249.101L126.214 256.145L124.71 256.633ZM127.776 251.479L131.053 254.572L129.375 255.117L126.135 252.012L127.776 251.479ZM134.775 253.498C134.15 253.7 133.569 253.746 133.031 253.634C132.495 253.518 132.027 253.261 131.629 252.862C131.229 252.46 130.924 251.933 130.712 251.282C130.504 250.642 130.443 250.04 130.529 249.478C130.617 248.912 130.837 248.422 131.19 248.008C131.542 247.593 132.015 247.288 132.609 247.095C132.993 246.97 133.375 246.915 133.756 246.928C134.138 246.938 134.502 247.029 134.848 247.201C135.196 247.371 135.51 247.631 135.791 247.979C136.07 248.324 136.299 248.77 136.476 249.315L136.622 249.765L131.52 251.423L131.198 250.434L134.895 249.233C134.801 248.953 134.659 248.723 134.469 248.543C134.278 248.36 134.055 248.24 133.8 248.182C133.548 248.123 133.282 248.14 133.001 248.231C132.701 248.329 132.461 248.487 132.281 248.707C132.101 248.924 131.986 249.17 131.935 249.447C131.886 249.719 131.906 249.995 131.993 250.275L132.274 251.138C132.391 251.5 132.559 251.789 132.775 252.005C132.991 252.219 133.24 252.356 133.523 252.417C133.804 252.475 134.105 252.452 134.423 252.348C134.637 252.279 134.82 252.186 134.974 252.071C135.127 251.952 135.247 251.813 135.336 251.653C135.424 251.493 135.472 251.314 135.48 251.118L136.9 250.827C136.931 251.217 136.869 251.586 136.713 251.936C136.56 252.281 136.32 252.589 135.992 252.86C135.664 253.128 135.258 253.34 134.775 253.498ZM137.515 243.296L140.211 251.597L138.744 252.073L136.047 243.773L137.515 243.296ZM141.72 251.106L139.697 244.881L141.165 244.405L143.187 250.63L141.72 251.106ZM140.148 243.758C139.916 243.834 139.691 243.822 139.473 243.722C139.255 243.62 139.11 243.459 139.039 243.24C138.967 243.019 138.99 242.804 139.107 242.595C139.224 242.384 139.398 242.241 139.63 242.165C139.865 242.089 140.091 242.102 140.307 242.206C140.524 242.305 140.669 242.466 140.741 242.687C140.812 242.906 140.789 243.121 140.673 243.332C140.558 243.54 140.383 243.682 140.148 243.758ZM146.528 249.683C146.134 249.811 145.755 249.856 145.394 249.819C145.034 249.777 144.717 249.647 144.442 249.429C144.171 249.209 143.969 248.896 143.836 248.488C143.722 248.136 143.693 247.825 143.748 247.553C143.803 247.281 143.92 247.04 144.1 246.829C144.279 246.619 144.498 246.433 144.756 246.271C145.016 246.106 145.292 245.958 145.584 245.827C145.937 245.671 146.222 245.541 146.439 245.437C146.655 245.331 146.804 245.229 146.886 245.131C146.969 245.029 146.988 244.908 146.943 244.767L146.935 244.743C146.836 244.438 146.668 244.231 146.433 244.122C146.197 244.013 145.909 244.014 145.569 244.125C145.21 244.242 144.95 244.413 144.79 244.638C144.633 244.862 144.553 245.093 144.549 245.33L143.116 245.581C143.101 245.167 143.177 244.793 143.343 244.459C143.508 244.121 143.75 243.83 144.068 243.587C144.385 243.34 144.761 243.146 145.196 243.005C145.496 242.908 145.806 242.846 146.126 242.819C146.446 242.793 146.755 242.821 147.054 242.903C147.351 242.983 147.619 243.136 147.858 243.364C148.098 243.59 148.286 243.91 148.42 244.323L149.774 248.489L148.364 248.948L148.086 248.093L148.037 248.108C148.004 248.31 147.931 248.513 147.818 248.717C147.707 248.918 147.545 249.103 147.332 249.274C147.12 249.441 146.852 249.578 146.528 249.683ZM146.559 248.481C146.853 248.386 147.09 248.245 147.268 248.058C147.446 247.869 147.561 247.658 147.614 247.426C147.669 247.193 147.66 246.961 147.585 246.732L147.347 245.998C147.313 246.051 147.246 246.112 147.146 246.18C147.049 246.248 146.936 246.315 146.809 246.384C146.682 246.452 146.555 246.517 146.429 246.579C146.303 246.641 146.193 246.694 146.1 246.739C145.891 246.84 145.711 246.952 145.56 247.076C145.409 247.2 145.303 247.339 145.243 247.493C145.181 247.644 145.182 247.815 145.243 248.004C145.331 248.274 145.496 248.446 145.738 248.519C145.98 248.593 146.253 248.58 146.559 248.481ZM151.531 243.886L152.716 247.533L151.249 248.01L149.227 241.785L150.629 241.329L150.973 242.387L151.045 242.364C151.075 241.968 151.214 241.617 151.46 241.31C151.71 241.002 152.067 240.773 152.532 240.622C152.961 240.482 153.365 240.452 153.744 240.532C154.125 240.612 154.46 240.797 154.749 241.089C155.04 241.379 155.266 241.773 155.425 242.271L156.712 246.235L155.245 246.712L154.031 242.975C153.896 242.559 153.682 242.269 153.39 242.104C153.1 241.938 152.766 241.917 152.387 242.04C152.131 242.123 151.921 242.254 151.758 242.432C151.597 242.607 151.493 242.818 151.448 243.066C151.406 243.313 151.434 243.586 151.531 243.886ZM160.959 244.99C160.337 245.192 159.759 245.229 159.225 245.101C158.693 244.972 158.229 244.706 157.832 244.303C157.437 243.897 157.137 243.379 156.933 242.749C156.727 242.117 156.668 241.519 156.754 240.957C156.839 240.391 157.059 239.902 157.414 239.488C157.772 239.07 158.254 238.762 158.862 238.565C159.367 238.401 159.845 238.348 160.294 238.408C160.746 238.465 161.143 238.624 161.485 238.886C161.826 239.146 162.086 239.495 162.264 239.933L160.862 240.388C160.707 240.107 160.491 239.901 160.213 239.77C159.936 239.636 159.621 239.627 159.267 239.742C158.967 239.839 158.73 240.006 158.556 240.241C158.38 240.475 158.278 240.762 158.249 241.103C158.222 241.443 158.276 241.823 158.412 242.242C158.55 242.666 158.731 243.01 158.954 243.275C159.177 243.537 159.427 243.715 159.705 243.807C159.985 243.895 160.277 243.889 160.582 243.79C160.799 243.72 160.979 243.617 161.122 243.48C161.268 243.34 161.374 243.173 161.439 242.979C161.504 242.784 161.522 242.568 161.492 242.33L162.895 241.874C163.003 242.326 163 242.758 162.886 243.172C162.772 243.582 162.552 243.946 162.228 244.264C161.903 244.578 161.48 244.82 160.959 244.99ZM167.586 242.836C166.962 243.039 166.381 243.085 165.843 242.973C165.306 242.857 164.839 242.6 164.44 242.201C164.041 241.799 163.735 241.272 163.524 240.621C163.316 239.981 163.255 239.379 163.341 238.817C163.428 238.25 163.649 237.761 164.001 237.347C164.353 236.931 164.826 236.627 165.421 236.434C165.804 236.309 166.186 236.254 166.567 236.267C166.95 236.277 167.314 236.368 167.659 236.54C168.008 236.71 168.322 236.97 168.602 237.318C168.882 237.663 169.11 238.108 169.287 238.654L169.434 239.104L164.331 240.762L164.01 239.773L167.706 238.572C167.612 238.292 167.47 238.062 167.28 237.882C167.089 237.699 166.866 237.578 166.612 237.521C166.36 237.462 166.093 237.479 165.812 237.57C165.512 237.667 165.272 237.826 165.093 238.046C164.913 238.263 164.797 238.509 164.746 238.786C164.698 239.058 164.717 239.334 164.805 239.613L165.085 240.477C165.203 240.839 165.37 241.128 165.587 241.344C165.803 241.558 166.052 241.695 166.334 241.756C166.616 241.813 166.916 241.791 167.235 241.687C167.448 241.618 167.632 241.525 167.786 241.409C167.938 241.291 168.059 241.152 168.147 240.992C168.236 240.832 168.284 240.653 168.291 240.457L169.711 240.165C169.742 240.556 169.68 240.925 169.525 241.274C169.371 241.62 169.131 241.928 168.804 242.199C168.476 242.467 168.07 242.679 167.586 242.836Z" fill="white"/>
<g clip-path="url(#clip2_80_229)">
<path d="M313.885 183.563C315.982 185.45 317.544 187.857 318.416 190.54C319.288 193.223 319.438 196.088 318.852 198.848M311.069 186.337C312.704 187.809 313.923 189.686 314.603 191.779C315.283 193.872 315.4 196.106 314.943 198.259M308.361 188.923C309.548 190.002 310.434 191.375 310.931 192.904C311.428 194.434 311.518 196.065 311.192 197.636M305.692 191.632C306.506 192.28 307.105 193.14 307.421 194.113C307.737 195.085 307.757 196.132 307.48 197.135" stroke="white" stroke-width="1.92857" stroke-linecap="round"/>
</g>
</g>
<rect x="101.755" y="236.097" width="236.25" height="141.75" rx="14.625" transform="rotate(-18 101.755 236.097)" stroke="url(#paint1_linear_80_229)" stroke-width="0.75"/>
</g>
</g>
<defs>
<filter id="filter0_dddd_80_229" x="14.2822" y="102.619" width="361.436" height="277.763" filterUnits="userSpaceOnUse" color-interpolation-filters="sRGB">
<feFlood flood-opacity="0" result="BackgroundImageFix"/>
<feColorMatrix in="SourceAlpha" type="matrix" values="0 0 0 0 0 0 0 0 0 0 0 0 0 0 0 0 0 0 127 0" result="hardAlpha"/>
<feOffset dx="-4" dy="-2"/>
<feGaussianBlur stdDeviation="4.5"/>
<feColorMatrix type="matrix" values="0 0 0 0 0.145098 0 0 0 0 0.203922 0 0 0 0 0.313726 0 0 0 0.1 0"/>
<feBlend mode="normal" in2="BackgroundImageFix" result="effect1_dropShadow_80_229"/>
<feColorMatrix in="SourceAlpha" type="matrix" values="0 0 0 0 0 0 0 0 0 0 0 0 0 0 0 0 0 0 127 0" result="hardAlpha"/>
<feOffset dx="-15" dy="-8"/>
<feGaussianBlur stdDeviation="8.5"/>
<feColorMatrix type="matrix" values="0 0 0 0 0.145098 0 0 0 0 0.203922 0 0 0 0 0.313726 0 0 0 0.09 0"/>
<feBlend mode="normal" in2="effect1_dropShadow_80_229" result="effect2_dropShadow_80_229"/>
<feColorMatrix in="SourceAlpha" type="matrix" values="0 0 0 0 0 0 0 0 0 0 0 0 0 0 0 0 0 0 127 0" result="hardAlpha"/>
<feOffset dx="-34" dy="-19"/>
<feGaussianBlur stdDeviation="11.5"/>
<feColorMatrix type="matrix" values="0 0 0 0 0.145098 0 0 0 0 0.203922 0 0 0 0 0.313726 0 0 0 0.05 0"/>
<feBlend mode="normal" in2="effect2_dropShadow_80_229" result="effect3_dropShadow_80_229"/>
<feColorMatrix in="SourceAlpha" type="matrix" values="0 0 0 0 0 0 0 0 0 0 0 0 0 0 0 0 0 0 127 0" result="hardAlpha"/>
<feOffset dx="-60" dy="-33"/>
<feGaussianBlur stdDeviation="13.5"/>
<feColorMatrix type="matrix" values="0 0 0 0 0.145098 0 0 0 0 0.203922 0 0 0 0 0.313726 0 0 0 0.01 0"/>
<feBlend mode="normal" in2="effect3_dropShadow_80_229" result="effect4_dropShadow_80_229"/>
<feBlend mode="normal" in="SourceGraphic" in2="effect4_dropShadow_80_229" result="shape"/>
</filter>
<linearGradient id="paint0_linear_80_229" x1="101.279" y1="378.355" x2="227.139" y2="169.029" gradientUnits="userSpaceOnUse">
<stop stop-color="#021744"/>
<stop offset="1" stop-color="#475467"/>
</linearGradient>
<linearGradient id="paint1_linear_80_229" x1="101.282" y1="241.873" x2="332.869" y2="386.995" gradientUnits="userSpaceOnUse">
<stop stop-color="white"/>
<stop offset="1" stop-color="white" stop-opacity="0.2"/>
</linearGradient>
<clipPath id="clip0_80_229">
<rect width="337" height="300" rx="24" fill="white"/>
</clipPath>
<clipPath id="clip1_80_229">
<rect x="101.282" y="235.856" width="237" height="142.5" rx="15" transform="rotate(-18 101.282 235.856)" fill="white"/>
</clipPath>
<clipPath id="clip2_80_229">
<rect width="15" height="18" fill="white" transform="translate(302.786 186.155) rotate(-18)"/>
</clipPath>
</defs>
</svg>
