<svg width="50" height="50" viewBox="0 0 50 50" fill="none" xmlns="http://www.w3.org/2000/svg">
<rect width="50" height="50" rx="4" fill="#2F887C"/>
<path d="M25 26V20M25 26L22 23M25 26L28 23M17 32.5V17.5C17 16.837 17.2634 16.2011 17.7322 15.7322C18.2011 15.2634 18.837 15 19.5 15H32C32.2652 15 32.5196 15.1054 32.7071 15.2929C32.8946 15.4804 33 15.7348 33 16V34C33 34.2652 32.8946 34.5196 32.7071 34.7071C32.5196 34.8946 32.2652 35 32 35H19.5C18.837 35 18.2011 34.7366 17.7322 34.2678C17.2634 33.7989 17 33.163 17 32.5ZM17 32.5C17 31.837 17.2634 31.2011 17.7322 30.7322C18.2011 30.2634 18.837 30 19.5 30H33" stroke="white" stroke-width="2" stroke-linecap="round" stroke-linejoin="round"/>
</svg>
