<svg width="460" height="300" viewBox="0 0 460 300" fill="none" xmlns="http://www.w3.org/2000/svg">
<rect width="460" height="300" rx="24" fill="#4B82D2"/>
<path d="M42.1 44H38.28L34.44 38.2H30.82V44H27.38V30.06H30.82V35.38H34.7L38.16 30.06H41.94L37.42 36.96L42.1 44ZM51.0575 33.46H54.4775L51.2575 44H51.2175L50.9975 44.7C50.5842 46.06 49.8975 47.0667 48.9375 47.72C47.9775 48.3867 46.6908 48.72 45.0775 48.72C44.2908 48.72 43.5842 48.6 42.9575 48.36V45.72C43.6108 45.9467 44.3175 46.06 45.0775 46.06C46.6242 46.06 47.5975 45.46 47.9975 44.26L48.0775 44H45.5175L42.2975 33.46H45.6975L48.0975 41.34H48.6775L51.0575 33.46ZM63.9681 33.12C65.8615 33.12 67.2548 33.5733 68.1481 34.48C69.0548 35.3867 69.5081 36.7933 69.5081 38.7C69.5081 40.6333 69.0548 42.06 68.1481 42.98C67.2548 43.8867 65.8615 44.34 63.9681 44.34C61.7148 44.34 60.1948 43.62 59.4081 42.18V48.4H56.0481V33.46H59.4081V35.24C60.1815 33.8267 61.7015 33.12 63.9681 33.12ZM62.9081 41.72C64.0681 41.72 64.8948 41.4867 65.3881 41.02C65.8948 40.5533 66.1481 39.7867 66.1481 38.72C66.1481 37.64 65.9015 36.88 65.4081 36.44C64.9281 35.9867 64.1081 35.76 62.9481 35.76C60.5215 35.76 59.3081 36.62 59.3081 38.34V39C59.3081 39.8533 59.6215 40.52 60.2481 41C60.8748 41.48 61.7615 41.72 62.9081 41.72ZM77.7569 44.34C75.4635 44.34 73.7769 43.8867 72.6969 42.98C71.6169 42.06 71.0769 40.6267 71.0769 38.68C71.0769 36.7733 71.6169 35.3733 72.6969 34.48C73.7769 33.5733 75.4635 33.12 77.7569 33.12C79.7169 33.12 81.2369 33.5067 82.3169 34.28C83.4102 35.04 84.0102 36.1533 84.1169 37.62H80.7769C80.6302 36.3933 79.6369 35.78 77.7969 35.78C76.5969 35.78 75.7369 36 75.2169 36.44C74.7102 36.88 74.4569 37.6333 74.4569 38.7C74.4569 39.78 74.7102 40.5467 75.2169 41C75.7235 41.4533 76.5835 41.68 77.7969 41.68C79.6769 41.68 80.6835 40.9933 80.8169 39.62H84.1769C84.0569 41.1533 83.4435 42.3267 82.3369 43.14C81.2435 43.94 79.7169 44.34 77.7569 44.34ZM86.1653 44V33.46H89.5253V36.56H92.0253C95.532 36.56 97.2853 37.7867 97.2853 40.24C97.2853 42.7467 95.532 44 92.0253 44H86.1653ZM102.365 44H99.0053V33.46H102.365V44ZM92.0253 39.1H89.5253V41.48H92.0253C93.3586 41.48 94.0253 41.0733 94.0253 40.26C94.0253 39.4867 93.3586 39.1 92.0253 39.1ZM120.434 38.34V38.56C121.86 38.92 122.574 39.7333 122.574 41C122.574 42.0667 122.187 42.8333 121.414 43.3C120.64 43.7667 119.36 44 117.574 44H110.814V33.46H117.754C120.714 33.46 122.194 34.3333 122.194 36.08C122.194 36.64 122.054 37.1 121.774 37.46C121.507 37.8067 121.06 38.1 120.434 38.34ZM114.114 35.88V37.64H117.334C117.88 37.64 118.267 37.5733 118.494 37.44C118.734 37.3067 118.854 37.0733 118.854 36.74C118.854 36.1667 118.327 35.88 117.274 35.88H114.114ZM114.114 39.56V41.58H117.534C118.12 41.58 118.547 41.5067 118.814 41.36C119.08 41.2 119.214 40.9467 119.214 40.6C119.214 40.2267 119.08 39.96 118.814 39.8C118.547 39.64 118.114 39.56 117.514 39.56H114.114ZM129.806 33.12C131.753 33.12 133.186 33.4733 134.106 34.18C135.039 34.8733 135.506 35.96 135.506 37.44V44H132.126V42.32C131.299 43.6667 129.986 44.34 128.186 44.34C126.759 44.34 125.679 44.0667 124.946 43.52C124.226 42.96 123.866 42.1533 123.866 41.1C123.866 38.82 125.646 37.68 129.206 37.68C130.326 37.68 131.299 37.78 132.126 37.98V37.44C132.126 36.8133 131.939 36.36 131.566 36.08C131.193 35.7867 130.606 35.64 129.806 35.64C128.393 35.64 127.633 36 127.526 36.72H124.446C124.566 34.32 126.353 33.12 129.806 33.12ZM129.286 41.98C130.153 41.98 130.839 41.8 131.346 41.44C131.853 41.0667 132.113 40.54 132.126 39.86V39.82C131.419 39.6467 130.533 39.56 129.466 39.56C127.839 39.56 127.026 39.9533 127.026 40.74C127.026 41.5667 127.779 41.98 129.286 41.98ZM139.245 33.46H149.545V44H146.185V36.1H142.645V37.5C142.645 39.82 142.171 41.54 141.225 42.66C140.278 43.78 138.825 44.34 136.865 44.34V41.68C137.705 41.5733 138.311 41.2 138.685 40.56C139.058 39.9067 139.245 38.8867 139.245 37.5V33.46ZM164.426 33.12C166.746 33.12 168.446 33.5733 169.526 34.48C170.619 35.3867 171.166 36.7933 171.166 38.7C171.166 40.6467 170.626 42.0733 169.546 42.98C168.466 43.8867 166.759 44.34 164.426 44.34C162.319 44.34 160.719 43.98 159.626 43.26C158.546 42.5267 157.906 41.3933 157.706 39.86H155.346V44H151.986V33.46H155.346V37.2H157.746C158.012 35.8133 158.686 34.7867 159.766 34.12C160.859 33.4533 162.412 33.12 164.426 33.12ZM164.426 41.68C165.666 41.68 166.539 41.46 167.046 41.02C167.552 40.5667 167.806 39.7933 167.806 38.7C167.806 37.6333 167.552 36.88 167.046 36.44C166.539 36 165.666 35.78 164.426 35.78C163.172 35.78 162.286 36 161.766 36.44C161.259 36.88 161.006 37.6333 161.006 38.7C161.006 39.8067 161.259 40.58 161.766 41.02C162.286 41.46 163.172 41.68 164.426 41.68ZM179.558 44H176.198V36.1H172.378V33.46H183.418V36.1H179.558V44Z" fill="white"/>
<path opacity="0.9" d="M35.776 60.64V72H34.4V61.984H28.848V72H27.472V60.64H35.776ZM37.6895 67.76C37.6895 65.072 39.2095 63.328 41.5775 63.328C43.4495 63.328 45.1135 64.56 45.2415 67.568L45.2575 68.176H39.1135C39.2415 69.904 40.1215 70.912 41.5775 70.912C42.4735 70.912 43.3055 70.384 43.6895 69.488L45.1295 69.6C44.6335 71.2 43.1935 72.192 41.5775 72.192C39.2095 72.192 37.6895 70.448 37.6895 67.76ZM39.1455 66.992H43.7855C43.5615 65.216 42.6015 64.608 41.5775 64.608C40.2335 64.608 39.3695 65.488 39.1455 66.992ZM47.2175 74.4V63.52H48.4335L48.4815 64.784C48.9455 63.84 49.8575 63.328 51.0895 63.328C53.6175 63.328 54.7535 65.424 54.7535 67.76C54.7535 70.096 53.6175 72.192 51.0895 72.192C49.9055 72.192 49.0415 71.728 48.5615 70.848V74.4H47.2175ZM48.4175 67.76C48.4175 69.344 49.1375 70.912 50.8655 70.912C52.6095 70.912 53.3135 69.376 53.3135 67.76C53.3135 66.144 52.6095 64.608 50.8655 64.608C49.1375 64.608 48.4175 66.176 48.4175 67.76ZM56.252 67.76C56.252 65.072 57.772 63.328 60.14 63.328C62.012 63.328 63.676 64.56 63.804 67.568L63.82 68.176H57.676C57.804 69.904 58.684 70.912 60.14 70.912C61.036 70.912 61.868 70.384 62.252 69.488L63.692 69.6C63.196 71.2 61.756 72.192 60.14 72.192C57.772 72.192 56.252 70.448 56.252 67.76ZM57.708 66.992H62.348C62.124 65.216 61.164 64.608 60.14 64.608C58.796 64.608 57.932 65.488 57.708 66.992ZM65.78 72V63.52H69.3C71.252 63.52 72.5 64.432 72.5 65.872C72.5 66.816 71.828 67.456 70.692 67.616C72.036 67.76 72.852 68.512 72.852 69.6C72.852 71.072 71.652 72 69.764 72H65.78ZM67.124 70.816H69.764C70.772 70.816 71.412 70.336 71.412 69.6C71.412 68.784 70.772 68.288 69.764 68.288H67.124V70.816ZM67.124 67.104H69.3C70.372 67.104 71.06 66.624 71.06 65.872C71.06 65.152 70.372 64.704 69.3 64.704H67.124V67.104ZM78.6088 72.192C76.2568 72.192 74.7208 70.464 74.7208 67.76C74.7208 65.056 76.2568 63.328 78.6088 63.328C80.9448 63.328 82.4808 65.056 82.4808 67.76C82.4808 70.464 80.9448 72.192 78.6088 72.192ZM76.1288 67.76C76.1288 69.728 77.0408 70.912 78.6088 70.912C80.1608 70.912 81.0728 69.728 81.0728 67.76C81.0728 65.792 80.1608 64.608 78.6088 64.608C77.0408 64.608 76.1288 65.792 76.1288 67.76ZM92.2424 63.52V70.816H93.6184V74.4H92.2744V72H85.2184V74.4H83.8744V70.816H84.6264C85.2984 70.816 85.6664 70.336 85.8104 69.28L86.5784 63.52H92.2424ZM86.6104 70.816H90.8984V64.704H87.7944L87.1224 69.408C87.0424 70 86.8664 70.464 86.6104 70.816ZM99.5456 63.52H101.402L104.026 70.592L106.634 63.52H108.474V72H107.13V66.016L104.858 72H103.178L100.89 66.016V72H99.5456V63.52ZM110.268 67.76C110.268 65.072 111.788 63.328 114.156 63.328C116.028 63.328 117.692 64.56 117.82 67.568L117.836 68.176H111.692C111.82 69.904 112.7 70.912 114.156 70.912C115.052 70.912 115.884 70.384 116.268 69.488L117.708 69.6C117.212 71.2 115.772 72.192 114.156 72.192C111.788 72.192 110.268 70.448 110.268 67.76ZM111.724 66.992H116.364C116.14 65.216 115.18 64.608 114.156 64.608C112.812 64.608 111.948 65.488 111.724 66.992ZM124.021 63.52H125.365V67.648L128.869 63.52H130.645L127.045 67.76L130.805 72H129.029L125.365 67.872V72H124.021V67.872L120.357 72H118.549L122.309 67.76L118.709 63.52H120.517L124.021 67.648V63.52ZM139.774 63.52V70.816H141.15V74.4H139.806V72H132.75V74.4H131.406V70.816H132.158C132.83 70.816 133.198 70.336 133.342 69.28L134.11 63.52H139.774ZM134.142 70.816H138.43V64.704H135.326L134.654 69.408C134.574 70 134.398 70.464 134.142 70.816ZM141.743 63.52H143.183L145.727 70.56L148.207 63.52H149.631L146.191 73.072C145.871 73.984 145.263 74.4 144.303 74.4H143.199V73.216H144.175C144.591 73.216 144.831 73.04 144.991 72.624L145.295 71.84H144.847L141.743 63.52ZM160.736 66.368C160.56 65.264 159.632 64.608 158.624 64.608C157.056 64.608 156.144 65.792 156.144 67.76C156.144 69.728 157.056 70.912 158.624 70.912C159.68 70.912 160.608 70.208 160.8 68.992L162.224 69.088C161.952 71.008 160.416 72.192 158.624 72.192C156.256 72.192 154.736 70.448 154.736 67.76C154.736 65.072 156.256 63.328 158.624 63.328C160.352 63.328 161.92 64.448 162.144 66.272L160.736 66.368ZM170.992 72H169.648V67.888C169.248 68.832 168.288 69.472 167.152 69.472C165.184 69.472 163.936 68.048 163.936 65.792V63.52H165.28V65.792C165.28 67.264 166.016 68.192 167.152 68.192C168.688 68.192 169.648 67.264 169.648 65.776V63.52H170.992V72ZM172.783 67.76C172.783 65.072 174.303 63.328 176.671 63.328C178.543 63.328 180.207 64.56 180.335 67.568L180.351 68.176H174.207C174.335 69.904 175.215 70.912 176.671 70.912C177.567 70.912 178.399 70.384 178.783 69.488L180.223 69.6C179.727 71.2 178.287 72.192 176.671 72.192C174.303 72.192 172.783 70.448 172.783 67.76ZM174.239 66.992H178.879C178.655 65.216 177.695 64.608 176.671 64.608C175.327 64.608 174.463 65.488 174.239 66.992ZM188.849 63.52V64.704H185.793V72H184.433V64.704H181.377V63.52H188.849ZM190.177 66.016C190.513 64.368 191.841 63.328 193.649 63.328C195.825 63.328 197.057 64.608 197.057 66.88V70.288C197.057 70.64 197.217 70.816 197.569 70.816H197.921V72H197.345C196.481 72 195.729 71.728 195.729 70.688C195.361 71.472 194.433 72.192 193.089 72.192C191.393 72.192 190.033 71.296 190.033 69.776C190.033 68.032 191.345 67.584 193.233 67.232L195.713 66.736C195.697 65.312 195.009 64.608 193.649 64.608C192.577 64.608 191.857 65.152 191.601 66.128L190.177 66.016ZM191.441 69.776C191.441 70.448 192.017 71.008 193.265 71.008C194.641 70.992 195.745 70.032 195.745 68.048V67.936L193.745 68.288C192.481 68.512 191.441 68.592 191.441 69.776ZM199.639 63.52H201.495L204.119 70.592L206.727 63.52H208.567V72H207.223V66.016L204.951 72H203.271L200.983 66.016V72H199.639V63.52ZM217.732 63.52V72H216.388V65.696L212.788 72H211.124V63.52H212.468V69.952L216.148 63.52H217.732ZM221.496 72L220.584 74.464H219.8L220.424 72H219.768V70.256H221.48V72H221.496ZM234.234 63.52V72H232.89V64.704H228.874V72H227.53V63.52H234.234ZM236.033 67.76C236.033 65.072 237.553 63.328 239.921 63.328C241.793 63.328 243.457 64.56 243.585 67.568L243.601 68.176H237.457C237.585 69.904 238.465 70.912 239.921 70.912C240.817 70.912 241.649 70.384 242.033 69.488L243.473 69.6C242.977 71.2 241.537 72.192 239.921 72.192C237.553 72.192 236.033 70.448 236.033 67.76ZM237.489 66.992H242.129C241.905 65.216 240.945 64.608 239.921 64.608C238.577 64.608 237.713 65.488 237.489 66.992ZM245.561 74.4V63.52H246.777L246.825 64.784C247.289 63.84 248.201 63.328 249.433 63.328C251.961 63.328 253.097 65.424 253.097 67.76C253.097 70.096 251.961 72.192 249.433 72.192C248.249 72.192 247.385 71.728 246.905 70.848V74.4H245.561ZM246.761 67.76C246.761 69.344 247.481 70.912 249.209 70.912C250.953 70.912 251.657 69.376 251.657 67.76C251.657 66.144 250.953 64.608 249.209 64.608C247.481 64.608 246.761 66.176 246.761 67.76ZM254.596 67.76C254.596 65.072 256.116 63.328 258.484 63.328C260.356 63.328 262.02 64.56 262.148 67.568L262.164 68.176H256.02C256.148 69.904 257.028 70.912 258.484 70.912C259.38 70.912 260.212 70.384 260.596 69.488L262.036 69.6C261.54 71.2 260.1 72.192 258.484 72.192C256.116 72.192 254.596 70.448 254.596 67.76ZM256.052 66.992H260.692C260.468 65.216 259.508 64.608 258.484 64.608C257.14 64.608 256.276 65.488 256.052 66.992ZM264.124 72V63.52H267.644C269.596 63.52 270.844 64.432 270.844 65.872C270.844 66.816 270.172 67.456 269.036 67.616C270.38 67.76 271.196 68.512 271.196 69.6C271.196 71.072 269.996 72 268.108 72H264.124ZM265.468 70.816H268.108C269.116 70.816 269.756 70.336 269.756 69.6C269.756 68.784 269.116 68.288 268.108 68.288H265.468V70.816ZM265.468 67.104H267.644C268.716 67.104 269.404 66.624 269.404 65.872C269.404 65.152 268.716 64.704 267.644 64.704H265.468V67.104ZM276.953 72.192C274.601 72.192 273.065 70.464 273.065 67.76C273.065 65.056 274.601 63.328 276.953 63.328C279.289 63.328 280.825 65.056 280.825 67.76C280.825 70.464 279.289 72.192 276.953 72.192ZM274.473 67.76C274.473 69.728 275.385 70.912 276.953 70.912C278.505 70.912 279.417 69.728 279.417 67.76C279.417 65.792 278.505 64.608 276.953 64.608C275.385 64.608 274.473 65.792 274.473 67.76ZM290.586 63.52V70.816H291.962V74.4H290.618V72H283.562V74.4H282.218V70.816H282.97C283.642 70.816 284.01 70.336 284.154 69.28L284.922 63.52H290.586ZM284.954 70.816H289.242V64.704H286.138L285.466 69.408C285.386 70 285.21 70.464 284.954 70.816ZM30.448 86.896C31.424 86.912 32.064 86.448 32.064 85.712C32.064 85.04 31.376 84.608 30.288 84.608C29.296 84.608 28.64 85.008 28.56 85.616L27.104 85.536C27.264 84.176 28.496 83.328 30.288 83.328C32.24 83.328 33.472 84.24 33.472 85.712C33.472 86.512 32.832 87.152 31.776 87.44C33.008 87.792 33.76 88.64 33.76 89.696C33.76 91.232 32.416 92.192 30.288 92.192C28.224 92.192 26.88 91.2 26.8 89.632L28.208 89.568C28.272 90.384 29.072 90.912 30.288 90.912C31.552 90.912 32.352 90.416 32.352 89.616C32.352 88.688 31.6 88.128 30.448 88.144L29.568 88.16V86.88L30.448 86.896ZM35.5366 86.016C35.8726 84.368 37.2006 83.328 39.0086 83.328C41.1846 83.328 42.4166 84.608 42.4166 86.88V90.288C42.4166 90.64 42.5766 90.816 42.9286 90.816H43.2806V92H42.7046C41.8406 92 41.0886 91.728 41.0886 90.688C40.7206 91.472 39.7926 92.192 38.4486 92.192C36.7526 92.192 35.3926 91.296 35.3926 89.776C35.3926 88.032 36.7046 87.584 38.5926 87.232L41.0726 86.736C41.0566 85.312 40.3686 84.608 39.0086 84.608C37.9366 84.608 37.2166 85.152 36.9606 86.128L35.5366 86.016ZM36.8006 89.776C36.8006 90.448 37.3766 91.008 38.6246 91.008C40.0006 90.992 41.1046 90.032 41.1046 88.048V87.936L39.1046 88.288C37.8406 88.512 36.8006 88.592 36.8006 89.776ZM49.1238 94.4V83.52H50.3398L50.3878 84.784C50.8518 83.84 51.7638 83.328 52.9958 83.328C55.5238 83.328 56.6597 85.424 56.6597 87.76C56.6597 90.096 55.5238 92.192 52.9958 92.192C51.8118 92.192 50.9478 91.728 50.4678 90.848V94.4H49.1238ZM50.3238 87.76C50.3238 89.344 51.0438 90.912 52.7718 90.912C54.5158 90.912 55.2198 89.376 55.2198 87.76C55.2198 86.144 54.5158 84.608 52.7718 84.608C51.0438 84.608 50.3238 86.176 50.3238 87.76ZM57.352 83.52H58.792L61.336 90.56L63.816 83.52H65.24L61.8 93.072C61.48 93.984 60.872 94.4 59.912 94.4H58.808V93.216H59.784C60.2 93.216 60.44 93.04 60.6 92.624L60.904 91.84H60.456L57.352 83.52ZM67.4435 88.224C67.4115 89.84 68.4835 90.976 70.0355 90.976C71.5395 90.976 72.6115 89.84 72.6115 88.224C72.6115 86.656 71.5875 85.536 70.1475 85.536C68.5795 85.536 67.4595 86.656 67.4435 88.224ZM65.9715 86.992C65.9715 83.904 66.7875 82.528 68.8995 81.616C69.9875 81.136 70.3075 80.752 70.3075 79.84L71.6835 79.824C71.6835 81.072 71.2515 81.968 69.9235 82.592C68.5635 83.248 67.4595 83.6 67.3635 85.904C67.9715 84.848 68.9955 84.256 70.2435 84.256C72.4995 84.256 74.0195 85.888 74.0195 88.224C74.0195 90.704 72.3555 92.256 70.0035 92.256C69.0115 92.256 68.0035 91.904 67.1875 91.024C66.3715 90.208 65.9715 88.752 65.9715 86.992ZM75.5489 87.76C75.5489 85.072 77.0689 83.328 79.4369 83.328C81.3089 83.328 82.9729 84.56 83.1009 87.568L83.1169 88.176H76.9729C77.1009 89.904 77.9809 90.912 79.4369 90.912C80.3329 90.912 81.1649 90.384 81.5489 89.488L82.9889 89.6C82.4929 91.2 81.0529 92.192 79.4369 92.192C77.0689 92.192 75.5489 90.448 75.5489 87.76ZM77.0049 86.992H81.6449C81.4209 85.216 80.4609 84.608 79.4369 84.608C78.0929 84.608 77.2289 85.488 77.0049 86.992ZM89.3021 83.52H90.6461V87.648L94.1501 83.52H95.9261L92.3261 87.76L96.0861 92H94.3101L90.6461 87.872V92H89.3021V87.872L85.6381 92H83.8301L87.5901 87.76L83.9901 83.52H85.7981L89.3021 87.648V83.52ZM108.732 83.52V92H107.388V85.696L103.788 92H102.124V83.52H103.468V89.952L107.148 83.52H108.732ZM119.536 83.52V92H118.192V84.704H114.56L114.032 89.648C113.872 91.216 113.2 92 111.952 92H110.976V90.656H111.76C112.288 90.656 112.608 90.256 112.688 89.504L113.328 83.52H119.536ZM128.701 83.52V92H127.357V85.696L123.757 92H122.093V83.52H123.437V89.952L127.117 83.52H128.701ZM138.624 92.192C136.272 92.192 134.736 90.464 134.736 87.76C134.736 85.056 136.272 83.328 138.624 83.328C140.96 83.328 142.496 85.056 142.496 87.76C142.496 90.464 140.96 92.192 138.624 92.192ZM136.144 87.76C136.144 89.728 137.056 90.912 138.624 90.912C140.176 90.912 141.088 89.728 141.088 87.76C141.088 85.792 140.176 84.608 138.624 84.608C137.056 84.608 136.144 85.792 136.144 87.76ZM151.156 83.52V92H149.812V84.704H145.796V92H144.452V83.52H151.156ZM161.958 83.52V92H160.614V84.704H156.982L156.454 89.648C156.294 91.216 155.622 92 154.374 92H153.398V90.656H154.182C154.71 90.656 155.03 90.256 155.11 89.504L155.75 83.52H161.958ZM164.13 86.016C164.466 84.368 165.794 83.328 167.602 83.328C169.778 83.328 171.01 84.608 171.01 86.88V90.288C171.01 90.64 171.17 90.816 171.522 90.816H171.874V92H171.298C170.434 92 169.682 91.728 169.682 90.688C169.314 91.472 168.386 92.192 167.042 92.192C165.346 92.192 163.986 91.296 163.986 89.776C163.986 88.032 165.298 87.584 167.186 87.232L169.666 86.736C169.65 85.312 168.962 84.608 167.602 84.608C166.53 84.608 165.81 85.152 165.554 86.128L164.13 86.016ZM165.394 89.776C165.394 90.448 165.97 91.008 167.218 91.008C168.594 90.992 169.698 90.032 169.698 88.048V87.936L167.698 88.288C166.434 88.512 165.394 88.592 165.394 89.776ZM179.865 83.52V84.704H176.809V92H175.449V84.704H172.393V83.52H179.865ZM181.193 86.016C181.529 84.368 182.857 83.328 184.665 83.328C186.841 83.328 188.073 84.608 188.073 86.88V90.288C188.073 90.64 188.233 90.816 188.585 90.816H188.937V92H188.361C187.497 92 186.745 91.728 186.745 90.688C186.377 91.472 185.449 92.192 184.105 92.192C182.409 92.192 181.049 91.296 181.049 89.776C181.049 88.032 182.361 87.584 184.249 87.232L186.729 86.736C186.713 85.312 186.025 84.608 184.665 84.608C183.593 84.608 182.873 85.152 182.617 86.128L181.193 86.016ZM182.457 89.776C182.457 90.448 183.033 91.008 184.281 91.008C185.657 90.992 186.761 90.032 186.761 88.048V87.936L184.761 88.288C183.497 88.512 182.457 88.592 182.457 89.776ZM193.852 83.52H195.292L197.836 90.56L200.316 83.52H201.74L198.3 93.072C197.98 93.984 197.372 94.4 196.412 94.4H195.308V93.216H196.284C196.7 93.216 196.94 93.04 197.1 92.624L197.404 91.84H196.956L193.852 83.52ZM208.44 86.368C208.264 85.264 207.336 84.608 206.328 84.608C204.76 84.608 203.848 85.792 203.848 87.76C203.848 89.728 204.76 90.912 206.328 90.912C207.384 90.912 208.312 90.208 208.504 88.992L209.928 89.088C209.656 91.008 208.12 92.192 206.328 92.192C203.96 92.192 202.44 90.448 202.44 87.76C202.44 85.072 203.96 83.328 206.328 83.328C208.056 83.328 209.624 84.448 209.848 86.272L208.44 86.368ZM220.036 83.52V92H218.692V84.704H215.06L214.532 89.648C214.372 91.216 213.7 92 212.452 92H211.476V90.656H212.26C212.788 90.656 213.108 90.256 213.188 89.504L213.828 83.52H220.036ZM221.665 83.52H223.105L225.649 90.56L228.129 83.52H229.553L226.113 93.072C225.793 93.984 225.185 94.4 224.225 94.4H223.121V93.216H224.097C224.513 93.216 224.753 93.04 224.913 92.624L225.217 91.84H224.769L221.665 83.52ZM231.186 83.52H237.122V84.704H232.53V92H231.186V83.52Z" fill="white"/>
<rect x="354" y="194" width="64" height="64" rx="4" fill="white"/>
<mask id="mask0_80_456" style="mask-type:alpha" maskUnits="userSpaceOnUse" x="368" y="210" width="36" height="33">
<path fill-rule="evenodd" clip-rule="evenodd" d="M390.5 226.5V232.5L399.5 225V228C399.5 232.971 395.471 237 390.5 237L381.5 237V243L368 231.75L381.5 220.5V226.5H390.5Z" fill="black"/>
<path d="M372.5 225V228L381.5 220.5V226.5H390.5V232.5L404 221.25L390.5 210V216H381.5C376.529 216 372.5 220.029 372.5 225Z" fill="url(#paint0_linear_80_456)"/>
</mask>
<g mask="url(#mask0_80_456)">
<path d="M368 208.5H404V244.5H368V208.5Z" fill="#336FEE"/>
</g>
<defs>
<linearGradient id="paint0_linear_80_456" x1="404" y1="220.5" x2="372.5" y2="220.5" gradientUnits="userSpaceOnUse">
<stop stop-opacity="0.5"/>
<stop offset="1" stop-opacity="0.3"/>
</linearGradient>
</defs>
</svg>
