<svg width="456" height="300" viewBox="0 0 456 300" fill="none" xmlns="http://www.w3.org/2000/svg">
<rect width="456" height="300" rx="24" fill="#4B82D2"/>
<path d="M27.38 30.06H41.12V44H37.68V32.88H30.82V44H27.38V30.06ZM56.4239 38.68V39.5H46.6439C46.7506 40.38 47.0572 41 47.5639 41.36C48.0706 41.72 48.8706 41.9 49.9639 41.9C51.8439 41.9 52.8706 41.4933 53.0439 40.68H56.2239C55.9972 43.12 53.8906 44.34 49.9039 44.34C47.6239 44.34 45.9506 43.88 44.8839 42.96C43.8172 42.04 43.2839 40.6 43.2839 38.64C43.2839 36.7467 43.8106 35.3533 44.8639 34.46C45.9306 33.5667 47.5972 33.12 49.8639 33.12C52.1306 33.12 53.7906 33.56 54.8439 34.44C55.8972 35.3067 56.4239 36.72 56.4239 38.68ZM49.8839 35.56C48.8439 35.56 48.0772 35.7133 47.5839 36.02C47.1039 36.3267 46.8039 36.8533 46.6839 37.6H53.0439C53.0172 36.88 52.7506 36.36 52.2439 36.04C51.7506 35.72 50.9639 35.56 49.8839 35.56ZM66.3509 33.12C68.2443 33.12 69.6376 33.5733 70.5309 34.48C71.4376 35.3867 71.8909 36.7933 71.8909 38.7C71.8909 40.6333 71.4376 42.06 70.5309 42.98C69.6376 43.8867 68.2443 44.34 66.3509 44.34C64.0976 44.34 62.5776 43.62 61.7909 42.18V48.4H58.4309V33.46H61.7909V35.24C62.5643 33.8267 64.0843 33.12 66.3509 33.12ZM65.2909 41.72C66.4509 41.72 67.2776 41.4867 67.7709 41.02C68.2776 40.5533 68.5309 39.7867 68.5309 38.72C68.5309 37.64 68.2843 36.88 67.7909 36.44C67.3109 35.9867 66.4909 35.76 65.3309 35.76C62.9043 35.76 61.6909 36.62 61.6909 38.34V39C61.6909 39.8533 62.0043 40.52 62.6309 41C63.2576 41.48 64.1443 41.72 65.2909 41.72ZM86.5997 38.68V39.5H76.8197C76.9264 40.38 77.233 41 77.7397 41.36C78.2464 41.72 79.0464 41.9 80.1397 41.9C82.0197 41.9 83.0464 41.4933 83.2197 40.68H86.3997C86.173 43.12 84.0664 44.34 80.0797 44.34C77.7997 44.34 76.1264 43.88 75.0597 42.96C73.993 42.04 73.4597 40.6 73.4597 38.64C73.4597 36.7467 73.9864 35.3533 75.0397 34.46C76.1064 33.5667 77.773 33.12 80.0397 33.12C82.3064 33.12 83.9664 33.56 85.0197 34.44C86.073 35.3067 86.5997 36.72 86.5997 38.68ZM80.0597 35.56C79.0197 35.56 78.253 35.7133 77.7597 36.02C77.2797 36.3267 76.9797 36.8533 76.8597 37.6H83.2197C83.193 36.88 82.9264 36.36 82.4197 36.04C81.9264 35.72 81.1397 35.56 80.0597 35.56ZM98.2267 38.34V38.56C99.6534 38.92 100.367 39.7333 100.367 41C100.367 42.0667 99.9801 42.8333 99.2067 43.3C98.4334 43.7667 97.1534 44 95.3667 44H88.6067V33.46H95.5467C98.5067 33.46 99.9867 34.3333 99.9867 36.08C99.9867 36.64 99.8467 37.1 99.5667 37.46C99.3001 37.8067 98.8534 38.1 98.2267 38.34ZM91.9067 35.88V37.64H95.1267C95.6734 37.64 96.0601 37.5733 96.2867 37.44C96.5267 37.3067 96.6467 37.0733 96.6467 36.74C96.6467 36.1667 96.1201 35.88 95.0667 35.88H91.9067ZM91.9067 39.56V41.58H95.3267C95.9134 41.58 96.3401 41.5067 96.6067 41.36C96.8734 41.2 97.0067 40.9467 97.0067 40.6C97.0067 40.2267 96.8734 39.96 96.6067 39.8C96.3401 39.64 95.9067 39.56 95.3067 39.56H91.9067ZM108.619 44.34C106.272 44.34 104.552 43.8867 103.459 42.98C102.366 42.0733 101.819 40.6467 101.819 38.7C101.819 36.78 102.366 35.3733 103.459 34.48C104.552 33.5733 106.272 33.12 108.619 33.12C110.939 33.12 112.639 33.5733 113.719 34.48C114.812 35.3867 115.359 36.7933 115.359 38.7C115.359 40.6467 114.812 42.0733 113.719 42.98C112.639 43.8867 110.939 44.34 108.619 44.34ZM108.619 41.68C109.859 41.68 110.732 41.46 111.239 41.02C111.746 40.5667 111.999 39.7933 111.999 38.7C111.999 37.6333 111.746 36.88 111.239 36.44C110.732 36 109.859 35.78 108.619 35.78C107.366 35.78 106.479 36 105.959 36.44C105.452 36.88 105.199 37.6333 105.199 38.7C105.199 39.8067 105.452 40.58 105.959 41.02C106.479 41.46 107.366 41.68 108.619 41.68ZM129.099 33.46V41.4H130.619V47.34H127.359V44H119.639V47.34H116.359V41.4H117.639C118.612 40.4667 119.099 38.8 119.099 36.4V33.46H129.099ZM121.179 41.4H125.799V36.04H122.359V37.1C122.359 38.6333 121.966 40.0667 121.179 41.4ZM132.435 44V33.46H135.795V36.56H138.295C141.802 36.56 143.555 37.7867 143.555 40.24C143.555 42.7467 141.802 44 138.295 44H132.435ZM148.635 44H145.275V33.46H148.635V44ZM138.295 39.1H135.795V41.48H138.295C139.628 41.48 140.295 41.0733 140.295 40.26C140.295 39.4867 139.628 39.1 138.295 39.1ZM165.203 33.46H169.723V44H166.363V36.48H165.983L161.623 44H157.083V33.46H160.443V40.96H160.783L165.203 33.46ZM178.255 33.46H189.495V44H186.135V36.1H181.615V44H178.255V33.46ZM198.287 44.34C195.94 44.34 194.22 43.8867 193.127 42.98C192.034 42.0733 191.487 40.6467 191.487 38.7C191.487 36.78 192.034 35.3733 193.127 34.48C194.22 33.5733 195.94 33.12 198.287 33.12C200.607 33.12 202.307 33.5733 203.387 34.48C204.48 35.3867 205.027 36.7933 205.027 38.7C205.027 40.6467 204.48 42.0733 203.387 42.98C202.307 43.8867 200.607 44.34 198.287 44.34ZM198.287 41.68C199.527 41.68 200.4 41.46 200.907 41.02C201.414 40.5667 201.667 39.7933 201.667 38.7C201.667 37.6333 201.414 36.88 200.907 36.44C200.4 36 199.527 35.78 198.287 35.78C197.034 35.78 196.147 36 195.627 36.44C195.12 36.88 194.867 37.6333 194.867 38.7C194.867 39.8067 195.12 40.58 195.627 41.02C196.147 41.46 197.034 41.68 198.287 41.68ZM207.025 33.46H218.265V44H214.905V36.1H210.385V44H207.025V33.46ZM227.057 44.34C224.71 44.34 222.99 43.8867 221.897 42.98C220.803 42.0733 220.257 40.6467 220.257 38.7C220.257 36.78 220.803 35.3733 221.897 34.48C222.99 33.5733 224.71 33.12 227.057 33.12C229.377 33.12 231.077 33.5733 232.157 34.48C233.25 35.3867 233.797 36.7933 233.797 38.7C233.797 40.6467 233.25 42.0733 232.157 42.98C231.077 43.8867 229.377 44.34 227.057 44.34ZM227.057 41.68C228.297 41.68 229.17 41.46 229.677 41.02C230.183 40.5667 230.437 39.7933 230.437 38.7C230.437 37.6333 230.183 36.88 229.677 36.44C229.17 36 228.297 35.78 227.057 35.78C225.803 35.78 224.917 36 224.397 36.44C223.89 36.88 223.637 37.6333 223.637 38.7C223.637 39.8067 223.89 40.58 224.397 41.02C224.917 41.46 225.803 41.68 227.057 41.68ZM237.077 33.46H247.377V44H244.017V36.1H240.477V37.5C240.477 39.82 240.003 41.54 239.057 42.66C238.11 43.78 236.657 44.34 234.697 44.34V41.68C235.537 41.5733 236.143 41.2 236.517 40.56C236.89 39.9067 237.077 38.8867 237.077 37.5V33.46ZM257.878 37.2V33.46H261.238V44H257.878V39.86H253.178V44H249.818V33.46H253.178V37.2H257.878ZM276.385 38.68V39.5H266.605C266.712 40.38 267.018 41 267.525 41.36C268.032 41.72 268.832 41.9 269.925 41.9C271.805 41.9 272.832 41.4933 273.005 40.68H276.185C275.958 43.12 273.852 44.34 269.865 44.34C267.585 44.34 265.912 43.88 264.845 42.96C263.778 42.04 263.245 40.6 263.245 38.64C263.245 36.7467 263.772 35.3533 264.825 34.46C265.892 33.5667 267.558 33.12 269.825 33.12C272.092 33.12 273.752 33.56 274.805 34.44C275.858 35.3067 276.385 36.72 276.385 38.68ZM269.845 35.56C268.805 35.56 268.038 35.7133 267.545 36.02C267.065 36.3267 266.765 36.8533 266.645 37.6H273.005C272.978 36.88 272.712 36.36 272.205 36.04C271.712 35.72 270.925 35.56 269.845 35.56ZM286.452 37.2V33.46H289.812V44H286.452V39.86H281.752V44H278.392V33.46H281.752V37.2H286.452ZM300.379 33.46H304.899V44H301.539V36.48H301.159L296.799 44H292.259V33.46H295.619V40.96H295.959L300.379 33.46ZM312.337 33.46H318.557V44H315.297V41.12H314.037L310.617 44H306.517L310.277 40.92C308.091 40.4533 306.997 39.24 306.997 37.28C306.997 36.0267 307.451 35.08 308.357 34.44C309.264 33.7867 310.591 33.46 312.337 33.46ZM315.297 36.02H312.257C310.924 36.02 310.257 36.44 310.257 37.28C310.257 38.12 310.924 38.54 312.257 38.54H315.297V36.02Z" fill="white"/>
<path opacity="0.9" d="M36.512 68.256C36.096 70.64 34.544 72.256 31.92 72.256C28.656 72.256 26.784 69.632 26.784 66.336C26.784 63.024 28.64 60.384 31.92 60.384C34.336 60.384 35.92 61.888 36.416 64.128L34.96 64.224C34.592 62.624 33.488 61.728 31.92 61.728C29.328 61.728 28.224 63.872 28.224 66.336C28.224 68.784 29.344 70.912 31.92 70.912C33.584 70.912 34.704 69.92 35.04 68.16L36.512 68.256ZM42.4988 63.52H43.8748V67.648L47.8588 63.52H49.7468L45.5708 67.76L49.9388 72H48.0188L43.8748 67.872V72H42.4988V63.52ZM51.4273 66.016C51.7633 64.368 53.0913 63.328 54.8993 63.328C57.0753 63.328 58.3073 64.608 58.3073 66.88V70.288C58.3073 70.64 58.4673 70.816 58.8193 70.816H59.1713V72H58.5953C57.7313 72 56.9793 71.728 56.9793 70.688C56.6113 71.472 55.6833 72.192 54.3393 72.192C52.6432 72.192 51.2833 71.296 51.2833 69.776C51.2833 68.032 52.5953 67.584 54.4833 67.232L56.9633 66.736C56.9473 65.312 56.2593 64.608 54.8993 64.608C53.8273 64.608 53.1073 65.152 52.8513 66.128L51.4273 66.016ZM52.6913 69.776C52.6913 70.448 53.2673 71.008 54.5153 71.008C55.8913 70.992 56.9953 70.032 56.9953 68.048V67.936L54.9953 68.288C53.7313 68.512 52.6913 68.592 52.6913 69.776ZM60.8894 74.4V63.52H62.1054L62.1534 64.784C62.6174 63.84 63.5294 63.328 64.7614 63.328C67.2894 63.328 68.4254 65.424 68.4254 67.76C68.4254 70.096 67.2894 72.192 64.7614 72.192C63.5774 72.192 62.7134 71.728 62.2334 70.848V74.4H60.8894ZM62.0894 67.76C62.0894 69.344 62.8094 70.912 64.5374 70.912C66.2814 70.912 66.9854 69.376 66.9854 67.76C66.9854 66.144 66.2814 64.608 64.5374 64.608C62.8094 64.608 62.0894 66.176 62.0894 67.76ZM76.9115 63.52V64.704H73.8555V72H72.4955V64.704H69.4395V63.52H76.9115ZM78.4675 72V63.52H79.8115V66.64H82.0515C84.4355 66.64 85.7635 67.6 85.7635 69.328C85.7635 71.04 84.4355 72 82.0515 72H78.4675ZM79.8115 70.8H82.0515C83.5875 70.8 84.3555 70.32 84.3555 69.328C84.3555 68.32 83.5875 67.824 82.0515 67.824H79.8115V70.8ZM87.2675 72V63.52H88.6115V72H87.2675ZM95.1706 63.52H96.5146V67.184H100.515V63.52H101.859V72H100.515V68.368H96.5146V72H95.1706V63.52ZM104.037 66.016C104.373 64.368 105.701 63.328 107.509 63.328C109.685 63.328 110.917 64.608 110.917 66.88V70.288C110.917 70.64 111.077 70.816 111.429 70.816H111.781V72H111.205C110.341 72 109.589 71.728 109.589 70.688C109.221 71.472 108.293 72.192 106.949 72.192C105.253 72.192 103.893 71.296 103.893 69.776C103.893 68.032 105.205 67.584 107.093 67.232L109.573 66.736C109.557 65.312 108.869 64.608 107.509 64.608C106.437 64.608 105.717 65.152 105.461 66.128L104.037 66.016ZM105.301 69.776C105.301 70.448 105.877 71.008 107.125 71.008C108.501 70.992 109.605 70.032 109.605 68.048V67.936L107.605 68.288C106.341 68.512 105.301 68.592 105.301 69.776ZM117.624 63.52H119V67.648L122.984 63.52H124.872L120.696 67.76L125.064 72H123.144L119 67.872V72H117.624V63.52ZM126.552 66.016C126.888 64.368 128.216 63.328 130.024 63.328C132.2 63.328 133.432 64.608 133.432 66.88V70.288C133.432 70.64 133.592 70.816 133.944 70.816H134.296V72H133.72C132.856 72 132.104 71.728 132.104 70.688C131.736 71.472 130.808 72.192 129.464 72.192C127.768 72.192 126.408 71.296 126.408 69.776C126.408 68.032 127.72 67.584 129.608 67.232L132.088 66.736C132.072 65.312 131.384 64.608 130.024 64.608C128.952 64.608 128.232 65.152 127.976 66.128L126.552 66.016ZM127.816 69.776C127.816 70.448 128.392 71.008 129.64 71.008C131.016 70.992 132.12 70.032 132.12 68.048V67.936L130.12 68.288C128.856 68.512 127.816 68.592 127.816 69.776ZM136.014 74.4V63.52H137.23L137.278 64.784C137.742 63.84 138.654 63.328 139.886 63.328C142.414 63.328 143.55 65.424 143.55 67.76C143.55 70.096 142.414 72.192 139.886 72.192C138.702 72.192 137.838 71.728 137.358 70.848V74.4H136.014ZM137.214 67.76C137.214 69.344 137.934 70.912 139.662 70.912C141.406 70.912 142.11 69.376 142.11 67.76C142.11 66.144 141.406 64.608 139.662 64.608C137.934 64.608 137.214 66.176 137.214 67.76ZM152.036 63.52V64.704H148.981V72H147.621V64.704H144.565V63.52H152.036ZM153.133 63.52H154.573L157.117 70.56L159.597 63.52H161.021L157.581 73.072C157.261 73.984 156.653 74.4 155.693 74.4H154.589V73.216H155.565C155.981 73.216 156.221 73.04 156.381 72.624L156.685 71.84H156.237L153.133 63.52ZM173.263 63.52V72H171.919V65.696L168.319 72H166.655V63.52H167.999V69.952L171.679 63.52H173.263ZM184.067 63.52V72H182.723V64.704H179.091L178.563 69.648C178.403 71.216 177.731 72 176.483 72H175.507V70.656H176.291C176.819 70.656 177.139 70.256 177.219 69.504L177.859 63.52H184.067ZM193.232 63.52V72H191.888V65.696L188.288 72H186.624V63.52H187.968V69.952L191.648 63.52H193.232ZM199.796 63.52H201.14V67.184H205.14V63.52H206.484V72H205.14V68.368H201.14V72H199.796V63.52ZM208.662 66.016C208.998 64.368 210.326 63.328 212.134 63.328C214.31 63.328 215.542 64.608 215.542 66.88V70.288C215.542 70.64 215.702 70.816 216.054 70.816H216.406V72H215.83C214.966 72 214.214 71.728 214.214 70.688C213.846 71.472 212.918 72.192 211.574 72.192C209.878 72.192 208.518 71.296 208.518 69.776C208.518 68.032 209.83 67.584 211.718 67.232L214.198 66.736C214.182 65.312 213.494 64.608 212.134 64.608C211.062 64.608 210.342 65.152 210.086 66.128L208.662 66.016ZM209.926 69.776C209.926 70.448 210.502 71.008 211.75 71.008C213.126 70.992 214.23 70.032 214.23 68.048V67.936L212.23 68.288C210.966 68.512 209.926 68.592 209.926 69.776ZM227.721 66.368C227.545 65.264 226.617 64.608 225.609 64.608C224.041 64.608 223.129 65.792 223.129 67.76C223.129 69.728 224.041 70.912 225.609 70.912C226.665 70.912 227.593 70.208 227.785 68.992L229.209 69.088C228.937 71.008 227.401 72.192 225.609 72.192C223.241 72.192 221.721 70.448 221.721 67.76C221.721 65.072 223.241 63.328 225.609 63.328C227.337 63.328 228.905 64.448 229.129 66.272L227.721 66.368ZM237.977 72H236.633V67.888C236.233 68.832 235.273 69.472 234.137 69.472C232.169 69.472 230.921 68.048 230.921 65.792V63.52H232.265V65.792C232.265 67.264 233.001 68.192 234.137 68.192C235.673 68.192 236.633 67.264 236.633 65.776V63.52H237.977V72ZM239.768 67.76C239.768 65.072 241.288 63.328 243.656 63.328C245.528 63.328 247.192 64.56 247.32 67.568L247.336 68.176H241.192C241.32 69.904 242.2 70.912 243.656 70.912C244.552 70.912 245.384 70.384 245.768 69.488L247.208 69.6C246.712 71.2 245.272 72.192 243.656 72.192C241.288 72.192 239.768 70.448 239.768 67.76ZM241.224 66.992H245.864C245.64 65.216 244.68 64.608 243.656 64.608C242.312 64.608 241.448 65.488 241.224 66.992ZM255.833 63.52V64.704H252.777V72H251.417V64.704H248.361V63.52H255.833ZM31.776 80.64C34.16 80.64 35.648 81.968 35.648 84.08C35.648 85.408 34.736 86.416 33.728 86.704C34.832 86.88 35.328 87.456 35.44 88.656L35.76 92H34.368L34.08 88.8C33.984 87.76 33.296 87.424 31.632 87.424H28.848V92H27.472V80.64H31.776ZM28.848 86.08H31.776C33.328 86.08 34.208 85.36 34.208 84.048C34.208 82.736 33.344 81.984 31.776 81.984H28.848V86.08ZM37.2676 87.76C37.2676 85.072 38.7876 83.328 41.1556 83.328C43.0276 83.328 44.6916 84.56 44.8196 87.568L44.8356 88.176H38.6916C38.8196 89.904 39.6996 90.912 41.1556 90.912C42.0516 90.912 42.8836 90.384 43.2676 89.488L44.7076 89.6C44.2116 91.2 42.7716 92.192 41.1556 92.192C38.7876 92.192 37.2676 90.448 37.2676 87.76ZM38.7236 86.992H43.3636C43.1396 85.216 42.1796 84.608 41.1556 84.608C39.8116 84.608 38.9476 85.488 38.7236 86.992ZM46.8738 80.64H48.2178V90.288C48.2178 90.64 48.3938 90.816 48.7458 90.816H49.4818V92H48.5378C47.5458 92 46.8738 91.328 46.8738 90.352V80.64ZM51.405 83.52H52.749V92H51.405V83.52ZM51.373 82.192V80.656H52.781V82.192H51.373ZM54.9273 86.016C55.2633 84.368 56.5913 83.328 58.3993 83.328C60.5753 83.328 61.8073 84.608 61.8073 86.88V90.288C61.8073 90.64 61.9673 90.816 62.3193 90.816H62.6713V92H62.0953C61.2313 92 60.4793 91.728 60.4793 90.688C60.1113 91.472 59.1833 92.192 57.8393 92.192C56.1432 92.192 54.7833 91.296 54.7833 89.776C54.7833 88.032 56.0953 87.584 57.9833 87.232L60.4633 86.736C60.4473 85.312 59.7593 84.608 58.3993 84.608C57.3273 84.608 56.6073 85.152 56.3513 86.128L54.9273 86.016ZM56.1913 89.776C56.1913 90.448 56.7673 91.008 58.0153 91.008C59.3913 90.992 60.4953 90.032 60.4953 88.048V87.936L58.4953 88.288C57.2313 88.512 56.1913 88.592 56.1913 89.776ZM64.3894 83.52H65.6214L65.6534 84.992C66.0854 83.84 67.0934 83.328 68.2614 83.328C70.1974 83.328 71.1254 84.752 71.1254 86.544V92H69.7814V86.928C69.7814 85.36 69.2534 84.512 67.9734 84.512C66.6294 84.512 65.7334 85.36 65.7334 86.928V92H64.3894V83.52ZM78.9239 86.368C78.7479 85.264 77.8199 84.608 76.8119 84.608C75.2439 84.608 74.3319 85.792 74.3319 87.76C74.3319 89.728 75.2439 90.912 76.8119 90.912C77.8679 90.912 78.7959 90.208 78.9879 88.992L80.4119 89.088C80.1399 91.008 78.6039 92.192 76.8119 92.192C74.4439 92.192 72.9239 90.448 72.9239 87.76C72.9239 85.072 74.4439 83.328 76.8119 83.328C78.5399 83.328 80.1079 84.448 80.3319 86.272L78.9239 86.368ZM81.752 87.76C81.752 85.072 83.272 83.328 85.64 83.328C87.512 83.328 89.176 84.56 89.304 87.568L89.32 88.176H83.176C83.304 89.904 84.184 90.912 85.64 90.912C86.536 90.912 87.368 90.384 87.752 89.488L89.192 89.6C88.696 91.2 87.256 92.192 85.64 92.192C83.272 92.192 81.752 90.448 81.752 87.76ZM83.208 86.992H87.848C87.624 85.216 86.664 84.608 85.64 84.608C84.296 84.608 83.432 85.488 83.208 86.992ZM96.3341 88.224C96.3021 89.84 97.3741 90.976 98.9261 90.976C100.43 90.976 101.502 89.84 101.502 88.224C101.502 86.656 100.478 85.536 99.0381 85.536C97.4701 85.536 96.3501 86.656 96.3341 88.224ZM94.8621 86.992C94.8621 83.904 95.6781 82.528 97.7901 81.616C98.8781 81.136 99.1981 80.752 99.1981 79.84L100.574 79.824C100.574 81.072 100.142 81.968 98.8141 82.592C97.4541 83.248 96.3501 83.6 96.2541 85.904C96.8621 84.848 97.8861 84.256 99.1341 84.256C101.39 84.256 102.91 85.888 102.91 88.224C102.91 90.704 101.246 92.256 98.8941 92.256C97.9021 92.256 96.8941 91.904 96.0781 91.024C95.2621 90.208 94.8621 88.752 94.8621 86.992ZM104.662 86.016C104.998 84.368 106.326 83.328 108.134 83.328C110.31 83.328 111.542 84.608 111.542 86.88V90.288C111.542 90.64 111.702 90.816 112.054 90.816H112.406V92H111.83C110.966 92 110.214 91.728 110.214 90.688C109.846 91.472 108.918 92.192 107.574 92.192C105.878 92.192 104.518 91.296 104.518 89.776C104.518 88.032 105.83 87.584 107.718 87.232L110.198 86.736C110.182 85.312 109.494 84.608 108.134 84.608C107.062 84.608 106.342 85.152 106.086 86.128L104.662 86.016ZM105.926 89.776C105.926 90.448 106.502 91.008 107.75 91.008C109.126 90.992 110.23 90.032 110.23 88.048V87.936L108.23 88.288C106.966 88.512 105.926 88.592 105.926 89.776ZM114.124 83.52H115.468V87.184H119.468V83.52H120.812V92H119.468V88.368H115.468V92H114.124V83.52ZM123.374 83.52H124.75V87.648L128.734 83.52H130.622L126.446 87.76L130.814 92H128.894L124.75 87.872V92H123.374V83.52ZM132.302 86.016C132.638 84.368 133.966 83.328 135.774 83.328C137.95 83.328 139.182 84.608 139.182 86.88V90.288C139.182 90.64 139.342 90.816 139.694 90.816H140.046V92H139.47C138.606 92 137.854 91.728 137.854 90.688C137.486 91.472 136.558 92.192 135.214 92.192C133.518 92.192 132.158 91.296 132.158 89.776C132.158 88.032 133.47 87.584 135.358 87.232L137.838 86.736C137.822 85.312 137.134 84.608 135.774 84.608C134.702 84.608 133.982 85.152 133.726 86.128L132.302 86.016ZM133.566 89.776C133.566 90.448 134.142 91.008 135.39 91.008C136.766 90.992 137.87 90.032 137.87 88.048V87.936L135.87 88.288C134.606 88.512 133.566 88.592 133.566 89.776Z" fill="white"/>
<rect x="354" y="194" width="64" height="64" rx="4" fill="white"/>
<mask id="mask0_80_445" style="mask-type:alpha" maskUnits="userSpaceOnUse" x="370" y="214" width="32" height="24">
<path fill-rule="evenodd" clip-rule="evenodd" d="M370.25 220.75C370.25 217.436 372.936 214.75 376.25 214.75H395L389 237.25H370.25V220.75ZM377 229.75C375.343 229.75 374 231.093 374 232.75H379.25C380.907 232.75 382.25 231.407 382.25 229.75H377Z" fill="black"/>
<path d="M395 214.75H401.75V231.25C401.75 234.564 399.064 237.25 395.75 237.25H389L395 214.75Z" fill="url(#paint0_linear_80_445)"/>
</mask>
<g mask="url(#mask0_80_445)">
<path d="M404 208H368V244H404V208Z" fill="#336FEE"/>
</g>
<defs>
<linearGradient id="paint0_linear_80_445" x1="389.75" y1="217" x2="402.088" y2="237.392" gradientUnits="userSpaceOnUse">
<stop stop-opacity="0.5"/>
<stop offset="1" stop-opacity="0.3"/>
</linearGradient>
</defs>
</svg>
