<svg width="457" height="300" viewBox="0 0 457 300" fill="none" xmlns="http://www.w3.org/2000/svg">
<rect width="457" height="300" rx="24" fill="#4B82D2"/>
<path d="M35.34 44.34C32.4067 44.34 30.2467 43.7467 28.86 42.56C27.4867 41.36 26.8 39.4933 26.8 36.96C26.8 34.4933 27.5 32.6733 28.9 31.5C30.3133 30.3133 32.5 29.72 35.46 29.72C40.5133 29.72 43.2333 31.6067 43.62 35.38H40.22C40.1 34.38 39.6533 33.66 38.88 33.22C38.1067 32.7667 36.9667 32.54 35.46 32.54C33.58 32.54 32.24 32.88 31.44 33.56C30.64 34.24 30.24 35.38 30.24 36.98C30.24 38.5933 30.6333 39.7533 31.42 40.46C32.1933 41.1533 33.5067 41.5 35.36 41.5C38.5333 41.5 40.2 40.42 40.36 38.26H43.78C43.62 40.26 42.82 41.7733 41.38 42.8C39.9533 43.8267 37.94 44.34 35.34 44.34ZM53.7761 37.2V33.46H57.1361V44H53.7761V39.86H49.0761V44H45.7161V33.46H49.0761V37.2H53.7761ZM64.5833 33.46H70.8033V44H67.5433V41.12H66.2833L62.8633 44H58.7633L62.5233 40.92C60.3366 40.4533 59.2433 39.24 59.2433 37.28C59.2433 36.0267 59.6966 35.08 60.6033 34.44C61.5099 33.7867 62.8366 33.46 64.5833 33.46ZM67.5433 36.02H64.5033C63.1699 36.02 62.5033 36.44 62.5033 37.28C62.5033 38.12 63.1699 38.54 64.5033 38.54H67.5433V36.02ZM79.6561 44H76.2961V36.1H72.4761V33.46H83.5161V36.1H79.6561V44ZM93.3283 33.46H97.8483V44H94.4883V36.48H94.1083L89.7483 44H85.2083V33.46H88.5683V40.96H88.9083L93.3283 33.46ZM112.986 38.68V39.5H103.206C103.313 40.38 103.62 41 104.126 41.36C104.633 41.72 105.433 41.9 106.526 41.9C108.406 41.9 109.433 41.4933 109.606 40.68H112.786C112.56 43.12 110.453 44.34 106.466 44.34C104.186 44.34 102.513 43.88 101.446 42.96C100.38 42.04 99.8464 40.6 99.8464 38.64C99.8464 36.7467 100.373 35.3533 101.426 34.46C102.493 33.5667 104.16 33.12 106.426 33.12C108.693 33.12 110.353 33.56 111.406 34.44C112.46 35.3067 112.986 36.72 112.986 38.68ZM106.446 35.56C105.406 35.56 104.64 35.7133 104.146 36.02C103.666 36.3267 103.366 36.8533 103.246 37.6H109.606C109.58 36.88 109.313 36.36 108.806 36.04C108.313 35.72 107.526 35.56 106.446 35.56ZM129.147 37.2V33.46H132.507V44H129.147V39.86H124.447V44H121.087V33.46H124.447V37.2H129.147ZM140.294 33.12C142.241 33.12 143.674 33.4733 144.594 34.18C145.528 34.8733 145.994 35.96 145.994 37.44V44H142.614V42.32C141.788 43.6667 140.474 44.34 138.674 44.34C137.248 44.34 136.168 44.0667 135.434 43.52C134.714 42.96 134.354 42.1533 134.354 41.1C134.354 38.82 136.134 37.68 139.694 37.68C140.814 37.68 141.788 37.78 142.614 37.98V37.44C142.614 36.8133 142.428 36.36 142.054 36.08C141.681 35.7867 141.094 35.64 140.294 35.64C138.881 35.64 138.121 36 138.014 36.72H134.934C135.054 34.32 136.841 33.12 140.294 33.12ZM139.774 41.98C140.641 41.98 141.328 41.8 141.834 41.44C142.341 41.0667 142.601 40.54 142.614 39.86V39.82C141.908 39.6467 141.021 39.56 139.954 39.56C138.328 39.56 137.514 39.9533 137.514 40.74C137.514 41.5667 138.268 41.98 139.774 41.98ZM149.733 33.46H160.033V44H156.673V36.1H153.133V37.5C153.133 39.82 152.659 41.54 151.713 42.66C150.766 43.78 149.313 44.34 147.353 44.34V41.68C148.193 41.5733 148.799 41.2 149.173 40.56C149.546 39.9067 149.733 38.8867 149.733 37.5V33.46ZM170.594 33.46H175.114V44H171.754V36.48H171.374L167.014 44H162.474V33.46H165.834V40.96H166.174L170.594 33.46ZM184.892 38V33.46H188.252V44H184.892V40.3C184.079 40.98 182.832 41.32 181.152 41.32C178.459 41.32 177.112 40.06 177.112 37.54V33.46H180.472V37.4C180.472 37.8533 180.625 38.18 180.932 38.38C181.239 38.58 181.712 38.68 182.352 38.68C183.432 38.68 184.279 38.4533 184.892 38ZM198.737 37.2V33.46H202.097V44H198.737V39.86H194.037V44H190.677V33.46H194.037V37.2H198.737ZM204.544 44V33.46H207.904V36.56H210.404C213.911 36.56 215.664 37.7867 215.664 40.24C215.664 42.7467 213.911 44 210.404 44H204.544ZM220.744 44H217.384V33.46H220.744V44ZM210.404 39.1H207.904V41.48H210.404C211.738 41.48 212.404 41.0733 212.404 40.26C212.404 39.4867 211.738 39.1 210.404 39.1ZM235.099 44H231.559L229.639 39.86H227.879L225.939 44H222.399L224.919 38.6L222.539 33.46H226.059L227.799 37.2H229.679L231.439 33.46H234.959L232.579 38.6L235.099 44Z" fill="white"/>
<path opacity="0.9" d="M27.472 72V60.64H31.376C34.064 60.64 35.408 61.68 35.408 63.792C35.408 65.056 34.656 65.904 33.408 66.128C34.96 66.336 35.888 67.312 35.888 68.784C35.888 70.848 34.496 72 32.016 72H27.472ZM28.848 70.656H32.016C33.568 70.656 34.448 69.984 34.448 68.784C34.448 67.584 33.568 66.896 32.016 66.896H28.848V70.656ZM28.848 65.552H31.376C33.04 65.552 33.968 64.928 33.968 63.792C33.968 62.592 33.104 61.984 31.376 61.984H28.848V65.552ZM43.131 68.224C43.099 69.84 44.171 70.976 45.723 70.976C47.227 70.976 48.299 69.84 48.299 68.224C48.299 66.656 47.275 65.536 45.835 65.536C44.267 65.536 43.147 66.656 43.131 68.224ZM41.659 66.992C41.659 63.904 42.475 62.528 44.587 61.616C45.675 61.136 45.995 60.752 45.995 59.84L47.371 59.824C47.371 61.072 46.939 61.968 45.611 62.592C44.251 63.248 43.147 63.6 43.051 65.904C43.659 64.848 44.683 64.256 45.931 64.256C48.187 64.256 49.707 65.888 49.707 68.224C49.707 70.704 48.043 72.256 45.691 72.256C44.699 72.256 43.691 71.904 42.875 71.024C42.059 70.208 41.659 68.752 41.659 66.992ZM51.4585 66.016C51.7945 64.368 53.1225 63.328 54.9305 63.328C57.1065 63.328 58.3385 64.608 58.3385 66.88V70.288C58.3385 70.64 58.4985 70.816 58.8505 70.816H59.2025V72H58.6265C57.7625 72 57.0105 71.728 57.0105 70.688C56.6425 71.472 55.7145 72.192 54.3705 72.192C52.6745 72.192 51.3145 71.296 51.3145 69.776C51.3145 68.032 52.6265 67.584 54.5145 67.232L56.9945 66.736C56.9785 65.312 56.2905 64.608 54.9305 64.608C53.8585 64.608 53.1385 65.152 52.8825 66.128L51.4585 66.016ZM52.7225 69.776C52.7225 70.448 53.2985 71.008 54.5465 71.008C55.9225 70.992 57.0265 70.032 57.0265 68.048V67.936L55.0265 68.288C53.7625 68.512 52.7225 68.592 52.7225 69.776ZM60.9206 63.52H62.2646V67.184H66.2646V63.52H67.6086V72H66.2646V68.368H62.2646V72H60.9206V63.52ZM70.1706 63.52H71.5466V67.648L75.5306 63.52H77.4186L73.2426 67.76L77.6106 72H75.6906L71.5466 67.872V72H70.1706V63.52ZM82.2025 72.192C79.8505 72.192 78.3145 70.464 78.3145 67.76C78.3145 65.056 79.8505 63.328 82.2025 63.328C84.5385 63.328 86.0745 65.056 86.0745 67.76C86.0745 70.464 84.5385 72.192 82.2025 72.192ZM79.7225 67.76C79.7225 69.728 80.6345 70.912 82.2025 70.912C83.7545 70.912 84.6665 69.728 84.6665 67.76C84.6665 65.792 83.7545 64.608 82.2025 64.608C80.6345 64.608 79.7225 65.792 79.7225 67.76ZM88.03 63.52H89.886L92.51 70.592L95.118 63.52H96.958V72H95.614V66.016L93.342 72H91.662L89.374 66.016V72H88.03V63.52ZM99.1304 66.016C99.4664 64.368 100.794 63.328 102.602 63.328C104.778 63.328 106.01 64.608 106.01 66.88V70.288C106.01 70.64 106.17 70.816 106.522 70.816H106.874V72H106.298C105.434 72 104.682 71.728 104.682 70.688C104.314 71.472 103.386 72.192 102.042 72.192C100.346 72.192 98.9864 71.296 98.9864 69.776C98.9864 68.032 100.298 67.584 102.186 67.232L104.666 66.736C104.65 65.312 103.962 64.608 102.602 64.608C101.53 64.608 100.81 65.152 100.554 66.128L99.1304 66.016ZM100.394 69.776C100.394 70.448 100.97 71.008 102.218 71.008C103.594 70.992 104.698 70.032 104.698 68.048V67.936L102.698 68.288C101.434 68.512 100.394 68.592 100.394 69.776ZM114.865 63.52V64.704H111.809V72H110.449V64.704H107.393V63.52H114.865ZM116.193 66.016C116.529 64.368 117.857 63.328 119.665 63.328C121.841 63.328 123.073 64.608 123.073 66.88V70.288C123.073 70.64 123.233 70.816 123.585 70.816H123.937V72H123.361C122.497 72 121.745 71.728 121.745 70.688C121.377 71.472 120.449 72.192 119.105 72.192C117.409 72.192 116.049 71.296 116.049 69.776C116.049 68.032 117.361 67.584 119.249 67.232L121.729 66.736C121.713 65.312 121.025 64.608 119.665 64.608C118.593 64.608 117.873 65.152 117.617 66.128L116.193 66.016ZM117.457 69.776C117.457 70.448 118.033 71.008 119.281 71.008C120.657 70.992 121.761 70.032 121.761 68.048V67.936L119.761 68.288C118.497 68.512 117.457 68.592 117.457 69.776ZM131.316 63.52H132.964L130.036 67.664L133.108 72H131.476L129.188 68.704L126.9 72H125.252L128.356 67.648L125.412 63.52H127.06L129.188 66.624L131.316 63.52ZM143.635 60.64C146.019 60.64 147.507 61.968 147.507 64.08C147.507 65.408 146.595 66.416 145.587 66.704C146.691 66.88 147.187 67.456 147.299 68.656L147.619 72H146.227L145.939 68.8C145.843 67.76 145.155 67.424 143.491 67.424H140.707V72H139.331V60.64H143.635ZM140.707 66.08H143.635C145.187 66.08 146.067 65.36 146.067 64.048C146.067 62.736 145.203 61.984 143.635 61.984H140.707V66.08ZM149.127 67.76C149.127 65.072 150.647 63.328 153.015 63.328C154.887 63.328 156.551 64.56 156.679 67.568L156.695 68.176H150.551C150.679 69.904 151.559 70.912 153.015 70.912C153.911 70.912 154.743 70.384 155.127 69.488L156.567 69.6C156.071 71.2 154.631 72.192 153.015 72.192C150.647 72.192 149.127 70.448 149.127 67.76ZM150.583 66.992H155.223C154.999 65.216 154.039 64.608 153.015 64.608C151.671 64.608 150.807 65.488 150.583 66.992ZM158.733 60.64H160.077V70.288C160.077 70.64 160.253 70.816 160.605 70.816H161.341V72H160.397C159.405 72 158.733 71.328 158.733 70.352V60.64ZM163.264 63.52H164.608V72H163.264V63.52ZM163.232 62.192V60.656H164.64V62.192H163.232ZM166.787 66.016C167.123 64.368 168.451 63.328 170.259 63.328C172.435 63.328 173.667 64.608 173.667 66.88V70.288C173.667 70.64 173.827 70.816 174.179 70.816H174.531V72H173.955C173.091 72 172.339 71.728 172.339 70.688C171.971 71.472 171.043 72.192 169.699 72.192C168.003 72.192 166.643 71.296 166.643 69.776C166.643 68.032 167.955 67.584 169.843 67.232L172.323 66.736C172.307 65.312 171.619 64.608 170.259 64.608C169.187 64.608 168.467 65.152 168.211 66.128L166.787 66.016ZM168.051 69.776C168.051 70.448 168.627 71.008 169.875 71.008C171.251 70.992 172.355 70.032 172.355 68.048V67.936L170.355 68.288C169.091 68.512 168.051 68.592 168.051 69.776ZM176.249 63.52H177.481L177.513 64.992C177.945 63.84 178.953 63.328 180.121 63.328C182.057 63.328 182.985 64.752 182.985 66.544V72H181.641V66.928C181.641 65.36 181.113 64.512 179.833 64.512C178.489 64.512 177.593 65.36 177.593 66.928V72H176.249V63.52ZM190.783 66.368C190.607 65.264 189.679 64.608 188.671 64.608C187.103 64.608 186.191 65.792 186.191 67.76C186.191 69.728 187.103 70.912 188.671 70.912C189.727 70.912 190.655 70.208 190.847 68.992L192.271 69.088C191.999 71.008 190.463 72.192 188.671 72.192C186.303 72.192 184.783 70.448 184.783 67.76C184.783 65.072 186.303 63.328 188.671 63.328C190.399 63.328 191.967 64.448 192.191 66.272L190.783 66.368ZM193.611 67.76C193.611 65.072 195.131 63.328 197.499 63.328C199.371 63.328 201.035 64.56 201.163 67.568L201.179 68.176H195.035C195.163 69.904 196.043 70.912 197.499 70.912C198.395 70.912 199.227 70.384 199.611 69.488L201.051 69.6C200.555 71.2 199.115 72.192 197.499 72.192C195.131 72.192 193.611 70.448 193.611 67.76ZM195.067 66.992H199.707C199.483 65.216 198.523 64.608 197.499 64.608C196.155 64.608 195.291 65.488 195.067 66.992ZM208.194 68.224C208.162 69.84 209.234 70.976 210.786 70.976C212.29 70.976 213.362 69.84 213.362 68.224C213.362 66.656 212.338 65.536 210.898 65.536C209.33 65.536 208.21 66.656 208.194 68.224ZM206.722 66.992C206.722 63.904 207.538 62.528 209.65 61.616C210.738 61.136 211.058 60.752 211.058 59.84L212.434 59.824C212.434 61.072 212.002 61.968 210.674 62.592C209.314 63.248 208.21 63.6 208.114 65.904C208.722 64.848 209.746 64.256 210.994 64.256C213.25 64.256 214.77 65.888 214.77 68.224C214.77 70.704 213.106 72.256 210.754 72.256C209.762 72.256 208.754 71.904 207.938 71.024C207.122 70.208 206.722 68.752 206.722 66.992ZM216.521 66.016C216.857 64.368 218.185 63.328 219.993 63.328C222.169 63.328 223.401 64.608 223.401 66.88V70.288C223.401 70.64 223.561 70.816 223.913 70.816H224.265V72H223.689C222.825 72 222.073 71.728 222.073 70.688C221.705 71.472 220.777 72.192 219.433 72.192C217.737 72.192 216.377 71.296 216.377 69.776C216.377 68.032 217.689 67.584 219.577 67.232L222.057 66.736C222.041 65.312 221.353 64.608 219.993 64.608C218.921 64.608 218.201 65.152 217.945 66.128L216.521 66.016ZM217.785 69.776C217.785 70.448 218.361 71.008 219.609 71.008C220.985 70.992 222.089 70.032 222.089 68.048V67.936L220.089 68.288C218.825 68.512 217.785 68.592 217.785 69.776ZM225.983 63.52H227.327V67.184H231.327V63.52H232.671V72H231.327V68.368H227.327V72H225.983V63.52ZM235.233 63.52H236.609V67.648L240.593 63.52H242.481L238.305 67.76L242.673 72H240.753L236.609 67.872V72H235.233V63.52ZM244.162 66.016C244.498 64.368 245.826 63.328 247.634 63.328C249.81 63.328 251.042 64.608 251.042 66.88V70.288C251.042 70.64 251.202 70.816 251.554 70.816H251.906V72H251.33C250.466 72 249.714 71.728 249.714 70.688C249.346 71.472 248.418 72.192 247.074 72.192C245.378 72.192 244.018 71.296 244.018 69.776C244.018 68.032 245.33 67.584 247.218 67.232L249.698 66.736C249.682 65.312 248.994 64.608 247.634 64.608C246.562 64.608 245.842 65.152 245.586 66.128L244.162 66.016ZM245.426 69.776C245.426 70.448 246.002 71.008 247.25 71.008C248.626 70.992 249.73 70.032 249.73 68.048V67.936L247.73 68.288C246.466 68.512 245.426 68.592 245.426 69.776ZM28.256 88.224C28.224 89.84 29.296 90.976 30.848 90.976C32.352 90.976 33.424 89.84 33.424 88.224C33.424 86.656 32.4 85.536 30.96 85.536C29.392 85.536 28.272 86.656 28.256 88.224ZM26.784 86.992C26.784 83.904 27.6 82.528 29.712 81.616C30.8 81.136 31.12 80.752 31.12 79.84L32.496 79.824C32.496 81.072 32.064 81.968 30.736 82.592C29.376 83.248 28.272 83.6 28.176 85.904C28.784 84.848 29.808 84.256 31.056 84.256C33.312 84.256 34.832 85.888 34.832 88.224C34.832 90.704 33.168 92.256 30.816 92.256C29.824 92.256 28.816 91.904 28 91.024C27.184 90.208 26.784 88.752 26.784 86.992ZM36.3614 87.76C36.3614 85.072 37.8814 83.328 40.2494 83.328C42.1214 83.328 43.7854 84.56 43.9134 87.568L43.9294 88.176H37.7854C37.9134 89.904 38.7934 90.912 40.2494 90.912C41.1454 90.912 41.9774 90.384 42.3614 89.488L43.8014 89.6C43.3054 91.2 41.8654 92.192 40.2494 92.192C37.8814 92.192 36.3614 90.448 36.3614 87.76ZM37.8174 86.992H42.4574C42.2334 85.216 41.2734 84.608 40.2494 84.608C38.9054 84.608 38.0414 85.488 37.8174 86.992ZM49.1355 86.896C50.1115 86.912 50.7515 86.448 50.7515 85.712C50.7515 85.04 50.0635 84.608 48.9755 84.608C47.9835 84.608 47.3275 85.008 47.2475 85.616L45.7915 85.536C45.9515 84.176 47.1835 83.328 48.9755 83.328C50.9275 83.328 52.1595 84.24 52.1595 85.712C52.1595 86.512 51.5195 87.152 50.4635 87.44C51.6955 87.792 52.4475 88.64 52.4475 89.696C52.4475 91.232 51.1035 92.192 48.9755 92.192C46.9115 92.192 45.5675 91.2 45.4875 89.632L46.8955 89.568C46.9595 90.384 47.7595 90.912 48.9755 90.912C50.2395 90.912 51.0395 90.416 51.0395 89.616C51.0395 88.688 50.2875 88.128 49.1355 88.144L48.2555 88.16V86.88L49.1355 86.896ZM58.53 83.52H59.906V87.648L63.89 83.52H65.778L61.602 87.76L65.97 92H64.05L59.906 87.872V92H58.53V83.52ZM70.5619 92.192C68.2099 92.192 66.6739 90.464 66.6739 87.76C66.6739 85.056 68.2099 83.328 70.5619 83.328C72.8979 83.328 74.4339 85.056 74.4339 87.76C74.4339 90.464 72.8979 92.192 70.5619 92.192ZM68.0819 87.76C68.0819 89.728 68.9939 90.912 70.5619 90.912C72.1139 90.912 73.0259 89.728 73.0259 87.76C73.0259 85.792 72.1139 84.608 70.5619 84.608C68.9939 84.608 68.0819 85.792 68.0819 87.76ZM76.3894 83.52H78.2454L80.8694 90.592L83.4774 83.52H85.3174V92H83.9734V86.016L81.7014 92H80.0214L77.7334 86.016V92H76.3894V83.52ZM94.4818 83.52V92H93.1378V85.696L89.5378 92H87.8738V83.52H89.2178V89.952L92.8978 83.52H94.4818ZM102.283 86.368C102.107 85.264 101.179 84.608 100.171 84.608C98.6033 84.608 97.6913 85.792 97.6913 87.76C97.6913 89.728 98.6033 90.912 100.171 90.912C101.227 90.912 102.155 90.208 102.347 88.992L103.771 89.088C103.499 91.008 101.963 92.192 100.171 92.192C97.8033 92.192 96.2833 90.448 96.2833 87.76C96.2833 85.072 97.8033 83.328 100.171 83.328C101.899 83.328 103.467 84.448 103.691 86.272L102.283 86.368ZM111.111 86.368C110.935 85.264 110.007 84.608 108.999 84.608C107.431 84.608 106.519 85.792 106.519 87.76C106.519 89.728 107.431 90.912 108.999 90.912C110.055 90.912 110.983 90.208 111.175 88.992L112.599 89.088C112.327 91.008 110.791 92.192 108.999 92.192C106.631 92.192 105.111 90.448 105.111 87.76C105.111 85.072 106.631 83.328 108.999 83.328C110.727 83.328 112.295 84.448 112.519 86.272L111.111 86.368ZM120.997 83.52V92H119.653V85.696L116.053 92H114.389V83.52H115.733V89.952L119.413 83.52H120.997ZM130.169 83.52V92H128.825V85.696L125.225 92H123.561V83.52H124.905V89.952L128.585 83.52H130.169ZM132.205 90.256H133.917V92H132.205V90.256ZM149.008 80.64V92H147.632V82.432L142.144 92H140.144V80.64H141.52V90.368L147.088 80.64H149.008ZM156.74 88.224C156.708 89.84 157.78 90.976 159.332 90.976C160.836 90.976 161.908 89.84 161.908 88.224C161.908 86.656 160.884 85.536 159.444 85.536C157.876 85.536 156.756 86.656 156.74 88.224ZM155.268 86.992C155.268 83.904 156.084 82.528 158.196 81.616C159.284 81.136 159.604 80.752 159.604 79.84L160.98 79.824C160.98 81.072 160.548 81.968 159.22 82.592C157.86 83.248 156.756 83.6 156.66 85.904C157.268 84.848 158.292 84.256 159.54 84.256C161.796 84.256 163.316 85.888 163.316 88.224C163.316 90.704 161.652 92.256 159.3 92.256C158.308 92.256 157.3 91.904 156.484 91.024C155.668 90.208 155.268 88.752 155.268 86.992ZM164.846 87.76C164.846 85.072 166.366 83.328 168.734 83.328C170.606 83.328 172.27 84.56 172.398 87.568L172.414 88.176H166.27C166.398 89.904 167.278 90.912 168.734 90.912C169.63 90.912 170.462 90.384 170.846 89.488L172.286 89.6C171.79 91.2 170.35 92.192 168.734 92.192C166.366 92.192 164.846 90.448 164.846 87.76ZM166.302 86.992H170.942C170.718 85.216 169.758 84.608 168.734 84.608C167.39 84.608 166.526 85.488 166.302 86.992ZM177.62 86.896C178.596 86.912 179.236 86.448 179.236 85.712C179.236 85.04 178.548 84.608 177.46 84.608C176.468 84.608 175.812 85.008 175.732 85.616L174.276 85.536C174.436 84.176 175.668 83.328 177.46 83.328C179.412 83.328 180.644 84.24 180.644 85.712C180.644 86.512 180.004 87.152 178.948 87.44C180.18 87.792 180.932 88.64 180.932 89.696C180.932 91.232 179.588 92.192 177.46 92.192C175.396 92.192 174.052 91.2 173.972 89.632L175.38 89.568C175.444 90.384 176.244 90.912 177.46 90.912C178.724 90.912 179.524 90.416 179.524 89.616C179.524 88.688 178.772 88.128 177.62 88.144L176.74 88.16V86.88L177.62 86.896ZM187.014 83.52H188.39V87.648L192.374 83.52H194.262L190.086 87.76L194.454 92H192.534L188.39 87.872V92H187.014V83.52ZM195.943 86.016C196.279 84.368 197.607 83.328 199.415 83.328C201.591 83.328 202.823 84.608 202.823 86.88V90.288C202.823 90.64 202.983 90.816 203.335 90.816H203.687V92H203.111C202.247 92 201.495 91.728 201.495 90.688C201.127 91.472 200.199 92.192 198.855 92.192C197.159 92.192 195.799 91.296 195.799 89.776C195.799 88.032 197.111 87.584 198.999 87.232L201.479 86.736C201.463 85.312 200.775 84.608 199.415 84.608C198.343 84.608 197.623 85.152 197.367 86.128L195.943 86.016ZM197.207 89.776C197.207 90.448 197.783 91.008 199.031 91.008C200.407 90.992 201.511 90.032 201.511 88.048V87.936L199.511 88.288C198.247 88.512 197.207 88.592 197.207 89.776ZM205.405 94.4V83.52H206.621L206.669 84.784C207.133 83.84 208.045 83.328 209.277 83.328C211.805 83.328 212.941 85.424 212.941 87.76C212.941 90.096 211.805 92.192 209.277 92.192C208.093 92.192 207.229 91.728 206.749 90.848V94.4H205.405ZM206.605 87.76C206.605 89.344 207.325 90.912 209.053 90.912C210.797 90.912 211.501 89.376 211.501 87.76C211.501 86.144 210.797 84.608 209.053 84.608C207.325 84.608 206.605 86.176 206.605 87.76ZM221.427 83.52V84.704H218.371V92H217.011V84.704H213.955V83.52H221.427ZM222.983 92V83.52H224.327V86.64H226.567C228.951 86.64 230.279 87.6 230.279 89.328C230.279 91.04 228.951 92 226.567 92H222.983ZM224.327 90.8H226.567C228.103 90.8 228.871 90.32 228.871 89.328C228.871 88.32 228.103 87.824 226.567 87.824H224.327V90.8ZM231.783 92V83.52H233.127V92H231.783ZM236.886 92L235.974 94.464H235.19L235.814 92H235.158V90.256H236.87V92H236.886ZM26.752 107.76C26.752 105.072 28.272 103.328 30.64 103.328C32.512 103.328 34.176 104.56 34.304 107.568L34.32 108.176H28.176C28.304 109.904 29.184 110.912 30.64 110.912C31.536 110.912 32.368 110.384 32.752 109.488L34.192 109.6C33.696 111.2 32.256 112.192 30.64 112.192C28.272 112.192 26.752 110.448 26.752 107.76ZM28.208 106.992H32.848C32.624 105.216 31.664 104.608 30.64 104.608C29.296 104.608 28.432 105.488 28.208 106.992ZM41.8301 106.368C41.6541 105.264 40.7261 104.608 39.7181 104.608C38.1501 104.608 37.2381 105.792 37.2381 107.76C37.2381 109.728 38.1501 110.912 39.7181 110.912C40.7741 110.912 41.7021 110.208 41.8941 108.992L43.3181 109.088C43.0461 111.008 41.5101 112.192 39.7181 112.192C37.3501 112.192 35.8301 110.448 35.8301 107.76C35.8301 105.072 37.3501 103.328 39.7181 103.328C41.4461 103.328 43.0141 104.448 43.2381 106.272L41.8301 106.368ZM53.4263 103.52V112H52.0823V104.704H48.4503L47.9223 109.648C47.7623 111.216 47.0903 112 45.8423 112H44.8663V110.656H45.6503C46.1783 110.656 46.4983 110.256 46.5783 109.504L47.2183 103.52H53.4263ZM62.5911 103.52V112H61.2471V105.696L57.6471 112H55.9831V103.52H57.3271V109.952L61.0071 103.52H62.5911ZM68.227 103.52H69.667L72.211 110.56L74.691 103.52H76.115L72.675 113.072C72.355 113.984 71.747 114.4 70.787 114.4H69.683V113.216H70.659C71.075 113.216 71.315 113.04 71.475 112.624L71.779 111.84H71.331L68.227 103.52ZM81.7488 112V103.52H85.2688C87.2208 103.52 88.4688 104.432 88.4688 105.872C88.4688 106.816 87.7968 107.456 86.6608 107.616C88.0048 107.76 88.8208 108.512 88.8208 109.6C88.8208 111.072 87.6208 112 85.7328 112H81.7488ZM83.0928 110.816H85.7328C86.7408 110.816 87.3808 110.336 87.3808 109.6C87.3808 108.784 86.7408 108.288 85.7328 108.288H83.0928V110.816ZM83.0928 107.104H85.2688C86.3408 107.104 87.0288 106.624 87.0288 105.872C87.0288 105.152 86.3408 104.704 85.2688 104.704H83.0928V107.104ZM90.9116 106.016C91.2476 104.368 92.5756 103.328 94.3836 103.328C96.5596 103.328 97.7916 104.608 97.7916 106.88V110.288C97.7916 110.64 97.9516 110.816 98.3036 110.816H98.6556V112H98.0796C97.2156 112 96.4636 111.728 96.4636 110.688C96.0956 111.472 95.1676 112.192 93.8236 112.192C92.1276 112.192 90.7676 111.296 90.7676 109.776C90.7676 108.032 92.0796 107.584 93.9676 107.232L96.4476 106.736C96.4316 105.312 95.7436 104.608 94.3836 104.608C93.3116 104.608 92.5916 105.152 92.3356 106.128L90.9116 106.016ZM92.1756 109.776C92.1756 110.448 92.7516 111.008 93.9996 111.008C95.3756 110.992 96.4796 110.032 96.4796 108.048V107.936L94.4796 108.288C93.2156 108.512 92.1756 108.592 92.1756 109.776ZM105.815 106.368C105.639 105.264 104.711 104.608 103.703 104.608C102.135 104.608 101.223 105.792 101.223 107.76C101.223 109.728 102.135 110.912 103.703 110.912C104.759 110.912 105.687 110.208 105.879 108.992L107.303 109.088C107.031 111.008 105.495 112.192 103.703 112.192C101.335 112.192 99.8145 110.448 99.8145 107.76C99.8145 105.072 101.335 103.328 103.703 103.328C105.431 103.328 106.999 104.448 107.223 106.272L105.815 106.368ZM112.643 107.76C112.643 105.072 114.163 103.328 116.531 103.328C118.403 103.328 120.067 104.56 120.195 107.568L120.211 108.176H114.067C114.195 109.904 115.075 110.912 116.531 110.912C117.427 110.912 118.259 110.384 118.643 109.488L120.083 109.6C119.587 111.2 118.147 112.192 116.531 112.192C114.163 112.192 112.643 110.448 112.643 107.76ZM114.099 106.992H118.739C118.515 105.216 117.555 104.608 116.531 104.608C115.187 104.608 114.323 105.488 114.099 106.992ZM127.721 106.368C127.545 105.264 126.617 104.608 125.609 104.608C124.041 104.608 123.129 105.792 123.129 107.76C123.129 109.728 124.041 110.912 125.609 110.912C126.665 110.912 127.593 110.208 127.785 108.992L129.209 109.088C128.937 111.008 127.401 112.192 125.609 112.192C123.241 112.192 121.721 110.448 121.721 107.76C121.721 105.072 123.241 103.328 125.609 103.328C127.337 103.328 128.905 104.448 129.129 106.272L127.721 106.368ZM137.536 103.52V104.704H134.481V112H133.121V104.704H130.065V103.52H137.536ZM139.093 112V103.52H140.437V106.64H142.677C145.061 106.64 146.389 107.6 146.389 109.328C146.389 111.04 145.061 112 142.677 112H139.093ZM140.437 110.8H142.677C144.213 110.8 144.981 110.32 144.981 109.328C144.981 108.32 144.213 107.824 142.677 107.824H140.437V110.8ZM152.421 103.52H153.765V107.184H157.765V103.52H159.109V112H157.765V108.368H153.765V112H152.421V103.52ZM161.287 106.016C161.623 104.368 162.951 103.328 164.759 103.328C166.935 103.328 168.167 104.608 168.167 106.88V110.288C168.167 110.64 168.327 110.816 168.679 110.816H169.031V112H168.455C167.591 112 166.839 111.728 166.839 110.688C166.471 111.472 165.543 112.192 164.199 112.192C162.503 112.192 161.143 111.296 161.143 109.776C161.143 108.032 162.455 107.584 164.343 107.232L166.823 106.736C166.807 105.312 166.119 104.608 164.759 104.608C163.687 104.608 162.967 105.152 162.711 106.128L161.287 106.016ZM162.551 109.776C162.551 110.448 163.127 111.008 164.375 111.008C165.751 110.992 166.855 110.032 166.855 108.048V107.936L164.855 108.288C163.591 108.512 162.551 108.592 162.551 109.776ZM170.749 112V103.52H172.093V110.816H175.149V103.52H176.509V110.816H179.549V103.52H180.893V112H170.749ZM192.924 106.368C192.748 105.264 191.82 104.608 190.812 104.608C189.244 104.608 188.332 105.792 188.332 107.76C188.332 109.728 189.244 110.912 190.812 110.912C191.868 110.912 192.796 110.208 192.988 108.992L194.412 109.088C194.14 111.008 192.604 112.192 190.812 112.192C188.444 112.192 186.924 110.448 186.924 107.76C186.924 105.072 188.444 103.328 190.812 103.328C192.54 103.328 194.108 104.448 194.332 106.272L192.924 106.368ZM202.74 103.52V104.704H199.684V112H198.324V104.704H195.268V103.52H202.74ZM210.904 103.52V112H209.56V105.696L205.96 112H204.296V103.52H205.64V109.952L209.32 103.52H210.904ZM213.468 103.52H214.844V107.648L218.828 103.52H220.716L216.54 107.76L220.908 112H218.988L214.844 107.872V112H213.468V103.52ZM221.611 107.76C221.611 105.072 223.131 103.328 225.499 103.328C227.371 103.328 229.035 104.56 229.163 107.568L229.179 108.176H223.035C223.163 109.904 224.043 110.912 225.499 110.912C226.395 110.912 227.227 110.384 227.611 109.488L229.051 109.6C228.555 111.2 227.115 112.192 225.499 112.192C223.131 112.192 221.611 110.448 221.611 107.76ZM223.067 106.992H227.707C227.483 105.216 226.523 104.608 225.499 104.608C224.155 104.608 223.291 105.488 223.067 106.992ZM231.139 114.4V103.52H232.355L232.403 104.784C232.867 103.84 233.779 103.328 235.011 103.328C237.539 103.328 238.675 105.424 238.675 107.76C238.675 110.096 237.539 112.192 235.011 112.192C233.827 112.192 232.963 111.728 232.483 110.848V114.4H231.139ZM232.339 107.76C232.339 109.344 233.059 110.912 234.787 110.912C236.531 110.912 237.235 109.376 237.235 107.76C237.235 106.144 236.531 104.608 234.787 104.608C233.059 104.608 232.339 106.176 232.339 107.76Z" fill="white"/>
<rect x="354" y="194" width="64" height="64" rx="4" fill="white"/>
<mask id="mask0_80_433" style="mask-type:alpha" maskUnits="userSpaceOnUse" x="370" y="211" width="34" height="29">
<path fill-rule="evenodd" clip-rule="evenodd" d="M392.75 211.75L404 226H398.75V233.5C398.75 236.814 396.064 239.5 392.75 239.5H388.25C390.734 239.499 392.748 237.485 392.748 235L392.75 220.75H385.25L392.75 211.75Z" fill="black"/>
<path opacity="0.8" fill-rule="evenodd" clip-rule="evenodd" d="M370.25 235V218.5C370.25 219.743 371.257 220.75 372.5 220.75H392.75V235C392.75 237.485 390.735 239.5 388.25 239.5H374.75C372.265 239.5 370.25 237.485 370.25 235ZM385.25 229.375C385.25 228.34 386.09 227.5 387.125 227.5H387.875C388.91 227.5 389.75 228.34 389.75 229.375C389.75 230.41 388.91 231.25 387.875 231.25H387.125C386.09 231.25 385.25 230.41 385.25 229.375Z" fill="url(#paint0_linear_80_433)"/>
<path opacity="0.35" d="M370.25 218.5C370.25 217.257 371.257 216.25 372.5 216.25H389L385.25 220.75H372.5C371.257 220.75 370.25 219.743 370.25 218.5Z" fill="black"/>
</mask>
<g mask="url(#mask0_80_433)">
<path d="M368 208H404V244H368V208Z" fill="#336FEE"/>
</g>
<defs>
<linearGradient id="paint0_linear_80_433" x1="370.25" y1="229" x2="392" y2="229" gradientUnits="userSpaceOnUse">
<stop/>
<stop offset="1" stop-opacity="0.7"/>
</linearGradient>
</defs>
</svg>
