<svg width="338" height="300" viewBox="0 0 338 300" fill="none" xmlns="http://www.w3.org/2000/svg">
<g clip-path="url(#clip0_80_370)">
<rect width="338" height="300" rx="24" fill="#4B82D2"/>
<path d="M27.38 30.06H41.12V44H37.68V32.88H30.82V44H27.38V30.06ZM45.1039 33.46H55.4039V44H52.0439V36.1H48.5039V37.5C48.5039 39.82 48.0306 41.54 47.0839 42.66C46.1372 43.78 44.6839 44.34 42.7239 44.34V41.68C43.5639 41.5733 44.1706 41.2 44.5439 40.56C44.9172 39.9067 45.1039 38.8867 45.1039 37.5V33.46ZM63.185 33.12C65.1317 33.12 66.565 33.4733 67.485 34.18C68.4183 34.8733 68.885 35.96 68.885 37.44V44H65.505V42.32C64.6783 43.6667 63.365 44.34 61.565 44.34C60.1383 44.34 59.0583 44.0667 58.325 43.52C57.605 42.96 57.245 42.1533 57.245 41.1C57.245 38.82 59.025 37.68 62.585 37.68C63.705 37.68 64.6783 37.78 65.505 37.98V37.44C65.505 36.8133 65.3183 36.36 64.945 36.08C64.5717 35.7867 63.985 35.64 63.185 35.64C61.7717 35.64 61.0117 36 60.905 36.72H57.825C57.945 34.32 59.7317 33.12 63.185 33.12ZM62.665 41.98C63.5317 41.98 64.2183 41.8 64.725 41.44C65.2317 41.0667 65.4917 40.54 65.505 39.86V39.82C64.7983 39.6467 63.9117 39.56 62.845 39.56C61.2183 39.56 60.405 39.9533 60.405 40.74C60.405 41.5667 61.1583 41.98 62.665 41.98ZM77.6834 44H74.3234V36.1H70.5034V33.46H81.5434V36.1H77.6834V44ZM95.877 38.68V39.5H86.097C86.2037 40.38 86.5104 41 87.017 41.36C87.5237 41.72 88.3237 41.9 89.417 41.9C91.297 41.9 92.3237 41.4933 92.497 40.68H95.677C95.4504 43.12 93.3437 44.34 89.357 44.34C87.077 44.34 85.4037 43.88 84.337 42.96C83.2704 42.04 82.737 40.6 82.737 38.64C82.737 36.7467 83.2637 35.3533 84.317 34.46C85.3837 33.5667 87.0504 33.12 89.317 33.12C91.5837 33.12 93.2437 33.56 94.297 34.44C95.3504 35.3067 95.877 36.72 95.877 38.68ZM89.337 35.56C88.297 35.56 87.5304 35.7133 87.037 36.02C86.557 36.3267 86.257 36.8533 86.137 37.6H92.497C92.4704 36.88 92.2037 36.36 91.697 36.04C91.2037 35.72 90.417 35.56 89.337 35.56ZM114.819 44H111.279L109.339 39.86H107.379V44H104.019V39.86H102.059L100.119 44H96.5786L99.0986 38.58L96.7186 33.46H100.239L101.979 37.2H104.019V33.46H107.379V37.2H109.419L111.159 33.46H114.679L112.299 38.64L114.819 44ZM124.616 37.2V33.46H127.976V44H124.616V39.86H119.916V44H116.556V33.46H119.916V37.2H124.616ZM130.423 44V33.46H133.783V36.56H136.283C139.79 36.56 141.543 37.7867 141.543 40.24C141.543 42.7467 139.79 44 136.283 44H130.423ZM146.623 44H143.263V33.46H146.623V44ZM136.283 39.1H133.783V41.48H136.283C137.616 41.48 138.283 41.0733 138.283 40.26C138.283 39.4867 137.616 39.1 136.283 39.1ZM151.098 28.82H153.398C153.398 29.78 154.018 30.26 155.258 30.26C155.898 30.26 156.364 30.1467 156.658 29.92C156.951 29.6933 157.098 29.3267 157.098 28.82H159.378C159.378 29.9667 159.044 30.8067 158.378 31.34C157.711 31.8733 156.671 32.14 155.258 32.14C153.844 32.14 152.798 31.8733 152.118 31.34C151.451 30.8067 151.111 29.9667 151.098 28.82ZM157.098 33.46H161.618V44H158.258V36.48H157.878L153.518 44H148.978V33.46H152.338V40.96H152.678L157.098 33.46ZM176.39 44.34C174.096 44.34 172.41 43.8867 171.33 42.98C170.25 42.06 169.71 40.6267 169.71 38.68C169.71 36.7733 170.25 35.3733 171.33 34.48C172.41 33.5733 174.096 33.12 176.39 33.12C178.35 33.12 179.87 33.5067 180.95 34.28C182.043 35.04 182.643 36.1533 182.75 37.62H179.41C179.263 36.3933 178.27 35.78 176.43 35.78C175.23 35.78 174.37 36 173.85 36.44C173.343 36.88 173.09 37.6333 173.09 38.7C173.09 39.78 173.343 40.5467 173.85 41C174.356 41.4533 175.216 41.68 176.43 41.68C178.31 41.68 179.316 40.9933 179.45 39.62H182.81C182.69 41.1533 182.076 42.3267 180.97 43.14C179.876 43.94 178.35 44.34 176.39 44.34ZM191.18 44H187.82V36.1H184V33.46H195.04V36.1H191.18V44ZM204.852 33.46H209.372V44H206.012V36.48H205.632L201.272 44H196.732V33.46H200.092V40.96H200.432L204.852 33.46ZM223.57 44H219.93L217.55 39.86H215.17V44H211.81V33.46H215.17V37.2H217.85L219.85 33.46H223.41L220.57 38.72L223.57 44ZM237.225 38.68V39.5H227.445C227.551 40.38 227.858 41 228.365 41.36C228.871 41.72 229.671 41.9 230.765 41.9C232.645 41.9 233.671 41.4933 233.845 40.68H237.025C236.798 43.12 234.691 44.34 230.705 44.34C228.425 44.34 226.751 43.88 225.685 42.96C224.618 42.04 224.085 40.6 224.085 38.64C224.085 36.7467 224.611 35.3533 225.665 34.46C226.731 33.5667 228.398 33.12 230.665 33.12C232.931 33.12 234.591 33.56 235.645 34.44C236.698 35.3067 237.225 36.72 237.225 38.68ZM230.685 35.56C229.645 35.56 228.878 35.7133 228.385 36.02C227.905 36.3267 227.605 36.8533 227.485 37.6H233.845C233.818 36.88 233.551 36.36 233.045 36.04C232.551 35.72 231.765 35.56 230.685 35.56ZM247.152 33.12C249.045 33.12 250.438 33.5733 251.332 34.48C252.238 35.3867 252.692 36.7933 252.692 38.7C252.692 40.6333 252.238 42.06 251.332 42.98C250.438 43.8867 249.045 44.34 247.152 44.34C244.898 44.34 243.378 43.62 242.592 42.18V48.4H239.232V33.46H242.592V35.24C243.365 33.8267 244.885 33.12 247.152 33.12ZM246.092 41.72C247.252 41.72 248.078 41.4867 248.572 41.02C249.078 40.5533 249.332 39.7867 249.332 38.72C249.332 37.64 249.085 36.88 248.592 36.44C248.112 35.9867 247.292 35.76 246.132 35.76C243.705 35.76 242.492 36.62 242.492 38.34V39C242.492 39.8533 242.805 40.52 243.432 41C244.058 41.48 244.945 41.72 246.092 41.72Z" fill="white"/>
<path opacity="0.9" d="M27.472 60.64H34.608V61.984H28.848V65.648H34.416V66.96H28.848V70.656H34.736V72H27.472V60.64ZM42.3926 66.368C42.2166 65.264 41.2886 64.608 40.2806 64.608C38.7126 64.608 37.8006 65.792 37.8006 67.76C37.8006 69.728 38.7126 70.912 40.2806 70.912C41.3366 70.912 42.2646 70.208 42.4566 68.992L43.8806 69.088C43.6086 71.008 42.0726 72.192 40.2806 72.192C37.9126 72.192 36.3926 70.448 36.3926 67.76C36.3926 65.072 37.9126 63.328 40.2806 63.328C42.0086 63.328 43.5766 64.448 43.8006 66.272L42.3926 66.368ZM53.9888 63.52V72H52.6448V64.704H49.0128L48.4848 69.648C48.3248 71.216 47.6528 72 46.4048 72H45.4288V70.656H46.2128C46.7408 70.656 47.0608 70.256 47.1408 69.504L47.7808 63.52H53.9888ZM63.1536 63.52V72H61.8096V65.696L58.2096 72H56.5456V63.52H57.8896V69.952L61.5696 63.52H63.1536ZM72.8855 66.896C73.8615 66.912 74.5015 66.448 74.5015 65.712C74.5015 65.04 73.8135 64.608 72.7255 64.608C71.7335 64.608 71.0775 65.008 70.9975 65.616L69.5415 65.536C69.7015 64.176 70.9335 63.328 72.7255 63.328C74.6775 63.328 75.9095 64.24 75.9095 65.712C75.9095 66.512 75.2695 67.152 74.2135 67.44C75.4455 67.792 76.1975 68.64 76.1975 69.696C76.1975 71.232 74.8535 72.192 72.7255 72.192C70.6615 72.192 69.3175 71.2 69.2375 69.632L70.6455 69.568C70.7095 70.384 71.5095 70.912 72.7255 70.912C73.9895 70.912 74.7895 70.416 74.7895 69.616C74.7895 68.688 74.0375 68.128 72.8855 68.144L72.0055 68.16V66.88L72.8855 66.896ZM77.9741 66.016C78.3101 64.368 79.6381 63.328 81.4461 63.328C83.6221 63.328 84.8541 64.608 84.8541 66.88V70.288C84.8541 70.64 85.0141 70.816 85.3661 70.816H85.7181V72H85.1421C84.2781 72 83.5261 71.728 83.5261 70.688C83.1581 71.472 82.2301 72.192 80.8861 72.192C79.1901 72.192 77.8301 71.296 77.8301 69.776C77.8301 68.032 79.1421 67.584 81.0301 67.232L83.5101 66.736C83.4941 65.312 82.8061 64.608 81.4461 64.608C80.3741 64.608 79.6541 65.152 79.3981 66.128L77.9741 66.016ZM79.2381 69.776C79.2381 70.448 79.8141 71.008 81.0621 71.008C82.4381 70.992 83.5421 70.032 83.5421 68.048V67.936L81.5421 68.288C80.2781 68.512 79.2381 68.592 79.2381 69.776ZM88.381 68.224C88.349 69.84 89.421 70.976 90.973 70.976C92.477 70.976 93.549 69.84 93.549 68.224C93.549 66.656 92.525 65.536 91.085 65.536C89.517 65.536 88.397 66.656 88.381 68.224ZM86.909 66.992C86.909 63.904 87.725 62.528 89.837 61.616C90.925 61.136 91.245 60.752 91.245 59.84L92.621 59.824C92.621 61.072 92.189 61.968 90.861 62.592C89.501 63.248 88.397 63.6 88.301 65.904C88.909 64.848 89.933 64.256 91.181 64.256C93.437 64.256 94.957 65.888 94.957 68.224C94.957 70.704 93.293 72.256 90.941 72.256C89.949 72.256 88.941 71.904 88.125 71.024C87.309 70.208 86.909 68.752 86.909 66.992ZM96.9363 72V63.52H98.2803V66.64H100.52C102.904 66.64 104.232 67.6 104.232 69.328C104.232 71.04 102.904 72 100.52 72H96.9363ZM98.2803 70.8H100.52C102.056 70.8 102.824 70.32 102.824 69.328C102.824 68.32 102.056 67.824 100.52 67.824H98.2803V70.8ZM105.736 72V63.52H107.08V72H105.736ZM117.879 63.52V72H116.535V64.704H112.903L112.375 69.648C112.215 71.216 111.543 72 110.295 72H109.319V70.656H110.103C110.631 70.656 110.951 70.256 111.031 69.504L111.671 63.52H117.879ZM127.044 63.52V72H125.7V65.696L122.1 72H120.436V63.52H121.78V69.952L125.46 63.52H127.044ZM133.608 63.52H134.984V67.648L138.968 63.52H140.856L136.68 67.76L141.048 72H139.128L134.984 67.872V72H133.608V63.52ZM142.537 66.016C142.873 64.368 144.201 63.328 146.009 63.328C148.185 63.328 149.417 64.608 149.417 66.88V70.288C149.417 70.64 149.577 70.816 149.929 70.816H150.281V72H149.705C148.841 72 148.089 71.728 148.089 70.688C147.721 71.472 146.793 72.192 145.449 72.192C143.753 72.192 142.393 71.296 142.393 69.776C142.393 68.032 143.705 67.584 145.593 67.232L148.073 66.736C148.057 65.312 147.369 64.608 146.009 64.608C144.937 64.608 144.217 65.152 143.961 66.128L142.537 66.016ZM143.801 69.776C143.801 70.448 144.377 71.008 145.625 71.008C147.001 70.992 148.105 70.032 148.105 68.048V67.936L146.105 68.288C144.841 68.512 143.801 68.592 143.801 69.776ZM151.999 74.4V63.52H153.215L153.263 64.784C153.727 63.84 154.639 63.328 155.871 63.328C158.399 63.328 159.535 65.424 159.535 67.76C159.535 70.096 158.399 72.192 155.871 72.192C154.687 72.192 153.823 71.728 153.343 70.848V74.4H151.999ZM153.199 67.76C153.199 69.344 153.919 70.912 155.647 70.912C157.391 70.912 158.095 69.376 158.095 67.76C158.095 66.144 157.391 64.608 155.647 64.608C153.919 64.608 153.199 66.176 153.199 67.76ZM168.021 63.52V64.704H164.965V72H163.605V64.704H160.549V63.52H168.021ZM169.118 63.52H170.558L173.102 70.56L175.582 63.52H177.006L173.566 73.072C173.246 73.984 172.638 74.4 171.678 74.4H170.574V73.216H171.55C171.966 73.216 172.206 73.04 172.366 72.624L172.67 71.84H172.222L169.118 63.52ZM190.367 63.52V70.816H191.743V74.4H190.399V72H183.343V74.4H181.999V70.816H182.751C183.423 70.816 183.791 70.336 183.935 69.28L184.703 63.52H190.367ZM184.735 70.816H189.023V64.704H185.919L185.247 69.408C185.167 70 184.991 70.464 184.735 70.816ZM197.031 72.192C194.679 72.192 193.143 70.464 193.143 67.76C193.143 65.056 194.679 63.328 197.031 63.328C199.367 63.328 200.903 65.056 200.903 67.76C200.903 70.464 199.367 72.192 197.031 72.192ZM194.551 67.76C194.551 69.728 195.463 70.912 197.031 70.912C198.583 70.912 199.495 69.728 199.495 67.76C199.495 65.792 198.583 64.608 197.031 64.608C195.463 64.608 194.551 65.792 194.551 67.76ZM202.858 63.52H204.714L207.338 70.592L209.946 63.52H211.786V72H210.442V66.016L208.17 72H206.49L204.202 66.016V72H202.858V63.52ZM213.959 66.016C214.295 64.368 215.623 63.328 217.431 63.328C219.607 63.328 220.839 64.608 220.839 66.88V70.288C220.839 70.64 220.999 70.816 221.351 70.816H221.703V72H221.127C220.263 72 219.511 71.728 219.511 70.688C219.143 71.472 218.215 72.192 216.871 72.192C215.174 72.192 213.815 71.296 213.815 69.776C213.815 68.032 215.127 67.584 217.015 67.232L219.495 66.736C219.479 65.312 218.791 64.608 217.431 64.608C216.359 64.608 215.639 65.152 215.383 66.128L213.959 66.016ZM215.223 69.776C215.223 70.448 215.799 71.008 217.047 71.008C218.423 70.992 219.527 70.032 219.527 68.048V67.936L217.527 68.288C216.263 68.512 215.223 68.592 215.223 69.776Z" fill="white"/>
<g filter="url(#filter0_dddd_80_370)">
<g clip-path="url(#clip1_80_370)">
<rect width="237.636" height="118.534" rx="9.48" transform="matrix(0.951325 -0.30819 0.309846 0.950787 105.302 247.268)" fill="url(#paint0_linear_80_370)"/>
<path d="M141.643 257.731C141.165 256.262 140.26 254.968 139.044 254.012C137.827 253.056 136.354 252.481 134.81 252.36C133.266 252.238 131.72 252.577 130.369 253.331C129.017 254.086 127.921 255.223 127.217 256.599C126.514 257.975 126.236 259.528 126.418 261.061C126.6 262.595 127.234 264.04 128.24 265.214C129.246 266.389 130.579 267.239 132.069 267.658C133.56 268.077 135.142 268.046 136.615 267.569L134.195 260.143L141.643 257.731Z" fill="white"/>
<path d="M151.512 262.743C151.194 261.768 150.686 260.865 150.019 260.085C149.351 259.306 148.535 258.665 147.619 258.199C146.703 257.734 145.703 257.453 144.678 257.372C143.653 257.292 142.622 257.414 141.643 257.731L144.063 265.156L151.512 262.743Z" fill="white"/>
<path d="M155.053 249.693C157.458 248.913 159.27 249.672 159.939 251.726C160.619 253.81 159.609 255.516 157.205 256.295L154.632 257.128L156 261.327L154.691 261.751L151.172 250.95L155.053 249.693ZM154.216 255.85L156.788 255.017C158.417 254.489 159.011 253.523 158.569 252.169C158.138 250.846 157.098 250.443 155.469 250.97L152.897 251.804L154.216 255.85ZM162.44 259.241L162.817 247.177L164.583 246.605L171.999 256.144L170.568 256.607L168.486 253.885L163.95 255.354L163.871 258.777L162.44 259.241ZM163.975 253.933L167.628 252.75L164.072 248.032L163.975 253.933ZM168.047 245.483L169.6 244.98L174.153 249.038L175.445 243.086L176.997 242.584L175.259 250.21L176.696 254.622L175.387 255.046L173.95 250.635L168.047 245.483Z" fill="white"/>
<rect width="111" height="17" transform="matrix(0.951325 -0.30819 0.309846 0.950787 258.384 238.413)" fill="url(#paint1_linear_80_370)"/>
<rect width="111" height="17" transform="matrix(0.951325 -0.30819 0.309846 0.950787 258.401 263.4)" fill="url(#paint2_linear_80_370)"/>
<rect width="111" height="17" transform="matrix(0.951325 -0.30819 0.309846 0.950787 304.431 272.428)" fill="url(#paint3_linear_80_370)"/>
</g>
</g>
</g>
<defs>
<filter id="filter0_dddd_80_370" x="22.3022" y="101.031" width="352.796" height="265.937" filterUnits="userSpaceOnUse" color-interpolation-filters="sRGB">
<feFlood flood-opacity="0" result="BackgroundImageFix"/>
<feColorMatrix in="SourceAlpha" type="matrix" values="0 0 0 0 0 0 0 0 0 0 0 0 0 0 0 0 0 0 127 0" result="hardAlpha"/>
<feOffset dx="-3" dy="-3"/>
<feGaussianBlur stdDeviation="5"/>
<feColorMatrix type="matrix" values="0 0 0 0 0.12549 0 0 0 0 0.203922 0 0 0 0 0.788235 0 0 0 0.1 0"/>
<feBlend mode="normal" in2="BackgroundImageFix" result="effect1_dropShadow_80_370"/>
<feColorMatrix in="SourceAlpha" type="matrix" values="0 0 0 0 0 0 0 0 0 0 0 0 0 0 0 0 0 0 127 0" result="hardAlpha"/>
<feOffset dx="-14" dy="-11"/>
<feGaussianBlur stdDeviation="9"/>
<feColorMatrix type="matrix" values="0 0 0 0 0.12549 0 0 0 0 0.203922 0 0 0 0 0.788235 0 0 0 0.09 0"/>
<feBlend mode="normal" in2="effect1_dropShadow_80_370" result="effect2_dropShadow_80_370"/>
<feColorMatrix in="SourceAlpha" type="matrix" values="0 0 0 0 0 0 0 0 0 0 0 0 0 0 0 0 0 0 127 0" result="hardAlpha"/>
<feOffset dx="-31" dy="-26"/>
<feGaussianBlur stdDeviation="12"/>
<feColorMatrix type="matrix" values="0 0 0 0 0.12549 0 0 0 0 0.203922 0 0 0 0 0.788235 0 0 0 0.05 0"/>
<feBlend mode="normal" in2="effect2_dropShadow_80_370" result="effect3_dropShadow_80_370"/>
<feColorMatrix in="SourceAlpha" type="matrix" values="0 0 0 0 0 0 0 0 0 0 0 0 0 0 0 0 0 0 127 0" result="hardAlpha"/>
<feOffset dx="-55" dy="-45"/>
<feGaussianBlur stdDeviation="14"/>
<feColorMatrix type="matrix" values="0 0 0 0 0.12549 0 0 0 0 0.203922 0 0 0 0 0.788235 0 0 0 0.01 0"/>
<feBlend mode="normal" in2="effect3_dropShadow_80_370" result="effect4_dropShadow_80_370"/>
<feBlend mode="normal" in="SourceGraphic" in2="effect4_dropShadow_80_370" result="shape"/>
</filter>
<linearGradient id="paint0_linear_80_370" x1="-32.4769" y1="135.919" x2="355.458" y2="-0.581224" gradientUnits="userSpaceOnUse">
<stop stop-color="#1C30CB"/>
<stop offset="1" stop-color="#293BC4"/>
</linearGradient>
<linearGradient id="paint1_linear_80_370" x1="0" y1="8.5" x2="111" y2="8.5" gradientUnits="userSpaceOnUse">
<stop stop-color="#2235C8"/>
<stop offset="1" stop-color="#111A62"/>
</linearGradient>
<linearGradient id="paint2_linear_80_370" x1="0" y1="8.5" x2="111" y2="8.5" gradientUnits="userSpaceOnUse">
<stop stop-color="#2235C8"/>
<stop offset="1" stop-color="#111A62"/>
</linearGradient>
<linearGradient id="paint3_linear_80_370" x1="0" y1="8.5" x2="111" y2="8.5" gradientUnits="userSpaceOnUse">
<stop stop-color="#2235C8"/>
<stop offset="1" stop-color="#111A62"/>
</linearGradient>
<clipPath id="clip0_80_370">
<rect width="338" height="300" rx="24" fill="white"/>
</clipPath>
<clipPath id="clip1_80_370">
<rect width="237.636" height="118.534" rx="9.48" transform="matrix(0.951325 -0.30819 0.309846 0.950787 105.302 247.268)" fill="white"/>
</clipPath>
</defs>
</svg>
